<?xml version="1.0" encoding="UTF-8" standalone="no"?>
<!-- Created with Inkscape (http://www.inkscape.org/) -->

<svg
   xmlns:dc="http://purl.org/dc/elements/1.1/"
   xmlns:cc="http://creativecommons.org/ns#"
   xmlns:rdf="http://www.w3.org/1999/02/22-rdf-syntax-ns#"
   xmlns:svg="http://www.w3.org/2000/svg"
   xmlns="http://www.w3.org/2000/svg"
   xmlns:sodipodi="http://sodipodi.sourceforge.net/DTD/sodipodi-0.dtd"
   xmlns:inkscape="http://www.inkscape.org/namespaces/inkscape"
   width="744.09448819"
   height="1052.3622047"
   id="svg2"
   version="1.1"
   inkscape:version="0.48.4 r9939"
   sodipodi:docname="13-hugTree.svg">
  <sodipodi:namedview
     id="base"
     pagecolor="#ffffff"
     bordercolor="#666666"
     borderopacity="1.0"
     inkscape:pageopacity="0.0"
     inkscape:pageshadow="2"
     inkscape:zoom="0.5"
     inkscape:cx="52.644291"
     inkscape:cy="454.26531"
     inkscape:document-units="px"
     inkscape:current-layer="layer1"
     showgrid="false"
     inkscape:window-width="1280"
     inkscape:window-height="739"
     inkscape:window-x="0"
     inkscape:window-y="0"
     inkscape:window-maximized="1" />
  <defs
     id="defs4" />
  <metadata
     id="metadata7">
    <rdf:RDF>
      <cc:Work
         rdf:about="">
        <dc:format>image/svg+xml</dc:format>
        <dc:type
           rdf:resource="http://purl.org/dc/dcmitype/StillImage" />
        <dc:title></dc:title>
      </cc:Work>
    </rdf:RDF>
  </metadata>
  <g
     inkscape:label="Layer 1"
     inkscape:groupmode="layer"
     id="layer1">
    <g
       id="g4001"
       transform="translate(-22.000002,-24)"
       inkscape:export-filename="/home/hugocm93/Desktop/13-hugTree.png"
       inkscape:export-xdpi="90"
       inkscape:export-ydpi="90">
      <path
         transform="translate(211,-28)"
         d="m 176.06959,629.86591 c 0,15.03518 -12.18843,27.22361 -27.22361,27.22361 -15.03519,0 -27.22361,-12.18843 -27.22361,-27.22361 0,-15.03519 12.18842,-27.22362 27.22361,-27.22362 15.03518,0 27.22361,12.18843 27.22361,27.22362 z"
         sodipodi:ry="27.223612"
         sodipodi:rx="27.223612"
         sodipodi:cy="629.86591"
         sodipodi:cx="148.84598"
         id="path3901"
         style="fill:#000000;fill-opacity:1;stroke:#ffffff;stroke-width:2;stroke-miterlimit:4;stroke-opacity:1;stroke-dasharray:none"
         sodipodi:type="arc" />
      <rect
         transform="matrix(0.99018422,0.1397684,-0.1397684,0.99018422,0,0)"
         ry="9.1923885"
         y="684.07483"
         x="449.1095"
         height="123.03658"
         width="18.384777"
         id="rect3909-1"
         style="fill:#000000;fill-opacity:1;stroke:#ffffff;stroke-width:2;stroke-miterlimit:4;stroke-opacity:1;stroke-dasharray:none" />
      <rect
         transform="matrix(0.60506144,0.79617878,-0.79617878,0.60506144,0,0)"
         ry="9.1923885"
         y="4.3795137"
         x="744.39459"
         height="123.03658"
         width="18.384777"
         id="rect3909-3-1"
         style="fill:#000000;fill-opacity:1;stroke:#ffffff;stroke-width:2;stroke-miterlimit:4;stroke-opacity:1;stroke-dasharray:none" />
      <g
         id="g3989">
        <path
           style="fill:#000000;fill-opacity:1;stroke:#000000;stroke-width:11.88832569;stroke-miterlimit:4;stroke-opacity:1"
           d="m 427.8604,649.18878 9.27794,0 c 8.30018,0 14.98228,6.6821 14.98228,14.98229 l 0,143.35005 c 0,8.30018 -6.6821,14.98228 -14.98228,14.98228 l -9.27794,0 c -8.30019,0 -14.98229,-6.6821 -14.98229,-14.98228 l 0,-143.35005 c 0,-8.30019 6.6821,-14.98229 14.98229,-14.98229 z"
           id="rect3899"
           inkscape:connector-curvature="0" />
        <g
           id="g3889"
           transform="matrix(1,0,0,0.81189829,0,137.75947)">
          <g
             style="stroke:#000000;stroke-width:17.22707939;stroke-miterlimit:4;stroke-opacity:1;stroke-dasharray:none"
             transform="matrix(0.82471388,0.03568264,-0.03342061,0.8805336,277.48886,322.68888)"
             id="g3111">
            <path
               inkscape:connector-curvature="0"
               d="m 197.55947,445.01454 0,-200.1 100.87078,-126.26887 107.11251,-45.27309 60.68026,14.406753 -60.68026,-14.406753 56.10699,-82.9453837 50.41258,-33.6560123 -50.41258,33.6560123 -1.15024,-88.4842183 41.60798,-66.833848 -41.60798,66.833848 -35.07488,-46.439808 35.07488,46.439808 1.15024,88.4842183 -56.10699,82.9453837 -107.11251,45.27309 0.93387,-133.738711 39.20106,-56.267961 -39.20106,56.267961 -37.55015,-65.909419 10.88245,-64.41056 -10.88245,64.41056 37.55015,65.909419 -0.93387,133.738711 -100.87078,126.26887 -71.88179,-91.67142 -17.41284,-58.464801 17.41284,58.464801 -62.1088,-37.09213 -62.5518078,9.14463 62.5518078,-9.14463 62.1088,37.09213 71.88179,91.67142 0,200.1"
               style="fill:none;stroke:#000000;stroke-width:17.22707939;stroke-linecap:butt;stroke-linejoin:miter;stroke-miterlimit:4;stroke-opacity:1;stroke-dasharray:none"
               id="path3004" />
            <path
               inkscape:connector-curvature="0"
               id="path3016"
               style="fill:none;stroke:#000000;stroke-width:17.22707939;stroke-linecap:butt;stroke-linejoin:miter;stroke-miterlimit:4;stroke-opacity:1;stroke-dasharray:none"
               d="m 197.55947,445.01454 0,-200.5 85.32866,-155.951196 81.34452,-50.72908 56.06681,-11.421478 -56.06681,11.421478 35.98684,-72.772908 -35.98684,72.772908 -81.34452,50.72908 -2.13725,-149.965009 58.93638,-92.675725 53.56474,-39.38691 -53.56474,39.38691 12.77552,-74.88342 -12.77552,74.88342 -58.93638,92.675725 -52.331,-63.664055 52.331,63.664055 2.13725,149.965009 L 197.55947,244.51454 153.31614,126.58417 176.8835,39.929302 231.20585,-5.8610072 176.8835,39.929302 161.1037,-19.757696 176.8835,39.929302 153.31614,126.58417 94.865041,59.84008 80.935894,5.2090761 94.865041,59.84008 22.361106,30.735309 l -56.494339,6.655626 56.494339,-6.655626 72.503935,29.104771 58.451099,66.74409 44.24333,117.93037 0,200.5" />
            <path
               inkscape:connector-curvature="0"
               d="m 197.55947,445.01454 0,-200.5 72.24948,-90.76009 83.44106,-18.38781 50.9222,12.35179 -50.9222,-12.35179 49.85531,-45.568183 57.10677,-12.528581 -57.10677,12.528581 -49.85531,45.568183 -83.44106,18.38781 16.1786,-89.728685 29.86469,-47.004246 45.00265,-18.6105939 -45.00265,18.6105939 -29.86469,47.004246 -13.25201,-50.474347 13.25201,50.474347 -16.1786,89.728685 -72.24948,90.76009 -75.66584,-143.43762 14.67305,-104.7113366 61.82914,-69.2750454 47.6745,-9.006451 -47.6745,9.006451 20.10538,-64.345778 -20.10538,64.345778 L 136.56668,-3.6344166 118.80285,-69.065239 83.850752,-104.98794 118.80285,-69.065239 136.56668,-3.6344166 121.89363,101.07692 37.560716,44.631562 13.665362,-4.4739544 37.560716,44.631562 -43.722267,28.963583 -105.96727,-8.5224439 -138.1557,-61.198781 l -40.52528,-30.492683 40.52528,30.492683 32.18843,52.6763371 -58.21396,4.9110587 -46.95453,-15.0539218 46.95453,15.0539218 58.21396,-4.9110587 62.245003,37.4860269 -69.608723,19.881248 -54.86701,-7.353036 54.86701,7.353036 69.608723,-19.881248 81.282983,15.667979 84.332914,56.445358 75.66584,143.43762 0,200.5"
               style="fill:none;stroke:#000000;stroke-width:17.22707939;stroke-linecap:butt;stroke-linejoin:miter;stroke-miterlimit:4;stroke-opacity:1;stroke-dasharray:none"
               id="path3030" />
            <path
               inkscape:connector-curvature="0"
               id="path3046"
               style="fill:none;stroke:#000000;stroke-width:17.22707939;stroke-linecap:butt;stroke-linejoin:miter;stroke-miterlimit:4;stroke-opacity:1;stroke-dasharray:none"
               d="m 197.55947,445.01454 0,-200.5 70.73914,-91.01644 75.94441,-26.06173 58.15889,13.23345 50.89158,-8.39514 -50.89158,8.39514 -58.15889,-13.23345 40.96742,-50.833851 10.56,-39.285499 -10.56,39.285499 L 344.24302,127.43637 268.29861,153.4981 285.23018,94.910894 271.11061,47.266386 285.23018,94.910894 268.29861,153.4981 197.55947,244.51454 102.31964,121.84241 80.605043,22.74979 101.94036,-40.467973 130.77146,-71.37139 101.94036,-40.467973 88.671884,-89.084437 55.344111,-112.5602 88.671884,-89.084437 101.94036,-40.467973 80.605043,22.74979 20.810679,-41.567736 10.70386,-98.9165 l 8.008914,-40.61756 -8.008914,40.61756 -33.68617,-39.29868 -7.424549,-40.1772 7.424549,40.1772 -41.684663,-19.02126 41.684663,19.02126 33.68617,39.29868 10.106819,57.348764 -60.391767,-18.548702 -30.747835,-39.138613 30.747835,39.138613 60.391767,18.548702 L 80.605043,22.74979 102.31964,121.84241 -2.3879416,64.241987 -38.521625,13.267158 l -48.136388,-25.41552 48.136388,25.41552 36.1336834,50.974829 -69.8035654,-3.980675 -35.158753,-22.847478 35.158753,22.847478 -57.563473,20.537981 -44.81686,-1.771212 44.81686,1.771212 57.563473,-20.537981 69.8035654,3.980675 104.7075816,57.600423 95.23983,122.67213 0,200.5" />
            <path
               inkscape:connector-curvature="0"
               d="m 197.55947,445.01454 0,-181.1 73.8583,-124.23746 65.9322,-47.712637 58.70749,-2.501037 37.29805,20.200554 -37.29805,-20.200554 37.64474,-27.104758 12.16079,-36.92198 -12.16079,36.92198 -37.64474,27.104758 -58.70749,2.501037 22.64766,-56.121704 31.95399,-33.8039286 -31.95399,33.8039286 -0.0605,-45.6305435 0.0605,45.6305435 -22.64766,56.121704 -65.9322,47.712637 2.58216,-88.627981 28.84893,-46.1539484 -2.84611,-40.4546946 2.84611,40.4546946 -28.84893,46.1539484 -34.35482,-46.4658563 -38.23792,-16.1807707 38.23792,16.1807707 34.35482,46.4658563 -2.58216,88.627981 -73.8583,124.23746 -47.90056,-92.00631 12.88836,-83.587888 29.12254,-35.663873 6.83551,-38.178035 -6.83551,38.178035 -29.12254,35.663873 -11.7799,-42.708108 11.7799,42.708108 -12.88836,83.587888 -53.01262,-30.89853 53.01262,30.89853 47.90056,92.00631 0,181.1"
               style="fill:none;stroke:#000000;stroke-width:17.22707939;stroke-linecap:butt;stroke-linejoin:miter;stroke-miterlimit:4;stroke-opacity:1;stroke-dasharray:none"
               id="path3064" />
            <path
               inkscape:connector-curvature="0"
               id="path3084"
               style="fill:none;stroke:#000000;stroke-width:17.22707939;stroke-linecap:butt;stroke-linejoin:miter;stroke-miterlimit:4;stroke-opacity:1;stroke-dasharray:none"
               d="m 197.55947,445.01454 0,-159.3 43.33872,-79.89084 39.01067,-27.27748 29.02207,-2.17067 -29.02207,2.17067 7.86574,-29.2604 -7.86574,29.2604 -39.01067,27.27748 -7.97893,-55.28553 8.32431,-37.38619 22.59,-20.406578 -22.59,20.406578 -8.32431,37.38619 -29.92197,-39.28268 -3.08911,-37.776951 8.99663,-27.193033 -8.99663,27.193033 3.08911,37.776951 29.92197,39.28268 7.97893,55.28553 -43.33872,79.89084 -49.99945,-74.85244 -7.52232,-47.80248 9.69861,-27.34644 -9.69861,27.34644 -18.01215,-24.77571 18.01215,24.77571 7.52232,47.80248 -44.85333,-23.70262 -13.794953,-30.7803 3.739944,-28.01847 -3.739944,28.01847 13.794953,30.7803 -35.862643,-4.82453 -26.097466,-14.94964 26.097466,14.94964 35.862643,4.82453 44.85333,23.70262 49.99945,74.85244 0,159.3" />
          </g>
          <path
             style="fill:#000000;fill-opacity:1;stroke:#000000;stroke-width:10.28891087;stroke-miterlimit:4;stroke-opacity:1"
             d="m 424.24331,538.16626 16.30494,0 c 7.11143,0 12.83651,5.72509 12.83651,12.83651 l 0,163.38314 c 0,7.11143 -5.72508,12.83652 -12.83651,12.83652 l -16.30494,0 c -7.11143,0 -12.83651,-5.72509 -12.83651,-12.83652 l 0,-163.38314 c 0,-7.11142 5.72508,-12.83651 12.83651,-12.83651 z"
             id="rect3887"
             inkscape:connector-curvature="0" />
        </g>
      </g>
      <rect
         ry="11.689121"
         y="640.28851"
         x="333.92191"
         height="124.68014"
         width="49.726814"
         id="rect3905"
         style="fill:#000000;fill-opacity:1;stroke:#ffffff;stroke-width:1.77066207;stroke-miterlimit:4;stroke-opacity:1;stroke-dasharray:none" />
      <rect
         transform="matrix(0.99571512,-0.0924738,0.0924738,0.99571512,0,0)"
         ry="9.1923885"
         y="783.24133"
         x="280.49426"
         height="123.03658"
         width="18.384777"
         id="rect3909"
         style="fill:#000000;fill-opacity:1;stroke:#ffffff;stroke-width:2;stroke-miterlimit:4;stroke-opacity:1;stroke-dasharray:none" />
      <rect
         transform="matrix(0.01822294,0.99983395,-0.99983395,0.01822294,0,0)"
         ry="9.1923885"
         y="-470.62302"
         x="674.7384"
         height="123.03658"
         width="18.384777"
         id="rect3909-3"
         style="fill:#000000;fill-opacity:1;stroke:#ffffff;stroke-width:2;stroke-miterlimit:4;stroke-opacity:1;stroke-dasharray:none" />
      <rect
         ry="0.26516503"
         y="626.6839"
         x="405.26059"
         height="24.57196"
         width="0.53033006"
         id="rect3985"
         style="fill:#000000;fill-opacity:1;stroke:#ffffff;stroke-width:2;stroke-miterlimit:4;stroke-opacity:1;stroke-dasharray:none" />
    </g>
  </g>
</svg>
