<?xml version="1.0" encoding="UTF-8" standalone="no"?>
<!-- Created with Inkscape (http://www.inkscape.org/) -->

<svg
   xmlns:dc="http://purl.org/dc/elements/1.1/"
   xmlns:cc="http://creativecommons.org/ns#"
   xmlns:rdf="http://www.w3.org/1999/02/22-rdf-syntax-ns#"
   xmlns:svg="http://www.w3.org/2000/svg"
   xmlns="http://www.w3.org/2000/svg"
   xmlns:xlink="http://www.w3.org/1999/xlink"
   xmlns:sodipodi="http://sodipodi.sourceforge.net/DTD/sodipodi-0.dtd"
   xmlns:inkscape="http://www.inkscape.org/namespaces/inkscape"
   width="744.09448819"
   height="1052.3622047"
   id="svg2"
   version="1.1"
   inkscape:version="0.48.4 r9939"
   sodipodi:docname="14-sun.svg">
  <defs
     id="defs4">
    <linearGradient
       id="linearGradient3107"
       inkscape:collect="always">
      <stop
         id="stop3109"
         offset="0"
         style="stop-color:#ffff00;stop-opacity:1;" />
      <stop
         id="stop3111"
         offset="1"
         style="stop-color:#ff6600;stop-opacity:1" />
    </linearGradient>
    <linearGradient
       id="linearGradient3101"
       inkscape:collect="always">
      <stop
         id="stop3103"
         offset="0"
         style="stop-color:#ffff00;stop-opacity:1;" />
      <stop
         id="stop3105"
         offset="1"
         style="stop-color:#ff6600;stop-opacity:1" />
    </linearGradient>
    <linearGradient
       id="linearGradient3095"
       inkscape:collect="always">
      <stop
         id="stop3097"
         offset="0"
         style="stop-color:#ffff00;stop-opacity:1;" />
      <stop
         id="stop3099"
         offset="1"
         style="stop-color:#ff6600;stop-opacity:1" />
    </linearGradient>
    <linearGradient
       inkscape:collect="always"
       id="linearGradient3081">
      <stop
         style="stop-color:#ffff00;stop-opacity:1;"
         offset="0"
         id="stop3083" />
      <stop
         style="stop-color:#ff6600;stop-opacity:1"
         offset="1"
         id="stop3085" />
    </linearGradient>
    <linearGradient
       inkscape:collect="always"
       id="linearGradient3073">
      <stop
         style="stop-color:#ffff00;stop-opacity:1;"
         offset="0"
         id="stop3075" />
      <stop
         style="stop-color:#ff6600;stop-opacity:1"
         offset="1"
         id="stop3077" />
    </linearGradient>
    <linearGradient
       inkscape:collect="always"
       id="linearGradient3065">
      <stop
         style="stop-color:#ffff00;stop-opacity:1;"
         offset="0"
         id="stop3067" />
      <stop
         style="stop-color:#ff6600;stop-opacity:1"
         offset="1"
         id="stop3069" />
    </linearGradient>
    <linearGradient
       inkscape:collect="always"
       id="linearGradient3057">
      <stop
         style="stop-color:#ffff00;stop-opacity:1;"
         offset="0"
         id="stop3059" />
      <stop
         style="stop-color:#ff7f2a;stop-opacity:1"
         offset="1"
         id="stop3061" />
    </linearGradient>
    <linearGradient
       inkscape:collect="always"
       id="linearGradient3049">
      <stop
         style="stop-color:#ffff00;stop-opacity:1;"
         offset="0"
         id="stop3051" />
      <stop
         style="stop-color:#ff7f2a;stop-opacity:1"
         offset="1"
         id="stop3053" />
    </linearGradient>
    <linearGradient
       inkscape:collect="always"
       id="linearGradient3041">
      <stop
         style="stop-color:#ffff00;stop-opacity:1;"
         offset="0"
         id="stop3043" />
      <stop
         style="stop-color:#ff7f2a;stop-opacity:1"
         offset="1"
         id="stop3045" />
    </linearGradient>
    <linearGradient
       inkscape:collect="always"
       id="linearGradient3033">
      <stop
         style="stop-color:#ffff00;stop-opacity:1;"
         offset="0"
         id="stop3035" />
      <stop
         style="stop-color:#ff7f2a;stop-opacity:1"
         offset="1"
         id="stop3037" />
    </linearGradient>
    <linearGradient
       inkscape:collect="always"
       id="linearGradient3025">
      <stop
         style="stop-color:#ffff00;stop-opacity:1;"
         offset="0"
         id="stop3027" />
      <stop
         style="stop-color:#ff7f2a;stop-opacity:1"
         offset="1"
         id="stop3029" />
    </linearGradient>
    <linearGradient
       inkscape:collect="always"
       id="linearGradient3017">
      <stop
         style="stop-color:#ffff00;stop-opacity:1;"
         offset="0"
         id="stop3019" />
      <stop
         style="stop-color:#ff6600;stop-opacity:1"
         offset="1"
         id="stop3021" />
    </linearGradient>
    <radialGradient
       inkscape:collect="always"
       xlink:href="#linearGradient3017"
       id="radialGradient3023"
       cx="407.2843"
       cy="82.641136"
       fx="407.2843"
       fy="82.641136"
       r="161"
       gradientTransform="matrix(1.8533176,-0.00344053,0.00256399,1.3811715,-365.8476,228.70689)"
       gradientUnits="userSpaceOnUse" />
    <radialGradient
       inkscape:collect="always"
       xlink:href="#linearGradient3025"
       id="radialGradient3031"
       cx="423.97171"
       cy="533.58905"
       fx="423.97171"
       fy="533.58905"
       r="59.284122"
       gradientTransform="matrix(-1.3569931,-1.725246,0.94321631,-0.74188542,587.13831,1670.4448)"
       gradientUnits="userSpaceOnUse" />
    <linearGradient
       inkscape:collect="always"
       xlink:href="#linearGradient3033"
       id="linearGradient3039"
       x1="430"
       y1="583.79077"
       x2="403.57144"
       y2="489.50504"
       gradientUnits="userSpaceOnUse" />
    <linearGradient
       inkscape:collect="always"
       xlink:href="#linearGradient3041"
       id="linearGradient3047"
       x1="285"
       y1="604.50507"
       x2="321.42856"
       y2="493.07648"
       gradientUnits="userSpaceOnUse" />
    <linearGradient
       inkscape:collect="always"
       xlink:href="#linearGradient3049"
       id="linearGradient3055"
       x1="232.85715"
       y1="524.50507"
       x2="277.85715"
       y2="456.64789"
       gradientUnits="userSpaceOnUse" />
    <linearGradient
       inkscape:collect="always"
       xlink:href="#linearGradient3057"
       id="linearGradient3063"
       x1="165"
       y1="388.79074"
       x2="264.28571"
       y2="409.50504"
       gradientUnits="userSpaceOnUse" />
    <linearGradient
       inkscape:collect="always"
       xlink:href="#linearGradient3065"
       id="linearGradient3071"
       x1="246.42857"
       y1="299.50504"
       x2="277.85715"
       y2="355.21933"
       gradientUnits="userSpaceOnUse" />
    <linearGradient
       inkscape:collect="always"
       xlink:href="#linearGradient3073"
       id="linearGradient3079"
       x1="328.57144"
       y1="203.07646"
       x2="349.28571"
       y2="380.21933"
       gradientUnits="userSpaceOnUse" />
    <linearGradient
       inkscape:collect="always"
       xlink:href="#linearGradient3081"
       id="linearGradient3087"
       x1="616.42859"
       y1="231.6479"
       x2="347.85715"
       y2="426.64789"
       gradientUnits="userSpaceOnUse" />
    <linearGradient
       inkscape:collect="always"
       xlink:href="#linearGradient3107"
       id="linearGradient3089"
       x1="616.42859"
       y1="231.6479"
       x2="347.85715"
       y2="426.64789"
       gradientUnits="userSpaceOnUse" />
    <linearGradient
       inkscape:collect="always"
       xlink:href="#linearGradient3101"
       id="linearGradient3091"
       x1="616.42859"
       y1="231.6479"
       x2="347.85715"
       y2="426.64789"
       gradientUnits="userSpaceOnUse" />
    <linearGradient
       inkscape:collect="always"
       xlink:href="#linearGradient3095"
       id="linearGradient3093"
       x1="616.42859"
       y1="231.6479"
       x2="347.85715"
       y2="426.64789"
       gradientUnits="userSpaceOnUse" />
  </defs>
  <sodipodi:namedview
     id="base"
     pagecolor="#ffffff"
     bordercolor="#666666"
     borderopacity="1.0"
     inkscape:pageopacity="0.0"
     inkscape:pageshadow="2"
     inkscape:zoom="0.7"
     inkscape:cx="504.57824"
     inkscape:cy="668.23832"
     inkscape:document-units="px"
     inkscape:current-layer="layer1"
     showgrid="false"
     inkscape:window-width="1280"
     inkscape:window-height="739"
     inkscape:window-x="0"
     inkscape:window-y="0"
     inkscape:window-maximized="1" />
  <metadata
     id="metadata7">
    <rdf:RDF>
      <cc:Work
         rdf:about="">
        <dc:format>image/svg+xml</dc:format>
        <dc:type
           rdf:resource="http://purl.org/dc/dcmitype/StillImage" />
        <dc:title></dc:title>
      </cc:Work>
    </rdf:RDF>
  </metadata>
  <g
     inkscape:label="Layer 1"
     inkscape:groupmode="layer"
     id="layer1">
    <g
       id="g3113"
       inkscape:export-filename="/home/hugocm93/Desktop/Drawings/14-sun.png"
       inkscape:export-xdpi="90"
       inkscape:export-ydpi="90">
      <rect
         transform="matrix(0.74874729,0.66285557,-0.64686014,0.76260865,0,0)"
         ry="14.438714"
         y="26.549269"
         x="707.48621"
         height="148.95692"
         width="27.294071"
         id="rect3078"
         style="fill:#000000;fill-opacity:1;stroke:#ffffff;stroke-width:0.73382252;stroke-miterlimit:4;stroke-opacity:1;stroke-dasharray:none" />
      <g
         transform="matrix(0.43093654,0,0,0.43093654,210.36995,345.74224)"
         id="g3109">
        <path
           sodipodi:type="arc"
           style="fill:#000000;fill-opacity:1;stroke:none"
           id="path2985"
           sodipodi:cx="347.99756"
           sodipodi:cy="488.19199"
           sodipodi:rx="86.368042"
           sodipodi:ry="86.368042"
           d="m 434.3656,488.19199 c 0,47.69975 -38.66829,86.36804 -86.36804,86.36804 -47.69975,0 -86.36804,-38.66829 -86.36804,-86.36804 0,-47.69976 38.66829,-86.36805 86.36804,-86.36805 47.69975,0 86.36804,38.66829 86.36804,86.36805 z"
           transform="translate(-1.0101525,-10.980416)" />
        <path
           inkscape:connector-curvature="0"
           style="fill:#000000;fill-opacity:1;stroke:none"
           d="m 352.53125,590.71875 c -92.93364,0 -168.38684,32.0193 -169.65625,71.71875 l 339.34375,0 c -1.26941,-39.69945 -76.75386,-71.71875 -169.6875,-71.71875 z"
           id="path2987" />
      </g>
      <rect
         transform="matrix(-0.74874729,0.66285557,0.64686014,0.76260865,0,0)"
         ry="14.438714"
         y="507.87802"
         x="151.11649"
         height="148.95692"
         width="27.294071"
         id="rect3078-5"
         style="fill:#000000;fill-opacity:1;stroke:#ffffff;stroke-width:0.73382252;stroke-miterlimit:4;stroke-opacity:1;stroke-dasharray:none" />
      <path
         inkscape:connector-curvature="0"
         d="m 293.97703,430.85175 c -2.41608,4.41345 -4.74951,8.87323 -7.10458,13.32004 -3.18842,6.44086 -6.72389,12.69507 -10.26504,18.94579 -1.5471,2.77197 -3.34335,5.39081 -5.43924,7.77619 -1.42253,1.61901 -2.99686,3.10499 -4.46146,4.686 -1.85124,1.9721 -3.86913,3.77712 -5.83911,5.62797 -2.51711,2.28539 -5.05841,4.5442 -7.55837,6.84832 -2.28699,2.00109 -4.25677,4.28837 -6.21398,6.59875 -1.79986,2.09657 -3.5574,4.21799 -5.11133,6.50418 -1.06743,1.39348 -1.84545,2.93709 -2.50114,4.55446 -0.55162,1.45625 -0.61013,3.03128 -0.82821,4.55951 -0.24707,1.68668 -0.35352,3.38737 -0.41921,5.08917 -0.0302,1.64615 0.006,3.28693 -0.1837,4.92432 -0.16876,1.99682 -0.72346,3.91876 -1.26067,5.83872 -0.43247,2.01919 -0.86767,4.02645 -1.55038,5.97838 -0.43908,1.38812 -1.05873,2.69542 -1.65728,4.01747 -0.48132,1.18314 -1.1901,2.23034 -1.9548,3.2438 -1.46999,1.92804 -2.97228,3.82722 -4.5825,5.64009 -2.15058,2.33313 -4.24388,4.71858 -6.57727,6.87245 -0.30655,0.25615 -0.6131,0.5123 -0.91965,0.76844 0,0 -8.0493,3.22612 -8.0493,3.22612 l 0,0 c 0.32503,-0.24455 0.65007,-0.48911 0.97511,-0.73366 2.38917,-2.08695 4.50851,-4.42708 6.62378,-6.78812 1.5808,-1.76536 3.07682,-3.5963 4.48111,-5.50568 0.70846,-0.9987 1.4951,-1.93435 2.01859,-3.05264 0.54323,-1.34965 1.30532,-2.59864 1.71567,-4.00543 0.78488,-1.90804 1.25099,-3.90022 1.64429,-5.92167 0.46837,-1.88631 1.09906,-3.74605 1.24635,-5.69753 0.20182,-1.61732 0.23142,-3.22716 0.22464,-4.85788 0.0398,-1.73227 0.14342,-3.46165 0.39324,-5.17796 0.2031,-1.57745 0.26516,-3.18978 0.69376,-4.72389 0.6344,-1.70288 1.39635,-3.34886 2.53221,-4.785 1.56739,-2.30567 3.26413,-4.49425 5.08829,-6.60374 0.93126,-1.05368 1.76154,-2.20056 2.71352,-3.234 1.11946,-1.21524 2.38358,-2.29798 3.53623,-3.48042 2.46027,-2.31029 5.00047,-4.53604 7.49339,-6.81147 1.96672,-1.89352 4.00655,-3.70871 5.95848,-5.61749 1.50429,-1.63192 3.14226,-3.11924 4.66085,-4.73601 2.19468,-2.33658 4.09537,-4.90648 5.66976,-7.70303 3.5325,-6.22559 7.06933,-12.45058 10.20385,-18.88957 2.25445,-4.32757 4.51238,-8.65713 6.59255,-13.0703 0,0 8.01155,-3.62468 8.01155,-3.62468 z"
         id="path3179"
         style="fill:url(#linearGradient3055);fill-opacity:1;stroke:#ffffff;stroke-width:1.17853391000000007;stroke-miterlimit:4;stroke-opacity:1;stroke-dasharray:none" />
      <path
         inkscape:connector-curvature="0"
         d="m 349.40485,430.75284 c -2.51021,4.33164 -4.68217,8.84289 -6.84873,13.35342 -3.79054,8.05921 -6.51969,16.54476 -9.4829,24.92601 -2.83014,7.37637 -5.21815,14.90116 -7.63103,22.42068 -2.20454,6.74711 -4.94026,13.30293 -7.22085,20.02198 -1.29125,3.89051 -2.41561,7.84466 -4.04032,11.6157 -0.83056,1.92778 -1.19091,2.54351 -2.14441,4.38004 -1.92579,3.43731 -4.22158,6.6338 -6.2266,10.02518 -2.11479,3.48295 -4.26213,6.93736 -6.2876,10.4739 -3.002,5.16598 -5.31831,10.67972 -7.61058,16.18466 -1.85044,4.56482 -3.00293,9.3436 -3.56341,14.22615 -0.25905,2.59494 -0.23868,5.20323 -0.22182,7.80721 -0.0142,2.10455 0.0143,4.20186 0.35685,6.28159 0.6335,2.3827 1.26101,4.75704 1.73221,7.1786 0.41442,3.43716 1.00321,6.84709 1.54827,10.26599 0.38966,2.33477 0.50804,4.69509 0.57713,7.05661 0.0567,1.72785 0.0438,3.45629 0.0281,5.1846 0.0663,2.03741 -0.30514,4.03765 -0.67241,6.03013 -0.36574,1.75887 -1.05934,3.42431 -1.77965,5.06223 -0.61226,1.40081 -1.33207,2.74414 -2.12714,4.04837 -0.53295,0.89926 -1.2314,1.67167 -1.90467,2.46293 0,0 -8.12137,3.44943 -8.12137,3.44943 l 0,0 c 0.65908,-0.8038 1.40458,-1.52365 1.97116,-2.39822 0.91559,-1.19993 1.55716,-2.57752 2.23314,-3.92091 0.70986,-1.59546 1.43218,-3.19023 1.87489,-4.8869 0.3827,-1.94178 0.83772,-3.88915 0.74365,-5.88399 -0.008,-1.72609 -5.9e-4,-3.45195 0.004,-5.17801 -0.0292,-2.3424 -0.12868,-4.68581 -0.4323,-7.01087 -0.45334,-3.41744 -1.08015,-6.80785 -1.52722,-10.22539 -0.50014,-2.41432 -1.19018,-4.77303 -1.83814,-7.15026 -0.37634,-2.12464 -0.4564,-4.26218 -0.40548,-6.41775 -0.008,-2.65808 -0.002,-5.32499 0.30335,-7.96903 0.63625,-4.9972 1.88326,-9.86775 3.73433,-14.56092 2.26356,-5.49335 4.51158,-11.01303 7.41498,-16.20826 1.97573,-3.52522 4.00701,-7.00236 6.1504,-10.42852 0.92125,-1.56899 1.82248,-3.15757 2.8506,-4.66051 1.20966,-1.76829 2.53439,-3.46401 3.51041,-5.38453 0.97994,-1.79569 1.37896,-2.45744 2.24798,-4.34117 1.73006,-3.75018 2.92288,-7.70011 4.19002,-11.62208 2.27718,-6.73439 5.04845,-13.28991 7.28651,-20.03953 2.44613,-7.55026 4.86476,-15.10724 7.75113,-22.50436 3.00489,-8.35152 5.72981,-16.81688 9.32885,-24.94071 2.01064,-4.37993 3.96312,-8.79385 6.24084,-13.0434 0,0 8.00838,-3.68009 8.00838,-3.68009 z"
         id="path3181"
         style="fill:url(#linearGradient3047);fill-opacity:1;stroke:#ffffff;stroke-width:1.17853391000000007;stroke-miterlimit:4;stroke-opacity:1;stroke-dasharray:none" />
      <path
         inkscape:connector-curvature="0"
         d="m 388.99616,450.26893 c 2.4656,2.87078 4.14739,6.29094 5.85969,9.63599 2.97108,5.59023 5.59835,11.34888 8.11713,17.15362 2.7581,6.02542 4.79955,12.31538 6.17191,18.79002 1.16882,6.21703 1.35907,12.55078 1.47857,18.85746 0.29709,6.1254 -0.27562,12.21043 -1.02476,18.27949 -0.82576,6.15216 -1.10204,12.3528 -1.27688,18.55127 -0.0728,4.14659 -0.25227,8.31307 0.35403,12.43333 0.35492,2.41196 0.61204,3.04947 1.26113,5.34864 1.31376,3.96944 3.90883,7.09186 6.81193,9.99206 2.29334,2.05804 4.66504,4.03129 6.88181,6.17288 2.26173,2.05181 4.63062,3.98039 7.01349,5.88977 2.86944,2.26381 5.56804,4.72965 8.37392,7.06967 2.40473,1.85998 4.73338,3.84044 7.21418,5.60205 1.30195,1.11614 2.85588,1.88278 4.19415,2.94144 1.2811,0.88619 2.44908,1.91148 3.62098,2.93498 2.2893,1.89754 4.42102,3.97028 6.51316,6.08012 1.61303,1.72285 3.09738,3.5788 4.18302,5.68029 0.12339,0.25089 0.24678,0.50178 0.37017,0.75268 0,0 -7.61206,4.31816 -7.61206,4.31816 l 0,0 c -0.11716,-0.24997 -0.23431,-0.49993 -0.35147,-0.74989 -0.97654,-2.053 -2.40819,-3.83734 -3.95088,-5.49593 -2.07459,-2.10358 -4.14456,-4.2224 -6.53548,-5.97544 -1.20223,-0.9835 -2.42001,-1.94108 -3.6725,-2.85928 -1.33966,-1.01646 -2.80387,-1.87082 -4.06554,-2.99489 -2.432,-1.84048 -4.78765,-3.78688 -7.15475,-5.70797 -2.77861,-2.36584 -5.5017,-4.798 -8.3863,-7.03653 -2.40844,-1.92636 -4.84209,-3.82386 -7.09699,-5.93134 -2.21996,-2.13859 -4.5829,-4.12269 -6.8369,-6.22477 -2.96244,-3.03891 -5.53669,-6.35749 -6.85497,-10.46415 -0.67625,-2.48664 -0.86718,-2.90342 -1.24849,-5.50905 -0.60843,-4.15762 -0.49066,-8.35056 -0.39326,-12.53686 0.14698,-6.21998 0.4094,-12.44452 1.23033,-18.61815 0.75283,-6.03213 1.34814,-12.07971 1.06633,-18.17011 -0.0962,-6.2655 -0.24066,-12.55987 -1.35755,-18.74377 -1.33957,-6.42725 -3.35441,-12.66618 -6.10126,-18.63888 -2.50981,-5.78351 -5.11923,-11.52933 -8.18295,-17.04544 -1.72492,-3.19984 -3.40041,-6.56763 -6.09178,-9.0838 0,0 7.47884,-4.69767 7.47884,-4.69767 z"
         id="path3185"
         style="fill:url(#linearGradient3039);fill-opacity:1;stroke:#ffffff;stroke-width:1.17853391000000007;stroke-miterlimit:4;stroke-opacity:1;stroke-dasharray:none" />
      <path
         inkscape:connector-curvature="0"
         d="m 421.68358,426.05653 c 3.20808,0.98132 5.87709,3.17827 8.33626,5.37376 0.67091,0.67432 1.35592,1.33491 2.01275,2.02295 1.51293,1.5848 2.96201,3.2294 4.45565,4.83239 1.93937,2.08133 3.37161,3.51494 5.19577,5.73544 0.9163,1.11539 1.76452,2.28499 2.64679,3.42749 4.07969,5.88733 7.6308,12.13032 11.04445,18.42296 1.33095,2.27355 2.21505,4.71616 2.6995,7.29546 0.27867,1.29376 0.403,2.64434 0.88429,3.88849 0.22028,0.56942 0.60011,1.18956 0.89815,1.71428 1.22004,1.53886 2.25702,3.18581 2.9102,5.04054 0.3672,1.63425 0.53497,3.30711 0.85303,4.95211 0.30608,1.7533 0.70431,3.48724 1.22808,5.18823 1.17778,3.30414 2.57234,6.525 3.98826,9.73265 1.71376,3.44873 3.14249,7.03448 4.87832,10.47199 1.02255,2.02498 1.57264,2.91183 2.69932,4.85665 2.45259,3.92884 6.00621,6.91657 9.44252,9.94365 3.67998,3.37006 7.95883,4.64413 12.64819,5.97758 5.43455,1.36667 11.02189,1.90209 16.54785,2.7445 2.03466,0.26316 3.99927,0.7364 5.7211,1.87047 1.91663,1.69545 3.39056,3.92424 4.71308,6.1053 1.05009,1.87806 1.76164,3.92249 2.41519,5.96571 0.55658,1.43761 0.93503,2.93021 1.37396,4.40502 0.3244,1.37147 0.90328,2.66057 1.4562,3.95057 0.36605,0.93545 0.61024,1.91446 1.10697,2.79314 0,0 -7.64912,4.39454 -7.64912,4.39454 l 0,0 c -0.49294,-0.91831 -0.77096,-1.91287 -1.10675,-2.89528 -0.55612,-1.32291 -1.19664,-2.62842 -1.51887,-4.03345 -0.42355,-1.47706 -0.7711,-2.97554 -1.31998,-4.41438 -0.61338,-1.98839 -1.25914,-3.98686 -2.22353,-5.83677 -1.24485,-2.07951 -2.66071,-4.21944 -4.6219,-5.68378 -1.63144,-0.96887 -3.48433,-1.37831 -5.33751,-1.71698 -5.45434,-1.0013 -10.97527,-1.66521 -16.37113,-2.97481 -4.81493,-1.31139 -9.34035,-2.65292 -13.05709,-6.16832 -3.45508,-3.12403 -7.00457,-6.23193 -9.45152,-10.25489 -2.82171,-4.99346 -5.14274,-10.22239 -7.66737,-15.36866 -1.48486,-3.19933 -3.0247,-6.38044 -4.30443,-9.66849 -0.57436,-1.71752 -1.00139,-3.47192 -1.30463,-5.25756 -0.33764,-1.60571 -0.51085,-3.24097 -0.81701,-4.85171 -0.56482,-1.8322 -1.57798,-3.42228 -2.77247,-4.91515 -0.35554,-0.61026 -0.7385,-1.21632 -1.00437,-1.87465 -0.5149,-1.27501 -0.62924,-2.66107 -0.92242,-3.99161 -0.42538,-2.5063 -1.21008,-4.92336 -2.3378,-7.20643 -3.07181,-6.4138 -6.45593,-12.70483 -10.60292,-18.49688 -0.88945,-1.11796 -1.74315,-2.26534 -2.66838,-3.35389 -1.58431,-1.86398 -3.58989,-3.88317 -5.29298,-5.65121 -1.51843,-1.57634 -2.99804,-3.1907 -4.54844,-4.73561 -0.66574,-0.66338 -1.36378,-1.29353 -2.04567,-1.94028 -2.47542,-2.04787 -5.18366,-4.19284 -8.44342,-4.73978 0,0 7.23383,-5.0753 7.23383,-5.0753 z"
         id="path3187"
         style="fill:url(#radialGradient3031);fill-opacity:1;stroke:#ffffff;stroke-width:1.17853391000000007;stroke-miterlimit:4;stroke-opacity:1;stroke-dasharray:none" />
      <path
         inkscape:connector-curvature="0"
         d="m 439.55258,416.38402 c 5.82301,1.67362 11.38535,4.08979 16.97051,6.40879 7.38033,2.99493 14.70128,6.15249 21.80099,9.767 3.97672,2.47896 8.34287,4.20521 12.38301,6.55629 3.24281,1.58476 6.40964,3.30722 9.62231,4.95116 1.81094,0.98607 3.76704,1.42895 5.8012,1.5899 1.66364,0.0826 3.33029,0.053 4.99523,0.0415 2.00835,0.0673 3.9755,-0.012 5.96044,-0.30714 1.92689,-0.39206 3.87529,-0.80778 5.77815,-1.32394 2.49773,-0.78834 5.00393,-1.52405 7.43497,-2.50835 2.47532,-0.94019 5.00923,-1.70435 7.53289,-2.50076 1.99799,-0.63318 4.07379,-0.86511 6.15838,-0.9326 3.83465,-0.0336 7.66756,-0.019 11.48742,0.32372 4.48576,0.47277 8.97838,0.83655 13.43841,1.51185 2.86776,0.90293 5.73763,1.80989 8.65452,2.54376 2.53138,0.6027 5.14595,0.63337 7.73353,0.68749 4.73903,0.0503 9.47494,0.22031 14.20423,-0.11974 7.50436,-0.88991 14.80623,-2.70798 21.976,-5.04522 1.25538,-0.4891 2.51075,-0.97821 3.76613,-1.46731 0,0 -9.26449,7.25908 -9.26449,7.25908 l 0,0 c -1.25853,0.46585 -2.51706,0.93171 -3.77558,1.39758 -7.28695,2.3141 -14.71597,4.13021 -22.33434,4.95106 -4.84384,0.28847 -9.69723,0.25315 -14.54879,0.23688 -2.66371,-0.0712 -5.35374,-0.15148 -7.93005,-0.90797 -2.8448,-0.8094 -5.66265,-1.71471 -8.52012,-2.47561 -4.3673,-0.69567 -8.76833,-1.1645 -13.17054,-1.57815 -3.90512,-0.20488 -7.81401,-0.14364 -11.72029,0.0388 -2.01316,0.16675 -4.00513,0.48367 -5.9231,1.14434 -2.50162,0.80331 -5.01943,1.56476 -7.4612,2.54126 -2.49485,0.92511 -5.04279,1.70138 -7.59887,2.43893 -1.9403,0.44292 -3.86748,0.97969 -5.84977,1.19885 -2.02641,0.2252 -4.05905,0.2089 -6.09598,0.21576 -1.69259,0.005 -3.39117,0.0255 -5.07573,-0.16593 -2.10617,-0.31208 -4.10233,-0.96362 -5.95544,-2.03445 -3.18098,-1.69124 -6.31116,-3.47531 -9.5507,-5.05488 -4.02685,-2.2637 -8.2356,-4.19088 -12.15811,-6.64691 -6.96777,-3.72394 -14.18389,-6.9467 -21.5509,-9.79927 -5.67718,-2.26958 -11.37973,-4.73916 -17.44448,-5.75829 0,0 10.23016,-7.17755 10.23016,-7.17755 z"
         id="path3189"
         style="fill:url(#linearGradient3087);fill-opacity:1;stroke:#ffffff;stroke-width:1.17853391000000007;stroke-miterlimit:4;stroke-opacity:1;stroke-dasharray:none" />
      <path
         inkscape:connector-curvature="0"
         d="m 434.34126,393.21929 c 2.32606,-4.49487 4.20173,-9.19972 6.3386,-13.7848 1.88921,-4.07486 4.43013,-7.75593 7.5951,-10.92939 5.47127,-4.62841 11.96317,-8.54159 18.99346,-10.19337 2.5653,-0.60272 3.56133,-0.66025 6.2107,-1.00339 7.25437,-0.7149 14.55557,-0.70131 21.83761,-0.72324 8.3481,-0.50571 15.93169,1.6104 23.89913,3.64737 7.32156,2.05512 14.86294,3.03632 22.42571,3.62038 2.73261,0.0732 5.57008,0.60924 8.22841,-0.28201 0.95395,-0.31983 1.80537,-0.82374 2.68576,-1.29578 -18.1073,11.09033 -7.60101,4.37113 -3.74147,1.2033 2.10717,-1.79764 3.77427,-4.01729 5.56707,-6.10852 2.43353,-2.61419 4.77593,-5.27509 6.82724,-8.20041 2.14488,-3.13451 4.4889,-6.12116 6.88318,-9.06705 1.65316,-2.09144 3.47715,-4.01391 5.48475,-5.76318 1.91301,-1.67736 4.08405,-2.99344 6.23299,-4.33542 1.64269,-1.03337 3.11802,-2.29801 4.66289,-3.46609 0,0 11.51548,-4.58221 11.51548,-4.58221 l 0,0 c -1.56555,1.17443 -3.08034,2.40477 -4.65652,3.56458 -2.10167,1.37941 -4.33573,2.54872 -6.27632,4.16675 -2.04283,1.72634 -4.02505,3.49256 -5.67736,5.61549 -2.44005,2.90006 -4.8126,5.85718 -6.95682,8.98418 -0.0228,0.0334 -2.0678,3.03282 -2.10028,3.07559 -1.40199,1.84598 -3.13427,3.41973 -4.5807,5.22926 -1.89626,2.02632 -3.45425,4.35003 -5.48198,6.26407 -5.27254,4.5136 -10.97798,8.00949 -17.32631,11.09478 -1.13382,0.48779 -1.62971,0.7703 -2.85318,1.01686 -2.71333,0.54679 -5.49428,0.004 -8.21521,-0.14554 -7.51827,-0.80106 -15.01621,-1.92097 -22.31953,-3.92445 -0.78656,-0.2003 -7.17383,-1.83449 -7.99194,-2.01243 -5.19024,-1.12889 -10.48956,-1.51566 -15.79436,-1.34718 -7.28193,0.0483 -14.58993,0.0448 -21.83028,0.92253 -3.0259,0.48275 -5.9959,0.97171 -8.86815,2.09121 -0.80282,0.31291 -3.07532,1.54205 -2.34961,1.07755 12.82183,-8.20687 10.30145,-6.38827 6.87912,-3.78671 -3.30265,3.07069 -5.98629,6.50812 -7.9481,10.60154 -2.12377,4.48015 -4.11187,9.01366 -5.92543,13.62994 0,0 -11.37365,5.14579 -11.37365,5.14579 z"
         id="path3191"
         style="fill:url(#linearGradient3089);fill-opacity:1;stroke:#ffffff;stroke-width:1.17853391000000007;stroke-miterlimit:4;stroke-opacity:1;stroke-dasharray:none" />
      <path
         inkscape:connector-curvature="0"
         d="m 300.26341,386.77719 c -7.52476,4.74069 -15.4464,8.73104 -23.41645,12.63808 -7.20013,3.43268 -14.51448,6.58454 -21.50761,10.43181 2.45629,-1.39406 4.89043,-2.82786 7.36885,-4.18218 0.81782,-0.4469 -1.59395,0.96629 -2.38512,1.45885 -1.22766,0.7643 -2.41335,1.59724 -3.66545,2.32081 -11.94188,6.90107 -7.77757,5.16726 -13.41895,7.4128 -2.3881,0.87454 -4.92812,0.81157 -7.43084,0.81418 -3.67618,-0.15387 -6.99782,-1.64822 -10.25587,-3.21579 -3.61575,-1.8695 -7.11197,-3.9436 -10.62214,-5.99948 -3.78313,-2.37076 -7.43717,-4.96834 -11.48822,-6.87152 -3.11503,-1.42411 -6.48683,-1.58551 -9.84884,-1.71444 -5.67507,-0.224 -11.26724,-1.19844 -16.81503,-2.35979 -6.50065,-1.59713 -12.81616,-3.82564 -19.2674,-5.59773 -2.92962,-0.87343 -5.94481,-1.18778 -8.98542,-1.2702 -1.93968,0.19662 -3.83004,0.56952 -5.70303,1.0863 -2.15577,0.8618 -4.40358,1.4338 -6.56859,2.28114 -2.02504,1.0351 -4.08801,1.99737 -6.05015,3.15237 0,0 9.60547,-7.75936 9.60547,-7.75936 l 0,0 c 2.00988,-1.07532 4.04428,-2.1268 6.15318,-2.99389 2.22507,-0.80099 4.48581,-1.5075 6.73215,-2.24419 1.91696,-0.46961 3.89604,-0.7531 5.87169,-0.74856 3.04414,0.19152 6.04044,0.6557 8.93345,1.66802 6.30999,1.99298 12.55959,4.21024 19.03552,5.62837 5.59718,1.07448 11.23319,1.89308 16.94075,2.03399 3.52316,0.12991 6.97823,0.45053 10.16186,2.12112 3.98628,2.05456 7.64748,4.65539 11.4758,6.97998 3.50519,2.02472 7.03806,3.99398 10.62357,5.87384 3.18887,1.4767 6.45727,2.76707 10.03973,2.68602 2.42881,-0.0653 4.86461,-0.17513 7.12115,-1.18395 4.38973,-2.02624 2.15683,-1.04746 -7.61679,4.62806 -0.59026,0.34276 1.17057,-0.70248 1.74941,-1.06419 0.69744,-0.43582 1.38093,-0.89373 2.07919,-1.32825 4.48253,-2.78954 13.45006,-7.88124 15.47539,-9.05779 7.03486,-3.75367 14.37521,-6.85802 21.52208,-10.38823 2.9497,-1.47884 5.88648,-2.97994 8.81283,-4.5045 4.74687,-2.473 4.5113,-2.50997 -7.17622,4.25925 -0.28455,0.16481 0.57045,-0.32726 0.85567,-0.49089 0,0 11.66438,-4.50006 11.66438,-4.50006 z"
         id="path3193"
         style="fill:url(#linearGradient3063);fill-opacity:1;stroke:#ffffff;stroke-width:1.17853391000000007;stroke-miterlimit:4;stroke-opacity:1;stroke-dasharray:none" />
      <path
         inkscape:connector-curvature="0"
         d="m 298.42192,368.45985 c -3.84042,-1.6492 -7.38961,-3.89529 -11.05863,-5.88421 -5.21342,-2.46656 -10.3614,-5.06228 -15.55136,-7.57466 -3.59234,-1.69212 -6.78222,-4.0015 -9.74182,-6.62407 -2.3221,-2.03424 -4.38645,-4.30761 -6.35388,-6.67747 -1.2972,-1.70221 -2.49989,-3.48399 -3.28719,-5.47984 -0.67562,-2.76855 -1.28804,-5.54583 -2.00341,-8.30562 -1.4553,-4.43482 -3.03291,-8.80427 -4.27097,-13.31522 -1.41037,-4.80773 -3.40878,-9.41476 -5.68327,-13.87086 -2.22963,-4.06678 -5.05409,-7.7717 -8.17735,-11.18802 -2.1591,-2.37513 -4.06962,-4.93871 -5.79144,-7.64195 -1.11779,-1.84488 -2.50962,-3.44987 -4.11923,-4.87228 -1.41815,-1.04026 -3.12994,-1.6417 -4.81983,-2.08992 -1.89033,-0.36656 -3.82132,-0.39275 -5.73972,-0.42611 -2.418,-0.0845 -4.83844,0.22494 -7.2124,0.66732 -2.53148,0.46541 -5.08356,0.78618 -7.65128,0.95326 -2.43243,0.10989 -4.86962,0.0688 -7.30376,0.0495 -2.93066,-0.0597 -5.86167,-0.0574 -8.79271,-0.0448 0,0 9.84195,-7.14948 9.84195,-7.14948 l 0,0 c 2.9661,0.0174 5.93219,0.0231 8.898,-0.0339 2.44692,-0.0227 4.89645,-0.0205 7.33922,-0.18383 2.52477,-0.19813 5.03318,-0.54018 7.52357,-1.00267 2.45493,-0.36333 4.92599,-0.66049 7.41318,-0.52736 1.99941,0.0534 4.01543,0.15774 5.95646,0.68081 1.81563,0.5997 3.63205,1.292 5.08983,2.57066 1.66267,1.52408 3.1061,3.24678 4.27224,5.18436 1.63151,2.66609 3.40283,5.23474 5.4972,7.56651 3.14253,3.53531 6.00923,7.33373 8.30418,11.47973 2.32813,4.5277 4.28574,9.24828 5.71783,14.13806 0.71128,2.6271 1.45624,5.22974 2.47005,7.7604 0.93783,2.34099 0.80675,1.56082 1.55789,3.80673 0.18016,0.53869 0.31619,1.09116 0.47428,1.63674 0.71309,2.70037 1.42103,5.39623 2.05227,8.11714 0.71795,1.88054 1.86614,3.54586 3.04946,5.16425 1.89244,2.33282 3.85574,4.59764 6.12805,6.57734 2.91238,2.50967 6.03189,4.73464 9.50891,6.40685 5.09962,2.65109 10.21438,5.26567 15.43103,7.68433 3.72645,1.92229 7.35176,4.16702 11.36968,5.43476 0,0 -10.33703,7.01357 -10.33703,7.01357 z"
         id="path3195"
         style="fill:url(#linearGradient3071);fill-opacity:1;stroke:#ffffff;stroke-width:1.17853391000000007;stroke-miterlimit:4;stroke-opacity:1;stroke-dasharray:none" />
      <path
         inkscape:connector-curvature="0"
         d="m 416.63508,358.76585 c 3.31242,-4.54738 6.07033,-9.46075 8.88708,-14.32088 3.14076,-5.34411 6.51198,-10.54912 10.19921,-15.53205 2.81413,-3.47709 5.70607,-6.88521 8.31786,-10.51962 1.57277,-2.42338 3.23204,-4.78002 5.08611,-6.99606 4.11655,-4.34405 9.62833,-8.08209 15.62864,-8.78699 1.70043,-0.12935 3.40789,-0.0888 5.11152,-0.0727 2.0374,0.0271 4.07492,0.038 6.11244,0.0503 2.43932,-0.12356 4.8319,0.1037 7.24089,0.44452 1.76831,0.27615 3.47302,0.80572 5.25496,1.0392 1.82158,0.29987 3.57685,0.0729 5.34634,-0.38564 2.05179,-0.64415 3.924,-1.63848 5.79305,-2.66913 3.89536,-1.72569 9.28916,-5.14979 -8.37601,4.94337 -0.29995,0.17138 0.59626,-0.34912 0.89123,-0.52891 1.00022,-0.60967 0.92137,-0.57427 1.90364,-1.24257 2.00849,-1.49552 3.89541,-3.14729 5.82785,-4.73937 1.75833,-1.54219 3.53001,-3.05662 5.46868,-4.36851 4.32986,-2.70292 8.85802,-5.13881 13.25012,-7.69605 3.19463,-1.86003 -12.86359,7.29003 -9.61133,5.5327 15.90817,-8.59582 7.21752,-4.64703 12.8945,-7.19631 2.41495,-0.88869 4.77967,-1.92241 7.23639,-2.69124 0,0 -9.78463,7.60069 -9.78463,7.60069 l 0,0 c -2.39839,0.84721 -4.78028,1.75599 -7.10983,2.77759 -0.40108,0.19688 -1.58705,0.81936 -1.20324,0.59064 3.15399,-1.87954 12.7013,-7.37292 9.51708,-5.54506 -37.67945,21.62944 7.64282,-4.17745 -3.63678,2.10657 -1.96178,1.29004 -3.8799,2.62157 -5.56935,4.26885 -1.91977,1.60773 -3.85629,3.19128 -5.76437,4.81205 -4.84002,3.6158 -10.26089,6.4078 -15.61738,9.17921 -1.88812,1.02143 -3.89402,1.83576 -5.97806,2.36052 -1.8885,0.33117 -3.7632,0.42274 -5.65888,0.0513 -1.74879,-0.31073 -3.45088,-0.83638 -5.21763,-1.04606 -2.36235,-0.33515 -4.72461,-0.40328 -7.11029,-0.3269 -2.05829,0.003 -4.11663,7e-5 -6.17489,-0.0114 -1.66018,-0.006 -3.33461,-0.0372 -4.9757,0.25371 -0.67488,0.16355 -0.944,0.19732 -1.58527,0.48007 -0.26567,0.11713 -1.02292,0.54918 -0.77321,0.40103 17.82661,-10.57573 11.2622,-7.26099 8.05463,-4.40059 -1.93072,2.17573 -3.69589,4.48184 -5.25942,6.93802 -2.56704,3.73799 -5.55404,7.15534 -8.46146,10.63007 -3.82538,4.92315 -7.20692,10.17747 -10.46623,15.48808 -2.72492,4.69885 -5.24948,9.54015 -8.25827,14.06163 0,0 -11.42999,5.06593 -11.42999,5.06593 z"
         id="path3197"
         style="fill:url(#linearGradient3091);fill-opacity:1;stroke:#ffffff;stroke-width:1.17853391000000007;stroke-miterlimit:4;stroke-opacity:1;stroke-dasharray:none" />
      <path
         inkscape:connector-curvature="0"
         d="m 346.45851,346.75548 c -2.34106,-0.34511 -4.55903,-1.1269 -6.67964,-2.15588 -2.37896,-1.26204 -4.56649,-2.78615 -6.50394,-4.65244 -1.55888,-1.54117 -2.81617,-3.35167 -4.03407,-5.1649 -1.15177,-1.78871 -2.09423,-3.67685 -2.74558,-5.70125 -0.79437,-2.21206 -1.25211,-4.51737 -1.54046,-6.84381 -0.21088,-2.34683 -0.1764,-4.70575 -0.1909,-7.05947 0.0582,-2.4503 0.51164,-4.81619 1.3361,-7.11603 0.90725,-2.61414 2.14646,-5.08917 3.35959,-7.57004 0.86036,-1.95691 1.80173,-3.87536 2.69326,-5.8178 0.91731,-1.81345 1.72148,-3.66337 2.45354,-5.55915 0.90006,-2.50139 1.45325,-5.08448 1.60941,-7.73496 0.1985,-3.48943 -1.03527,-6.76325 -2.10772,-10.01838 -0.91311,-2.81699 -1.90583,-5.63966 -3.24226,-8.28787 -0.98629,-1.57033 -2.42185,-2.70393 -4.01,-3.615 -1.85042,-1.02919 -3.46209,-2.40459 -5.03061,-3.81171 -0.87486,-0.73089 -1.60206,-1.60886 -2.34018,-2.47094 0,0 10.61888,-6.39797 10.61888,-6.39797 l 0,0 c 0.70571,0.81694 1.40122,1.64817 2.24385,2.3318 1.54375,1.34583 3.14843,2.61706 4.95056,3.60618 1.72332,1.11901 3.31064,2.42071 4.32118,4.25046 1.28469,2.73738 2.33816,5.60519 3.22588,8.49167 1.08552,3.38005 2.43174,6.76897 2.34748,10.37671 -0.034,2.74958 -0.53654,5.41744 -1.3356,8.04747 -0.70009,1.91743 -1.40462,3.82938 -2.41427,5.60695 -0.81805,2.01457 -1.94967,3.88635 -2.73558,5.91843 -1.2595,2.42155 -2.48081,4.87787 -3.41128,7.44714 -0.85512,2.17179 -1.3747,4.36403 -1.5094,6.7046 -0.007,2.30868 -0.005,4.62074 0.16058,6.92471 0.21496,2.26009 0.59405,4.50514 1.405,6.63727 0.60158,1.91786 1.5294,3.68116 2.59428,5.38311 1.16689,1.73906 2.36245,3.48349 3.86443,4.95502 1.85501,1.76627 3.96064,3.19081 6.26511,4.31831 2.10954,0.92009 4.31206,1.57701 6.61253,1.80022 0,0 -10.23017,7.17755 -10.23017,7.17755 z"
         id="path3199"
         style="fill:url(#linearGradient3079);fill-opacity:1;stroke:#ffffff;stroke-width:1.17853391000000007;stroke-miterlimit:4;stroke-opacity:1;stroke-dasharray:none" />
      <path
         inkscape:connector-curvature="0"
         d="m 385.35188,341.92203 c 0.22277,-5.5474 0.23845,-11.10159 0.27666,-16.65273 0.22622,-6.08475 -0.37436,-12.19525 0.0306,-18.27041 0.3008,-3.31471 0.90532,-6.55259 2.00812,-9.69219 0.88854,-2.37877 2.45814,-4.35 4.12572,-6.22333 1.47433,-1.64885 3.09308,-3.15155 4.72775,-4.6372 4.51688,-3.94129 9.87482,-6.3284 15.13684,-9.3184 1.61186,-0.81946 3.37248,-1.25036 5.00961,-2.01537 0.81683,-0.4055 1.73605,-0.51419 2.53807,-0.95591 0.4849,-0.26707 1.87648,-1.17461 1.39656,-0.89871 -3.31458,1.9055 -6.62571,3.81698 -9.93856,5.72548 1.73228,-1.10321 3.21604,-2.53729 4.69406,-3.95028 1.6227,-1.46621 3.06031,-3.09031 4.30859,-4.88247 1.27225,-1.5338 2.32437,-3.16623 3.23842,-4.93266 1.45255,-2.46922 2.59815,-5.10695 3.58489,-7.79248 0.10684,-0.34672 0.21368,-0.69344 0.32052,-1.04016 0,0 11.19404,-5.30704 11.19404,-5.30704 l 0,0 c -0.10392,0.37189 -0.20784,0.74379 -0.31177,1.11569 -0.95057,2.72769 -2.12279,5.40314 -3.50365,7.93818 -0.92405,1.78186 -1.65641,3.64345 -3.14758,5.05744 -1.24204,1.85037 -2.53688,3.64742 -4.23311,5.12147 -1.46292,1.43786 -2.92003,2.89377 -4.54454,4.15158 -5.31424,3.10833 -9.77253,6.33337 -15.35249,8.35597 -1.67616,0.64551 -3.38503,1.21825 -4.9735,2.06831 18.57654,-10.80066 9.86978,-6.23599 6.10852,-3.09953 -1.74065,1.35739 -3.30635,2.92558 -4.84087,4.51163 -1.67039,1.7655 -3.32603,3.58253 -4.35533,5.81445 -1.2559,3.03737 -1.88555,6.20928 -2.30376,9.46428 -0.72116,6.06361 -0.17265,12.2273 -0.37218,18.31873 0.0378,5.45713 0.0509,10.91759 0.27666,16.3708 0,0 -11.0983,5.65486 -11.0983,5.65486 z"
         id="path3201"
         style="fill:url(#linearGradient3093);fill-opacity:1;stroke:#ffffff;stroke-width:1.17853391000000007;stroke-miterlimit:4;stroke-opacity:1;stroke-dasharray:none" />
      <path
         transform="matrix(0.58926694,0,0,0.58926694,128.25633,234.96558)"
         d="m 562.85715,279.50504 a 160,138.57143 0 1 1 -320,0 160,138.57143 0 1 1 320,0 z"
         sodipodi:ry="138.57143"
         sodipodi:rx="160"
         sodipodi:cy="279.50504"
         sodipodi:cx="402.85715"
         id="path3136"
         style="fill:url(#radialGradient3023);fill-opacity:1;stroke:#ffffff;stroke-width:2;stroke-miterlimit:4;stroke-opacity:1;stroke-dasharray:none"
         sodipodi:type="arc" />
    </g>
  </g>
</svg>
