<?xml version="1.0" encoding="UTF-8" standalone="no"?>
<!-- Created with Inkscape (http://www.inkscape.org/) -->

<svg
   xmlns:dc="http://purl.org/dc/elements/1.1/"
   xmlns:cc="http://creativecommons.org/ns#"
   xmlns:rdf="http://www.w3.org/1999/02/22-rdf-syntax-ns#"
   xmlns:svg="http://www.w3.org/2000/svg"
   xmlns="http://www.w3.org/2000/svg"
   xmlns:sodipodi="http://sodipodi.sourceforge.net/DTD/sodipodi-0.dtd"
   xmlns:inkscape="http://www.inkscape.org/namespaces/inkscape"
   width="744.09448819"
   height="1052.3622047"
   id="svg2"
   version="1.1"
   inkscape:version="0.48.4 r9939"
   inkscape:export-filename="/home/hugocm93/Desktop/3-flower.png"
   inkscape:export-xdpi="90"
   inkscape:export-ydpi="90"
   sodipodi:docname="3-flower.svg">
  <defs
     id="defs4" />
  <sodipodi:namedview
     id="base"
     pagecolor="#ffffff"
     bordercolor="#666666"
     borderopacity="1.0"
     inkscape:pageopacity="0.0"
     inkscape:pageshadow="2"
     inkscape:zoom="0.24748737"
     inkscape:cx="-2.6694539"
     inkscape:cy="805.8221"
     inkscape:document-units="px"
     inkscape:current-layer="g3936"
     showgrid="false"
     inkscape:window-width="1278"
     inkscape:window-height="741"
     inkscape:window-x="0"
     inkscape:window-y="0"
     inkscape:window-maximized="0"
     showguides="true"
     inkscape:guide-bbox="true" />
  <metadata
     id="metadata7">
    <rdf:RDF>
      <cc:Work
         rdf:about="">
        <dc:format>image/svg+xml</dc:format>
        <dc:type
           rdf:resource="http://purl.org/dc/dcmitype/StillImage" />
        <dc:title></dc:title>
      </cc:Work>
    </rdf:RDF>
  </metadata>
  <g
     inkscape:label="Layer 1"
     inkscape:groupmode="layer"
     id="layer1">
    <path
       style="fill:#000000;fill-opacity:1;stroke:#ffffff;stroke-opacity:1;stroke-width:1.5;stroke-miterlimit:4;stroke-dasharray:none"
       d="m 247.75604,327.44439 c -6.35394,3.06864 -8.85923,10.73805 -5.61723,17.19599 l 62.33623,124.1716 c 3.24199,6.45793 10.96724,9.18649 17.32118,6.11785 6.35395,-3.06864 8.85923,-10.73805 5.61724,-17.19599 L 265.07723,333.56225 c -3.242,-6.45794 -10.96724,-9.1865 -17.32119,-6.11786 z"
       id="rect3783-2"
       inkscape:connector-curvature="0" />
    <g
       id="g3936"
       transform="translate(4.7982246,-2.5253814)"
       style="stroke:#ffffff;stroke-opacity:1;stroke-width:1.5;stroke-miterlimit:4;stroke-dasharray:none">
      <path
         sodipodi:type="arc"
         style="fill:#000000;fill-opacity:1;stroke:none"
         id="path2985"
         sodipodi:cx="249.50768"
         sodipodi:cy="290.70715"
         sodipodi:rx="42.426407"
         sodipodi:ry="42.426407"
         d="m 291.93408,290.70715 a 42.426407,42.426407 0 1 1 -84.85281,0 42.426407,42.426407 0 1 1 84.85281,0 z"
         transform="translate(61.964659,-12.825603)" />
      <path
         inkscape:connector-curvature="0"
         style="fill:#000000;fill-opacity:1;stroke:#ffffff;stroke-width:1.5;stroke-miterlimit:4;stroke-opacity:1;stroke-dasharray:none"
         d="m 257.70178,311.21288 c -0.79018,-10e-4 -1.56143,0.0587 -2.34375,0.125 l -0.6875,0 -0.125,-0.0312 -1.34375,0.25 -4.40625,1.6875 c 0.004,-6.6e-4 0.18714,-0.0313 0.1875,-0.0312 0.0776,0.005 -0.31942,0.15021 -0.875,0.34375 -6.6202,2.30621 -11.7864,6.26766 -15.46875,11.8125 -1.40352,2.11341 -2.00884,3.37619 -5.5,11.75 -1.66962,4.0047 -3.02022,7.19159 -3.125,7.40625 -0.002,0.004 -0.0615,0.15451 -0.0625,0.15625 -0.13941,0.36226 -0.29703,0.71079 -0.5,1.03125 l -0.0312,0.0625 -50.65625,122.71875 1.125,0.46875 c -0.28506,1.2537 -0.46184,2.55966 -0.46875,3.90625 l -0.87505,169.15615 c -0.0451,8.79673 6.25306,15.72072 14.09375,15.53125 7.84069,-0.18947 14.17361,-7.42202 14.21875,-16.21875 l 0.84375,-160.4375 4.8125,2.0625 -0.8125,173.15625 c -0.0451,9.72556 6.22181,17.39698 14.0625,17.1875 7.84069,-0.20948 14.20486,-8.21194 14.25,-17.9375 l 0.84375,-181.59375 44.1875,-100.0625 12.0625,19.1875 1.21875,1.96875 48.9375,77.59375 c 4.24425,6.72995 12.92158,8.64571 19.4375,4.28125 6.51592,-4.36446 8.338,-13.3013 4.09375,-20.03125 l -78.34375,-124.21875 -1.625,-2.65625 c -0.004,0.005 -0.0247,0.0231 -0.0312,0.0312 l -0.5938,-0.93745 c -0.30341,-0.73053 -0.6373,-1.44713 -1,-2.15625 l -0.6875,-1.40625 -0.875,-1.28125 -0.0625,-0.125 c -0.19632,-0.29565 -0.41739,-0.58642 -0.625,-0.875 l -0.15625,-0.25 c -0.35793,-0.48629 -0.73528,-0.94203 -1.125,-1.40625 -0.0151,-0.0179 -0.0474,-0.0446 -0.0625,-0.0625 l -0.5625,-0.65625 -1,-1.15625 -0.96875,-0.8125 -0.84375,-0.78125 -0.21875,-0.15625 c -0.0958,-0.0793 -0.18427,-0.14058 -0.28125,-0.21875 -0.45366,-0.36567 -0.92685,-0.69144 -1.40625,-1.03125 -0.51744,-0.36678 -1.04706,-0.72763 -1.59375,-1.0625 -0.0617,-0.0378 -0.12541,-0.0876 -0.1875,-0.125 l -0.5625,-0.375 -0.53125,-0.25 -0.15625,-0.0937 c -0.83181,-0.44564 -1.67207,-0.849 -2.5625,-1.21875 -0.0216,-0.009 -0.0722,-0.0224 -0.0937,-0.0312 -0.0483,-0.0199 -0.0768,-0.043 -0.125,-0.0625 l -0.28125,-0.0625 c -1.08164,-0.4275 -2.15284,-0.83593 -3.25,-1.125 l -0.46875,-0.15625 -3.25,-0.65625 -1.1875,0 c -0.7947,-0.0661 -1.58482,-0.12395 -2.375,-0.125 z"
         id="rect2987" />
      <path
         d="m 255.40104,315.57648 c 0,1.53683 -2.17828,2.78269 -4.86532,2.78269 -2.68704,0 -9.17572,-2.29964 -9.17572,-3.83647 0,-1.53684 5.72119,-1.89282 8.40823,-1.89282 2.68704,0 5.63281,1.40976 5.63281,2.9466 z"
         style="fill:#000000;fill-opacity:1;stroke:none;stroke-opacity:1;stroke-width:0.81198214999999996;stroke-miterlimit:4;stroke-dasharray:none"
         transform="matrix(1.4727597,-0.80373943,0.59392355,1.9930427,-306.69528,-108.24189)"
         id="path3927"
         inkscape:connector-curvature="0" />
      <path
         sodipodi:type="arc"
         style="fill:#000000;fill-opacity:1;stroke:none"
         id="path2985-2"
         sodipodi:cx="249.50768"
         sodipodi:cy="290.70715"
         sodipodi:rx="42.426407"
         sodipodi:ry="42.426407"
         d="m 291.93408,290.70715 a 42.426407,42.426407 0 1 1 -84.85281,0 42.426407,42.426407 0 1 1 84.85281,0 z"
         transform="matrix(-0.52043234,-0.2663559,-0.2663559,0.52043234,715.80625,348.73134)" />
      <path
         sodipodi:nodetypes="cccccccsssccccccccasccssscccccsccccccccccccccccccssccccccccccccccc"
         style="fill:#000000;fill-opacity:1;stroke:#ffffff;stroke-width:0.87694889;stroke-miterlimit:4;stroke-opacity:1;stroke-dasharray:none"
         d="m 506.55733,464.16428 c 0.41151,0.20995 0.79699,0.44645 1.18647,0.68933 l 0.3578,0.18312 0.0734,0.0171 0.63275,0.48802 1.84368,2.05186 c -0.002,-10e-4 -0.0891,-0.0661 -0.0893,-0.0662 -0.0417,-0.0181 0.12623,0.16325 0.36382,0.41196 2.8311,2.96356 4.4646,6.40127 4.90411,10.2678 0.16752,1.47372 0.1462,2.29215 -0.2673,7.58004 -0.19775,2.52889 -0.3437,4.54719 -0.34635,4.68681 -2e-5,0.003 -0.009,0.0968 -0.009,0.098 -0.0239,0.22566 -0.0347,0.44903 -0.0145,0.66987 l -4.1e-4,0.0408 -6.32372,77.3594 -0.71034,-0.0557 c -0.18557,0.72839 -0.44142,1.45514 -0.7965,2.15779 l 13.43538,81.12455 c -2.31959,4.59012 -7.84947,6.22217 -11.47168,4.32901 -3.72519,-1.947 -2.04442,-7.19041 -3.07994,-12.22801 l -15.74135,-76.57874 -3.05394,-0.20845 12.33738,83.18967 c 0.83412,5.62442 -7.87182,7.39674 -11.89658,5.1993 -4.02475,-2.19743 -1.98666,-7.48236 -2.6384,-13.13082 l -10.10626,-87.58915 3.65563,-63.84536 -11.38842,6.77288 -1.15866,0.69998 -34.51946,20.27643 c -4.0014,2.37201 -9.02764,1.05777 -11.25624,-2.94919 -2.22859,-4.00696 -0.79648,-9.1433 3.20493,-11.5153 l 62.24226,-36.70907 1.55321,-0.94957 c 7.5e-4,0.004 0.007,0.0186 0.008,0.0245 l 0.55872,-0.32972 c 0.35249,-0.29937 0.71713,-0.58338 1.09477,-0.85582 l 0.73236,-0.54874 0.79664,-0.43374 0.0658,-0.0484 c 0.18092,-0.10158 0.37342,-0.19402 0.55834,-0.28891 l 0.1479,-0.0885 c 0.31581,-0.15774 0.63358,-0.29441 0.96005,-0.4322 0.0126,-0.005 0.0366,-0.0106 0.0492,-0.0159 l 0.46754,-0.19171 0.8284,-0.3354 0.72058,-0.16482 0.64721,-0.18185 0.15546,-0.0231 c 0.071,-0.0157 0.13335,-0.0241 0.20464,-0.0389 0.3335,-0.0695 0.66653,-0.11298 1.00654,-0.16213 0.36698,-0.0531 0.73873,-0.0998 1.11244,-0.12846 0.0422,-0.003 0.0886,-0.0122 0.13087,-0.0151 l 0.39263,-0.0453 0.34307,0.0114 0.10628,-0.007 c 0.55159,-0.0104 1.09633,0.004 1.65822,0.0483 0.0136,10e-4 0.0436,0.008 0.0571,0.009 0.0304,0.003 0.0514,-0.002 0.0817,7.7e-4 l 0.16302,0.0424 c 0.67679,0.0656 1.34306,0.13838 1.99105,0.28017 l 0.28558,0.0435 1.8662,0.52412 0.61801,0.3163 c 0.43119,0.17727 0.85781,0.35762 1.26932,0.56754 z"
         id="rect2987-2"
         inkscape:connector-curvature="0" />
      <g
         id="g4068"
         transform="matrix(0.72274858,0.62238445,-0.54648141,0.73041011,605.89729,-348.38422)">
        <path
           sodipodi:nodetypes="sssssss"
           inkscape:connector-curvature="0"
           id="rect3025"
           d="m 311.34719,782.03043 c 2.57075,0 -4.79924,37.64115 -5.6955,47.3868 l -1.80467,19.62352 c -0.18151,1.97363 2.19598,41.95722 -0.37477,41.95722 -2.57075,0 -4.06089,12.29586 -3.9841,10.31817 l 2.62498,-67.60577 c 0.0768,-1.97769 6.66331,-51.67994 9.23406,-51.67994 z"
           style="fill:#008000;fill-opacity:1;stroke:#373737;stroke-width:0.89999998;stroke-miterlimit:4;stroke-opacity:1;stroke-dasharray:none" />
        <g
           id="g4048">
          <path
             style="fill:#ffffff;fill-opacity:1;stroke:#373737;stroke-width:0.89999998;stroke-miterlimit:4;stroke-opacity:1;stroke-dasharray:none"
             d="m 312.31345,784.73162 c -4.27771,0.32548 -8.53098,-9.73423 -9.49996,-22.46901 -0.96898,-12.73476 1.71328,-23.3222 5.99098,-23.64769 4.27771,-0.32549 8.53097,9.73424 9.49995,22.469 0.96898,12.73478 -1.71327,23.32221 -5.99097,23.6477 z"
             id="path3061-5-9"
             inkscape:connector-curvature="0" />
          <path
             inkscape:connector-curvature="0"
             style="fill:#ffffff;fill-opacity:1;stroke:#373737;stroke-width:0.89999998;stroke-miterlimit:4;stroke-opacity:1;stroke-dasharray:none"
             d="m 358.89051,781.03558 c 0,4.29007 -10.35341,7.76786 -23.125,7.76786 -12.77158,0 -23.125,-3.47779 -23.125,-7.76786 0,-4.29007 10.35342,-7.76785 23.125,-7.76785 12.77159,0 23.125,3.47778 23.125,7.76785 z"
             id="path3061" />
          <path
             inkscape:connector-curvature="0"
             style="fill:#ffffff;fill-opacity:1;stroke:#373737;stroke-width:0.89999998;stroke-miterlimit:4;stroke-opacity:1;stroke-dasharray:none"
             d="m 310.65442,781.33248 c 0,4.29007 -10.35341,7.76786 -23.125,7.76786 -12.77158,0 -23.125,-3.47779 -23.125,-7.76786 0,-4.29007 10.35342,-7.76785 23.125,-7.76785 12.77159,0 23.125,3.47778 23.125,7.76785 z"
             id="path3061-4" />
          <path
             inkscape:connector-curvature="0"
             style="fill:#ffffff;fill-opacity:1;stroke:#373737;stroke-width:0.90000004;stroke-miterlimit:4;stroke-opacity:1;stroke-dasharray:none"
             d="m 320.79408,824.99222 c -4.19354,0.90495 -9.77704,-8.48188 -12.4711,-20.96609 -2.69406,-12.48421 -1.47849,-23.33827 2.71505,-24.24322 4.19353,-0.90496 9.77703,8.48189 12.47108,20.96609 2.69406,12.48421 1.4785,23.33826 -2.71503,24.24322 z"
             id="path3061-5" />
          <path
             inkscape:connector-curvature="0"
             style="fill:#ffff00;fill-opacity:1;stroke:#373737;stroke-width:0.89999998;stroke-miterlimit:4;stroke-opacity:1;stroke-dasharray:none"
             d="m 322.70178,782.56611 c 0,6.41045 -5.1967,11.60715 -11.60715,11.60715 -6.41044,0 -11.60714,-5.1967 -11.60714,-11.60715 0,-6.41044 5.1967,-11.60714 11.60714,-11.60714 6.41045,0 11.60715,5.1967 11.60715,11.60714 z"
             id="path3030" />
          <path
             style="fill:#008000;fill-opacity:1;stroke:#373737;stroke-width:0.89999998;stroke-miterlimit:4;stroke-opacity:1;stroke-dasharray:none"
             d="m 294.49949,821.78663 c -3.68084,-0.74503 -5.6852,-10.31124 -3.63774,-12.60295 2.04745,-2.29171 8.2173,1.89713 11.05222,4.30393 2.83494,2.40681 1.51919,5.46978 1.42587,8.50742 -0.27704,9.01706 2.77704,2.14304 -8.84035,-0.2084 z"
             id="path3034"
             inkscape:connector-curvature="0"
             sodipodi:nodetypes="sssss" />
          <path
             style="fill:#008000;fill-opacity:1;stroke:#373737;stroke-width:0.89999998;stroke-miterlimit:4;stroke-opacity:1;stroke-dasharray:none"
             d="m 310.54694,838.84617 c 2.22638,0.71657 6.41337,-4.07895 6.0537,-6.00947 -0.35967,-1.93051 -5.04624,-1.4673 -7.35618,-0.98154 -2.30994,0.48576 -2.59521,2.62659 -3.53129,4.37504 -2.7787,5.19019 -2.19309,0.35435 4.83377,2.61597 z"
             id="path3034-3"
             inkscape:connector-curvature="0"
             sodipodi:nodetypes="sssss"
             inkscape:transform-center-x="3.0357143"
             inkscape:transform-center-y="-1.6071429" />
          <g
             transform="matrix(0.5990009,0.31563602,-0.35099268,0.53866154,360.5745,246.48518)"
             id="g3959">
            <path
               id="path3061-8"
               d="m 369.69742,807.76236 c 0,4.29007 10.35341,7.76786 23.125,7.76786 12.77158,0 23.125,-3.47779 23.125,-7.76786 0,-4.29007 -10.35342,-7.76785 -23.125,-7.76785 -12.77159,0 -23.125,3.47778 -23.125,7.76785 z"
               style="fill:#ffffff;fill-opacity:1;stroke:#373737;stroke-width:0.89999998;stroke-miterlimit:4;stroke-opacity:1;stroke-dasharray:none"
               inkscape:connector-curvature="0" />
            <g
               id="g3949">
              <path
                 style="fill:#008000;fill-opacity:1;stroke:#373737;stroke-width:0.89999998;stroke-miterlimit:4;stroke-opacity:1;stroke-dasharray:none"
                 d="m 417.24074,808.75721 c -2.57075,0 4.79924,37.64115 5.6955,47.3868 l 1.80467,19.62352 c 0.18151,1.97363 -2.19598,41.95722 0.37477,41.95722 2.57075,0 4.06089,12.29586 3.9841,10.31817 l -2.62498,-67.60577 c -0.0768,-1.97769 -6.66331,-51.67994 -9.23406,-51.67994 z"
                 id="rect3025-5"
                 inkscape:connector-curvature="0"
                 sodipodi:nodetypes="sssssss" />
              <path
                 inkscape:connector-curvature="0"
                 style="fill:#ffffff;fill-opacity:1;stroke:#373737;stroke-width:0.89999998;stroke-miterlimit:4;stroke-opacity:1;stroke-dasharray:none"
                 d="m 417.93351,808.05926 c 0,4.29007 10.35341,7.76786 23.125,7.76786 12.77158,0 23.125,-3.47779 23.125,-7.76786 0,-4.29007 -10.35342,-7.76785 -23.125,-7.76785 -12.77159,0 -23.125,3.47778 -23.125,7.76785 z"
                 id="path3061-4-6" />
              <path
                 style="fill:#008000;fill-opacity:1;stroke:#373737;stroke-width:0.89999998;stroke-miterlimit:4;stroke-opacity:1;stroke-dasharray:none"
                 d="m 434.08844,848.51341 c 3.68084,-0.74503 5.6852,-10.31124 3.63774,-12.60295 -2.04745,-2.29171 -8.2173,1.89713 -11.05222,4.30393 -2.83494,2.40681 -1.51919,5.46978 -1.42587,8.50742 0.27704,9.01706 -2.77704,2.14304 8.84035,-0.2084 z"
                 id="path3034-9"
                 inkscape:connector-curvature="0"
                 sodipodi:nodetypes="sssss" />
              <g
                 id="g3943">
                <path
                   style="fill:#ffffff;fill-opacity:1;stroke:#373737;stroke-width:0.89999998;stroke-miterlimit:4;stroke-opacity:1;stroke-dasharray:none"
                   d="m 416.27448,811.4584 c 4.27771,0.32548 8.53098,-9.73423 9.49996,-22.46901 0.96898,-12.73476 -1.71328,-23.3222 -5.99098,-23.64769 -4.27771,-0.32549 -8.53097,9.73424 -9.49995,22.469 -0.96898,12.73478 1.71327,23.32221 5.99097,23.6477 z"
                   id="path3061-5-9-1"
                   inkscape:connector-curvature="0" />
                <path
                   id="path3061-5-7"
                   d="m 407.79385,851.719 c 4.19354,0.90495 9.77704,-8.48188 12.4711,-20.96609 2.69406,-12.48421 1.47849,-23.33827 -2.71505,-24.24322 -4.19353,-0.90496 -9.77703,8.48189 -12.47108,20.96609 -2.69406,12.48421 -1.4785,23.33826 2.71503,24.24322 z"
                   style="fill:#ffffff;fill-opacity:1;stroke:#373737;stroke-width:0.90000004;stroke-miterlimit:4;stroke-opacity:1;stroke-dasharray:none"
                   inkscape:connector-curvature="0" />
                <path
                   id="path3030-9"
                   d="m 405.88615,809.29289 c 0,6.41045 5.1967,11.60715 11.60715,11.60715 6.41044,0 11.60714,-5.1967 11.60714,-11.60715 0,-6.41044 -5.1967,-11.60714 -11.60714,-11.60714 -6.41045,0 -11.60715,5.1967 -11.60715,11.60714 z"
                   style="fill:#ffff00;fill-opacity:1;stroke:#373737;stroke-width:0.89999998;stroke-miterlimit:4;stroke-opacity:1;stroke-dasharray:none"
                   inkscape:connector-curvature="0" />
                <path
                   inkscape:transform-center-y="-1.6071429"
                   inkscape:transform-center-x="-3.0357143"
                   sodipodi:nodetypes="sssss"
                   inkscape:connector-curvature="0"
                   id="path3034-3-5"
                   d="m 418.04099,865.57295 c -2.22638,0.71657 -6.41337,-4.07895 -6.0537,-6.00947 0.35967,-1.93051 5.04624,-1.4673 7.35618,-0.98154 2.30994,0.48576 2.59521,2.62659 3.53129,4.37504 2.7787,5.19019 2.19309,0.35435 -4.83377,2.61597 z"
                   style="fill:#008000;fill-opacity:1;stroke:#373737;stroke-width:0.89999998;stroke-miterlimit:4;stroke-opacity:1;stroke-dasharray:none" />
              </g>
            </g>
          </g>
        </g>
      </g>
    </g>
  </g>
</svg>
