<?xml version="1.0" encoding="UTF-8" standalone="no"?>
<!-- Created with Inkscape (http://www.inkscape.org/) -->

<svg
   xmlns:dc="http://purl.org/dc/elements/1.1/"
   xmlns:cc="http://creativecommons.org/ns#"
   xmlns:rdf="http://www.w3.org/1999/02/22-rdf-syntax-ns#"
   xmlns:svg="http://www.w3.org/2000/svg"
   xmlns="http://www.w3.org/2000/svg"
   xmlns:sodipodi="http://sodipodi.sourceforge.net/DTD/sodipodi-0.dtd"
   xmlns:inkscape="http://www.inkscape.org/namespaces/inkscape"
   width="744.09448819"
   height="1052.3622047"
   id="svg2"
   version="1.1"
   inkscape:version="0.48.4 r9939"
   sodipodi:docname="4-drawPerson.svg">
  <defs
     id="defs4" />
  <sodipodi:namedview
     id="base"
     pagecolor="#ffffff"
     bordercolor="#666666"
     borderopacity="1.0"
     inkscape:pageopacity="0.0"
     inkscape:pageshadow="2"
     inkscape:zoom="1.979899"
     inkscape:cx="421.12107"
     inkscape:cy="265.37212"
     inkscape:document-units="px"
     inkscape:current-layer="layer1"
     showgrid="false"
     inkscape:window-width="1280"
     inkscape:window-height="739"
     inkscape:window-x="0"
     inkscape:window-y="0"
     inkscape:window-maximized="1" />
  <metadata
     id="metadata7">
    <rdf:RDF>
      <cc:Work
         rdf:about="">
        <dc:format>image/svg+xml</dc:format>
        <dc:type
           rdf:resource="http://purl.org/dc/dcmitype/StillImage" />
        <dc:title />
      </cc:Work>
    </rdf:RDF>
  </metadata>
  <g
     inkscape:label="Layer 1"
     inkscape:groupmode="layer"
     id="layer1">
    <rect
       style="fill:#ff8080;fill-opacity:1;stroke:none"
       id="rect3126-1"
       width="34.345188"
       height="115.35323"
       x="53.541683"
       y="367.54269"
       ry="12.239738" />
    <g
       id="g3224"
       transform="translate(-45.714286,-354.28571)">
      <path
         sodipodi:nodetypes="sssssssss"
         inkscape:connector-curvature="0"
         id="rect3124"
         d="m 192.91642,559.81744 133.55886,-10.71429 c 9.37491,-0.75207 16.97658,7.57155 16.97658,16.97657 l 0,128.88447 c 0,9.40502 -7.57412,16.75662 -16.97658,16.97658 l -122.13029,2.85714 c -9.40244,0.21997 -16.09239,-7.61321 -16.97657,-16.97658 L 175.93985,576.79401 c -0.88418,-9.36337 7.60167,-16.22451 16.97657,-16.97657 z"
         style="fill:#000000;fill-opacity:1;stroke:none" />
      <rect
         ry="14.323945"
         y="404.36075"
         x="309.1373"
         height="253.21037"
         width="34.345188"
         id="rect3126"
         style="fill:#ff8080;fill-opacity:1;stroke:none" />
      <rect
         transform="matrix(0.06611392,0.99781208,-0.99287115,0.11919262,0,0)"
         ry="21.821199"
         y="-400.34451"
         x="683.14374"
         height="132.82758"
         width="44.476288"
         id="rect3128"
         style="fill:#ff8080;fill-opacity:1;stroke:none" />
      <rect
         transform="matrix(0.99921115,-0.03971247,0.03971247,0.99921115,0,0)"
         ry="12.239738"
         y="539.93567"
         x="241.0334"
         height="115.35323"
         width="34.345188"
         id="rect3126-1-6"
         style="opacity:0.91000001;fill:#ff8080;fill-opacity:1;stroke:none" />
      <rect
         transform="matrix(0.99693874,-0.07818658,0.07818658,0.99693874,0,0)"
         ry="12.239738"
         y="556.27832"
         x="173.66927"
         height="115.35323"
         width="34.345188"
         id="rect3126-1-6-4"
         style="opacity:0.8491999;fill:#ff8080;fill-opacity:1;stroke:none" />
      <rect
         transform="matrix(0.9947502,-0.10233299,0.10233299,0.9947502,0,0)"
         ry="12.239738"
         y="572.0484"
         x="115.25702"
         height="115.35323"
         width="34.345188"
         id="rect3126-1-6-4-8"
         style="opacity:0.93000016;fill:#ff8080;fill-opacity:1;stroke:none" />
      <path
         sodipodi:nodetypes="sssssssss"
         inkscape:connector-curvature="0"
         id="rect3203"
         d="m 216.35444,687.6971 94.59074,-2.0203 c 7.93367,-0.16946 14.75623,6.40026 14.32395,14.32395 l -8.08122,148.12881 c -0.43228,7.92368 -6.39,14.47922 -14.32395,14.32394 l -77.41814,-1.51523 c -7.93395,-0.15528 -13.82598,-6.40412 -14.32394,-14.32394 L 202.0305,702.02105 c -0.49796,-7.91983 6.39029,-14.1545 14.32394,-14.32395 z"
         style="opacity:0.91000001;fill:#ff8080;fill-opacity:1;stroke:none" />
      <rect
         transform="matrix(0.2884251,0.95750246,-0.90127835,0.43324051,0,0)"
         ry="37.89325"
         y="-240.17313"
         x="767.03442"
         height="230.65958"
         width="44.448601"
         id="rect3128-8"
         style="opacity:0.75460044;fill:#e9afaf;fill-opacity:1;stroke:none" />
    </g>
    <g
       id="g3111"
       transform="matrix(0.17959788,-0.06502103,0.06502103,0.17959788,303.56774,672.79385)">
      <rect
         ry="19.061666"
         y="497.78845"
         x="323.24881"
         height="184.89818"
         width="79.802048"
         id="rect2987"
         style="fill:#000000;fill-opacity:1;stroke:none" />
      <g
         id="g3100">
        <path
           sodipodi:type="arc"
           style="fill:#000000;fill-opacity:1;stroke:none"
           id="path2985"
           sodipodi:cx="365"
           sodipodi:cy="427.36218"
           sodipodi:rx="42.142857"
           sodipodi:ry="42.142857"
           d="m 407.14286,427.36218 c 0,23.27486 -18.868,42.14286 -42.14286,42.14286 -23.27486,0 -42.14286,-18.868 -42.14286,-42.14286 0,-23.27485 18.868,-42.14285 42.14286,-42.14285 23.27486,0 42.14286,18.868 42.14286,42.14285 z" />
        <rect
           style="fill:#000000;fill-opacity:1;stroke:none"
           id="rect2989"
           width="25.253813"
           height="203.04066"
           x="541.92761"
           y="251.20299"
           ry="12.626906"
           transform="matrix(0.85563526,0.51757927,-0.51757927,0.85563526,0,0)" />
        <rect
           style="fill:#000000;fill-opacity:1;stroke:none"
           id="rect2989-3"
           width="25.253813"
           height="203.04066"
           x="-79.482178"
           y="626.91046"
           ry="12.626906"
           transform="matrix(-0.85563526,0.51757927,0.51757927,0.85563526,0,0)" />
        <path
           style="fill:#000000;fill-opacity:1;stroke:none"
           inkscape:transform-center-x="-0.27192237"
           inkscape:transform-center-y="-22.982919"
           d="M 473.40991,683.9064 257.31758,682.58181 361.94275,506.29036 z"
           id="path3045"
           inkscape:connector-curvature="0"
           sodipodi:nodetypes="cccc" />
        <rect
           style="fill:#000000;fill-opacity:1;stroke:none"
           id="rect3050"
           width="90.017799"
           height="41.416256"
           x="319.23145"
           y="497.28336"
           ry="18.622149" />
        <rect
           style="fill:#000000;fill-opacity:1;stroke:none"
           id="rect3052"
           width="28.284271"
           height="255.97322"
           x="366.04721"
           y="556.89972"
           ry="16.5144" />
        <rect
           style="fill:#000000;fill-opacity:1;stroke:none"
           id="rect3052-2"
           width="28.284271"
           height="254.0965"
           x="332.3956"
           y="558.159"
           ry="16.39332" />
        <path
           style="fill:#ff0000;fill-opacity:1;stroke:none"
           d="m 344.22625,812.0048 c -5.51215,-1.10561 -9.90741,-5.7362 -11.30967,-11.91522 -0.36334,-1.60107 -0.5908,-4.63947 -0.53543,-7.15247 0.0369,-1.6741 0.0474,-1.73766 0.19879,-1.19955 1.12662,4.00479 3.74732,7.13376 7.4142,8.85212 1.8383,0.86145 3.17902,1.14345 5.78789,1.21738 2.38823,0.0677 3.50386,-0.0411 5.07335,-0.49451 5.26501,-1.52114 9.04751,-6.0075 9.6555,-11.45221 0.0703,-0.62988 0.0955,0.6768 0.0727,3.77125 -0.0379,5.14678 -0.10648,5.77649 -0.88506,8.1316 -1.56663,4.73886 -5.21872,8.57802 -9.39356,9.87472 -1.78626,0.55481 -4.36563,0.71049 -6.07873,0.36689 z"
           id="path3078"
           inkscape:connector-curvature="0" />
        <path
           style="fill:#ff0000;fill-opacity:1;stroke:none"
           d="m 378.14653,812.6637 c -4.9942,-0.89509 -9.08263,-4.61233 -10.97616,-9.97963 -0.56245,-1.59429 -0.86148,-3.04638 -1.0139,-4.92338 -0.16046,-1.97607 -0.1555,-8.64996 0.005,-7.39443 0.77478,6.04203 5.26455,10.70677 11.23749,11.67544 1.5242,0.24719 4.26374,0.24709 5.78866,-2.2e-4 5.28935,-0.8578 9.53188,-4.74751 10.87497,-9.97059 l 0.22729,-0.88389 0.009,3.09691 c 0.012,3.99684 -0.17491,5.56871 -0.95302,8.01477 -1.59571,5.01622 -5.57424,8.99955 -10.14936,10.16159 -1.36334,0.34627 -3.72337,0.44133 -5.05076,0.20343 l 0,0 z"
           id="path3098"
           inkscape:connector-curvature="0" />
      </g>
    </g>
    <path
       style="fill:#000000;fill-opacity:1;stroke:none"
       d="m 389.12595,817.44478 c -3.24973,1.17885 -6.85274,-0.5029 -8.03158,-3.75266 l -19.6086,-48.32442 c 0,0 -1.25413,-1.61054 -2.01069,-1.33625 -0.73472,0.26691 -0.66738,2.24814 -0.66738,2.24814 l 0.18487,0.71842 c 0.89566,2.81489 -0.65029,5.79011 -3.46518,6.68577 l -4.09557,1.28909 c -2.8149,0.89567 -5.7901,-0.65028 -6.68577,-3.46517 l -1.18259,-2.62946 c 0,0 -1.93752,-1.64823 -2.98167,-1.33774 -0.98204,0.29197 -1.6612,2.58597 -1.6612,2.58597 l 0.0713,1.02949 c 0.78649,2.84731 -0.8316,5.79823 -3.6789,6.58474 l -4.15196,1.13165 c -2.84732,0.78651 -4.66184,-0.8952 -6.05341,-3.77949 0,0 -0.0939,-0.52669 -0.56928,-1.00012 -0.80889,-0.80539 -2.21934,-1.19709 -3.31245,-0.8684 -0.9971,0.29985 -2.08361,2.32717 -2.08361,2.32717 -0.6346,1.47069 -1.89986,2.63699 -3.58064,3.05768 l -4.11829,1.06041 c -2.86556,0.71724 -5.76647,-1.02708 -6.48372,-3.89263 l -9.60843,-38.40261 -4.16257,-16.08715 c -0.96892,-3.73811 -2.6101,-14.45455 0.79929,-15.98925 l -9.06793,-33.67876 c -0.97187,-3.31752 0.52633,-6.79011 3.75266,-8.03157 l 32.97351,-11.91843 c 3.22635,-1.24143 6.6257,0.59045 7.97911,3.77144 l 15.49261,35.33864 33.90064,3.20755 c 3.26648,0.32878 6.36573,1.19307 8.97123,2.41005 2.74834,0.67884 5.16564,2.45937 6.52588,5.00204 0.89286,1.24075 1.43977,2.55789 1.51373,3.89677 0.0401,0.72482 -0.10723,1.41637 -0.32435,2.06921 -0.45313,3.60541 -3.08791,6.67934 -6.93518,7.57323 0,0 -20.18434,-5.22742 -28.15691,0.6964 -0.31309,0.23257 0.16173,1.27797 0.29318,1.64518 0.53849,1.50379 0.89572,2.56647 1.49185,4.04834 3.08707,7.6725 9.62861,24.50079 9.62861,24.50079 l 25.15988,62.75797 c 1.17887,3.24974 -0.50289,6.85274 -3.75265,8.03158 l -2.30815,0.82651 z"
       id="rect3124-0-4"
       inkscape:connector-curvature="0"
       sodipodi:nodetypes="cccsccccccscccccsscccccccccccccccsccsssccccc" />
    <path
       style="fill:#000000;fill-opacity:1;stroke:none"
       d="m 419.69664,698.19992 c 3.19146,-1.32855 6.86871,0.18402 8.19723,3.37551 l 21.83234,47.36133 c 0,0 1.3276,1.55055 2.0706,1.2414 0.72152,-0.30075 0.56222,-2.2767 0.56222,-2.2767 l -0.21805,-0.70907 c -1.02545,-2.77023 0.38061,-5.81406 3.15085,-6.83952 l 4.03126,-1.47796 c 2.77027,-1.02547 5.81408,0.38061 6.83953,3.15083 l 1.30347,2.5717 c 0,0 2.012,1.55644 3.04059,1.19779 0.96742,-0.33728 1.53928,-2.66036 1.53928,-2.66036 l -0.11939,-1.02502 c -0.91791,-2.8077 0.56135,-5.83061 3.36904,-6.74853 l 4.09491,-1.32331 c 2.80771,-0.91794 4.69838,0.67767 6.22244,3.4942 0,0 0.11823,0.52176 0.61512,0.97259 0.84544,0.76694 2.27256,1.0927 3.34923,0.7136 0.98209,-0.34585 1.97325,-2.42146 1.97325,-2.42146 0.5656,-1.49859 1.77532,-2.72242 3.43474,-3.22072 l 4.06457,-1.25058 c 2.82914,-0.84959 5.80797,0.75809 6.65755,3.58722 l 11.38204,37.91481 4.90541,15.87641 c 1.14151,3.68905 3.27876,14.3177 -0.0557,16.00911 l 10.62266,33.22115 c 1.12495,3.2688 -0.21032,6.80724 -3.37549,8.19723 l -32.38424,13.43734 c -3.1652,1.38997 -6.64599,-0.28201 -8.1457,-3.39671 l -17.11752,-34.58077 -34.01306,-1.62925 c -3.27823,-0.17668 -6.41428,-0.89606 -9.0735,-1.99069 -2.77691,-0.55044 -5.27432,-2.21674 -6.75121,-4.69348 -0.94953,-1.19794 -1.55703,-2.48826 -1.69312,-3.82225 -0.0737,-0.72218 0.0413,-1.41982 0.22788,-2.08206 0.28516,-3.62254 2.77429,-6.81556 6.57589,-7.88721 0,0 20.40538,4.28412 28.09416,-2.00366 0.30194,-0.24687 -0.22089,-1.26909 -0.36931,-1.62979 -0.60775,-1.47714 -1.01396,-2.52209 -1.6783,-3.97467 -3.44015,-7.5208 -10.75637,-24.02704 -10.75637,-24.02704 l -28.04813,-61.52142 c -1.32855,-3.19148 0.18401,-6.86871 3.37551,-8.19724 l 2.26725,-0.93284 z"
       id="rect3124-0-4-8"
       inkscape:connector-curvature="0"
       sodipodi:nodetypes="cccsccccccscccccsscccccccccccccccsccsssccccc" />
  </g>
</svg>
