<?xml version="1.0" encoding="UTF-8" standalone="no"?>
<!-- Created with Inkscape (http://www.inkscape.org/) -->

<svg
   xmlns:dc="http://purl.org/dc/elements/1.1/"
   xmlns:cc="http://creativecommons.org/ns#"
   xmlns:rdf="http://www.w3.org/1999/02/22-rdf-syntax-ns#"
   xmlns:svg="http://www.w3.org/2000/svg"
   xmlns="http://www.w3.org/2000/svg"
   xmlns:sodipodi="http://sodipodi.sourceforge.net/DTD/sodipodi-0.dtd"
   xmlns:inkscape="http://www.inkscape.org/namespaces/inkscape"
   width="744.09448819"
   height="1052.3622047"
   id="svg2"
   version="1.1"
   inkscape:version="0.48.4 r9939"
   sodipodi:docname="New document 1">
  <defs
     id="defs4" />
  <sodipodi:namedview
     id="base"
     pagecolor="#ffffff"
     bordercolor="#666666"
     borderopacity="1.0"
     inkscape:pageopacity="0.0"
     inkscape:pageshadow="2"
     inkscape:zoom="0.7"
     inkscape:cx="236.81353"
     inkscape:cy="451.83228"
     inkscape:document-units="px"
     inkscape:current-layer="layer1"
     showgrid="false"
     inkscape:window-width="1280"
     inkscape:window-height="739"
     inkscape:window-x="0"
     inkscape:window-y="0"
     inkscape:window-maximized="1" />
  <metadata
     id="metadata7">
    <rdf:RDF>
      <cc:Work
         rdf:about="">
        <dc:format>image/svg+xml</dc:format>
        <dc:type
           rdf:resource="http://purl.org/dc/dcmitype/StillImage" />
        <dc:title></dc:title>
      </cc:Work>
    </rdf:RDF>
  </metadata>
  <g
     inkscape:label="Layer 1"
     inkscape:groupmode="layer"
     id="layer1">
    <g
       id="g3066"
       inkscape:export-filename="/home/hugocm93/Dropbox/Drawings/PNG/48-gum.png"
       inkscape:export-xdpi="90"
       inkscape:export-ydpi="90">
      <g
         id="g2992">
        <path
           sodipodi:type="arc"
           style="fill:#000000;fill-opacity:1;stroke:none"
           id="path2985"
           sodipodi:cx="420.71429"
           sodipodi:cy="601.64789"
           sodipodi:rx="150.71428"
           sodipodi:ry="155"
           d="m 571.42857,601.64789 a 150.71428,155 0 1 1 -301.42855,0 150.71428,155 0 1 1 301.42855,0 z"
           transform="translate(-94.285714,-111.42857)" />
        <path
           style="fill:#000000;fill-opacity:1;stroke:none"
           d="M 325 709.5 C 168.96199 709.5 41.53046 753.77776 33.3125 809.5 L 616.6875 809.5 C 608.46954 753.77776 481.03801 709.5 325 709.5 z "
           id="path2987" />
      </g>
      <path
         transform="translate(8.0812204,-30.304576)"
         d="m 289.91377,479.10062 a 21.718279,21.718279 0 1 1 -43.43655,0 21.718279,21.718279 0 1 1 43.43655,0 z"
         sodipodi:ry="21.718279"
         sodipodi:rx="21.718279"
         sodipodi:cy="479.10062"
         sodipodi:cx="268.1955"
         id="path2996"
         style="fill:#ffffff;fill-opacity:1;stroke:none"
         sodipodi:type="arc" />
      <path
         d="m 289.91377,479.10062 a 21.718279,21.718279 0 1 1 -43.43655,0 21.718279,21.718279 0 1 1 43.43655,0 z"
         sodipodi:ry="21.718279"
         sodipodi:rx="21.718279"
         sodipodi:cy="479.10062"
         sodipodi:cx="268.1955"
         id="path2996-8"
         style="fill:#ffffff;fill-opacity:1;stroke:none"
         sodipodi:type="arc"
         transform="translate(108.59141,-31.819809)" />
      <path
         transform="matrix(0.28467102,0,0,0.28467102,186.33109,318.65469)"
         d="m 289.91377,479.10062 a 21.718279,21.718279 0 1 1 -43.43655,0 21.718279,21.718279 0 1 1 43.43655,0 z"
         sodipodi:ry="21.718279"
         sodipodi:rx="21.718279"
         sodipodi:cy="479.10062"
         sodipodi:cx="268.1955"
         id="path2996-0"
         style="fill:#000000;fill-opacity:1;stroke:none"
         sodipodi:type="arc" />
      <path
         transform="matrix(0.28467102,0,0,0.28467102,311.8668,302.04755)"
         d="m 289.91377,479.10062 a 21.718279,21.718279 0 1 1 -43.43655,0 21.718279,21.718279 0 1 1 43.43655,0 z"
         sodipodi:ry="21.718279"
         sodipodi:rx="21.718279"
         sodipodi:cy="479.10062"
         sodipodi:cx="268.1955"
         id="path2996-0-8"
         style="fill:#000000;fill-opacity:1;stroke:none"
         sodipodi:type="arc" />
      <path
         transform="matrix(1.3042203,0,0,1.0246665,33.071115,95.372392)"
         d="m 289.91377,479.10062 a 21.718279,21.718279 0 1 1 -43.43655,0 21.718279,21.718279 0 1 1 43.43655,0 z"
         sodipodi:ry="21.718279"
         sodipodi:rx="21.718279"
         sodipodi:cy="479.10062"
         sodipodi:cx="268.1955"
         id="path2996-0-7"
         style="fill:#ffffff;fill-opacity:1;stroke:none"
         sodipodi:type="arc" />
      <path
         transform="matrix(3.8859825,0,0,3.4584295,-591.84584,-1064.2164)"
         d="m 289.91377,479.10062 a 21.718279,21.718279 0 1 1 -43.43655,0 21.718279,21.718279 0 1 1 43.43655,0 z"
         sodipodi:ry="21.718279"
         sodipodi:rx="21.718279"
         sodipodi:cy="479.10062"
         sodipodi:cx="268.1955"
         id="path2996-0-4"
         style="fill:#ff00ff;fill-opacity:1;stroke:none"
         sodipodi:type="arc" />
    </g>
  </g>
</svg>
