<?xml version="1.0" encoding="UTF-8" standalone="no"?>
<!-- Created with Inkscape (http://www.inkscape.org/) -->

<svg
   xmlns:dc="http://purl.org/dc/elements/1.1/"
   xmlns:cc="http://creativecommons.org/ns#"
   xmlns:rdf="http://www.w3.org/1999/02/22-rdf-syntax-ns#"
   xmlns:svg="http://www.w3.org/2000/svg"
   xmlns="http://www.w3.org/2000/svg"
   xmlns:sodipodi="http://sodipodi.sourceforge.net/DTD/sodipodi-0.dtd"
   xmlns:inkscape="http://www.inkscape.org/namespaces/inkscape"
   width="744.09448819"
   height="1052.3622047"
   id="svg2"
   version="1.1"
   inkscape:version="0.48.4 r9939"
   sodipodi:docname="5-call.svg">
  <defs
     id="defs4" />
  <sodipodi:namedview
     id="base"
     pagecolor="#ffffff"
     bordercolor="#666666"
     borderopacity="1.0"
     inkscape:pageopacity="0.0"
     inkscape:pageshadow="2"
     inkscape:zoom="0.49497475"
     inkscape:cx="101.36025"
     inkscape:cy="732.42543"
     inkscape:document-units="px"
     inkscape:current-layer="layer1"
     showgrid="false"
     inkscape:window-width="1280"
     inkscape:window-height="739"
     inkscape:window-x="0"
     inkscape:window-y="0"
     inkscape:window-maximized="1" />
  <metadata
     id="metadata7">
    <rdf:RDF>
      <cc:Work
         rdf:about="">
        <dc:format>image/svg+xml</dc:format>
        <dc:type
           rdf:resource="http://purl.org/dc/dcmitype/StillImage" />
        <dc:title></dc:title>
      </cc:Work>
    </rdf:RDF>
  </metadata>
  <g
     inkscape:label="Layer 1"
     inkscape:groupmode="layer"
     id="layer1">
    <g
       id="g4185"
       inkscape:export-filename="/home/hugocm93/Desktop/5-call.png"
       inkscape:export-xdpi="90"
       inkscape:export-ydpi="90">
      <path
         transform="translate(-1.0101525,-10.980416)"
         d="m 434.3656,488.19199 a 86.368042,86.368042 0 1 1 -172.73608,0 86.368042,86.368042 0 1 1 172.73608,0 z"
         sodipodi:ry="86.368042"
         sodipodi:rx="86.368042"
         sodipodi:cy="488.19199"
         sodipodi:cx="347.99756"
         id="path2985"
         style="fill:#000000;fill-opacity:1;stroke:none"
         sodipodi:type="arc" />
      <path
         id="path2987"
         d="M 352.53125 590.71875 C 259.59761 590.71875 184.14441 622.73805 182.875 662.4375 L 522.21875 662.4375 C 520.94934 622.73805 445.46489 590.71875 352.53125 590.71875 z "
         style="fill:#000000;fill-opacity:1;stroke:none" />
      <path
         transform="matrix(0.33918128,0,0,0.33918128,62.364624,170.57843)"
         d="m 434.3656,488.19199 a 86.368042,86.368042 0 1 1 -172.73608,0 86.368042,86.368042 0 1 1 172.73608,0 z"
         sodipodi:ry="86.368042"
         sodipodi:rx="86.368042"
         sodipodi:cy="488.19199"
         sodipodi:cx="347.99756"
         id="path2985-1-3"
         style="fill:#ffffff;fill-opacity:1;stroke:#000000;stroke-width:8.07532787;stroke-miterlimit:4;stroke-opacity:1;stroke-dasharray:none"
         sodipodi:type="arc" />
      <path
         transform="translate(-73.317619,13.651927)"
         d="m 582.85713,216.6479 a 170.71428,120 0 1 1 -341.42856,0 170.71428,120 0 1 1 341.42856,0 z"
         sodipodi:ry="120"
         sodipodi:rx="170.71428"
         sodipodi:cy="216.6479"
         sodipodi:cx="412.14285"
         id="path3037"
         style="fill:#ffffff;fill-opacity:1;stroke:#000000;stroke-width:7.19999981;stroke-miterlimit:4;stroke-opacity:1;stroke-dasharray:none"
         sodipodi:type="arc" />
      <path
         transform="matrix(0.19301478,0,0,0.19301478,149.34431,302.90803)"
         d="m 434.3656,488.19199 a 86.368042,86.368042 0 1 1 -172.73608,0 86.368042,86.368042 0 1 1 172.73608,0 z"
         sodipodi:ry="86.368042"
         sodipodi:rx="86.368042"
         sodipodi:cy="488.19199"
         sodipodi:cx="347.99756"
         id="path2985-1-3-2"
         style="fill:#ffffff;fill-opacity:1;stroke:#000000;stroke-width:8.07532787;stroke-miterlimit:4;stroke-opacity:1;stroke-dasharray:none"
         sodipodi:type="arc" />
      <path
         transform="matrix(0.10610497,0,0,0.10610497,219.04414,375.60284)"
         d="m 434.3656,488.19199 a 86.368042,86.368042 0 1 1 -172.73608,0 86.368042,86.368042 0 1 1 172.73608,0 z"
         sodipodi:ry="86.368042"
         sodipodi:rx="86.368042"
         sodipodi:cy="488.19199"
         sodipodi:cx="347.99756"
         id="path2985-1-3-8"
         style="fill:#ffffff;fill-opacity:1;stroke:#000000;stroke-width:8.07532787;stroke-miterlimit:4;stroke-opacity:1;stroke-dasharray:none"
         sodipodi:type="arc" />
      <path
         inkscape:connector-curvature="0"
         id="rect3832"
         d="m 220.61011,542.94371 c 4.43491,11.95974 17.75112,23.05805 28.29657,19.1476 l 0.0376,-0.014 c 2.11693,-0.78499 3.9972,-1.93514 5.63028,-3.35731 l -13.42907,-36.21457 c -0.0395,-0.0197 -0.081,-0.0352 -0.12029,-0.0553 -2.67596,-1.36806 -5.23081,-3.15416 -7.599,-5.29834 -2.36819,-2.14418 -4.53884,-4.64702 -6.43581,-7.46987 -1.89697,-2.82285 -3.52296,-5.9616 -4.78527,-9.36569 -1.2623,-3.40409 -2.07586,-6.84411 -2.47797,-10.22128 -0.4021,-3.37717 -0.38809,-6.69014 0.01,-9.85996 0.39764,-3.16981 1.17031,-6.1898 2.30734,-8.9718 0.0165,-0.0411 0.0382,-0.0796 0.0553,-0.12029 l -14.22888,-38.37141 c -2.09049,0.0125 -4.18196,0.3811 -6.22478,1.13863 l -0.0377,0.0139 c -10.54544,3.91046 -13.45808,21.48321 -9.02317,33.44295 l 28.02529,75.5766 z m 36.13744,13.55842 c 0.90902,-1.09991 1.69889,-2.30048 2.36428,-3.58688 l -9.79608,-27.6483 c -1.54995,-0.27176 -3.08946,-0.68779 -4.60694,-1.23003 l 12.03874,32.46521 z M 223.8026,467.65854 c 0.79706,-1.40051 1.69313,-2.71969 2.69115,-3.9363 L 215.32852,434.2281 c -1.4203,-0.57261 -2.8842,-0.98046 -4.37375,-1.21666 l 12.84783,34.6471 z"
         style="fill:#000000;fill-opacity:1;stroke:none" />
      <g
         transform="matrix(2.3226441,0.82769192,-0.82769192,2.3226441,-787.56215,-1228.2188)"
         id="g4163">
        <path
           id="rect2987"
           d="m 449.32396,574.04962 7.96087,0 c 2.01705,0 3.64088,1.62384 3.64088,3.64089 l 0,28.03481 c 0,2.01705 -1.62383,3.64089 -3.64088,3.64089 l -7.96087,0 c -2.01705,0 -3.64089,-1.62384 -3.64089,-3.64089 l 0,-28.03481 c 0,-2.01705 1.62384,-3.64089 3.64089,-3.64089 z"
           style="fill:#000000;fill-opacity:1;stroke:none"
           transform="matrix(0.94027555,-0.34041429,0.34041429,0.94027555,0,0)" />
        <g
           id="g3100"
           transform="matrix(0.17959788,-0.06502103,0.06502103,0.17959788,524.05807,319.66414)">
          <path
             id="path2985-2"
             d="m 407.14286,427.36218 c 0,23.27486 -18.868,42.14286 -42.14286,42.14286 -23.27486,0 -42.14286,-18.868 -42.14286,-42.14286 0,-23.27485 18.868,-42.14285 42.14286,-42.14285 23.27486,0 42.14286,18.868 42.14286,42.14285 z"
             style="fill:#000000;fill-opacity:1;stroke:none" />
          <path
             sodipodi:nodetypes="ssscssssscsss"
             inkscape:connector-curvature="0"
             id="rect2989"
             d="m 554.55452,251.20299 c 3.49765,0 6.65438,1.4079 8.93669,3.69021 2.28232,2.28232 3.69022,5.43904 3.69022,8.93669 l -3.95296,102.78859 c 0,0 -2.72594,15.64446 -7.08345,18.95953 -1.10155,0.83802 -12.50979,-0.1605 -17.843,-1.59172 -3.11738,-0.83658 -11.18593,-5.00878 -13.28465,-5.62452 -3.35618,-0.98467 -51.83138,-32.98776 -53.13392,-34.71977 -16.77789,-22.30987 7.94805,-18.10672 11.7866,-16.06873 l 55.731,29.58904 2.52656,-93.33242 c 0.0947,-3.49637 1.4079,-6.65437 3.69021,-8.93669 2.28232,-2.28231 5.43905,-3.69021 8.9367,-3.69021 z"
             style="fill:#000000;fill-opacity:1;stroke:none"
             transform="matrix(0.85563526,0.51757927,-0.51757927,0.85563526,0,0)" />
          <path
             id="rect2989-3"
             d="m -66.855271,626.91046 c 6.995306,0 12.626906,5.6316 12.626906,12.62691 l 0,177.78685 c 0,6.99531 -5.6316,12.62691 -12.626906,12.62691 -6.995306,0 -12.626907,-5.6316 -12.626907,-12.62691 l 0,-177.78685 c 0,-6.99531 5.631601,-12.62691 12.626907,-12.62691 z"
             style="fill:#000000;fill-opacity:1;stroke:none"
             transform="matrix(-0.85563526,0.51757927,0.51757927,0.85563526,0,0)" />
          <path
             sodipodi:nodetypes="cccc"
             inkscape:connector-curvature="0"
             id="path3045"
             d="M 473.40991,683.9064 257.31758,682.58181 361.94275,506.29036 z"
             inkscape:transform-center-y="-22.982919"
             inkscape:transform-center-x="-0.27192237"
             style="fill:#000000;fill-opacity:1;stroke:none" />
          <path
             id="rect3050"
             d="m 337.85359,497.28336 52.77351,0 c 10.31667,0 18.62214,8.30547 18.62214,18.62214 l 0,4.17196 c 0,10.31667 -8.30547,18.62215 -18.62214,18.62215 l -52.77351,0 c -10.31667,0 -18.62214,-8.30548 -18.62214,-18.62215 l 0,-4.17196 c 0,-10.31667 8.30547,-18.62214 18.62214,-18.62214 z"
             style="fill:#000000;fill-opacity:1;stroke:none" />
          <path
             id="rect3052"
             d="m 380.18935,556.89972 c 7.83474,0 14.14213,7.36542 14.14213,16.5144 l 0,222.94442 c 0,9.14898 -6.30739,16.5144 -14.14213,16.5144 -7.83475,0 -14.14214,-7.36542 -14.14214,-16.5144 l 0,-222.94442 c 0,-9.14898 6.30739,-16.5144 14.14214,-16.5144 z"
             style="fill:#000000;fill-opacity:1;stroke:none" />
          <path
             id="rect3052-2"
             d="m 346.53773,558.159 c 7.83475,0 14.14214,7.31142 14.14214,16.39332 l 0,221.30985 c 0,9.0819 -6.30739,16.39332 -14.14214,16.39332 -7.83474,0 -14.14213,-7.31142 -14.14213,-16.39332 l 0,-221.30985 c 0,-9.0819 6.30739,-16.39332 14.14213,-16.39332 z"
             style="fill:#000000;fill-opacity:1;stroke:none" />
          <path
             inkscape:connector-curvature="0"
             id="path3078"
             d="m 344.22625,812.0048 c -5.51215,-1.10561 -9.90741,-5.7362 -11.30967,-11.91522 -0.36334,-1.60107 -0.5908,-4.63947 -0.53543,-7.15247 0.0369,-1.6741 0.0474,-1.73766 0.19879,-1.19955 1.12662,4.00479 3.74732,7.13376 7.4142,8.85212 1.8383,0.86145 3.17902,1.14345 5.78789,1.21738 2.38823,0.0677 3.50386,-0.0411 5.07335,-0.49451 5.26501,-1.52114 9.04751,-6.0075 9.6555,-11.45221 0.0703,-0.62988 0.0955,0.6768 0.0727,3.77125 -0.0379,5.14678 -0.10648,5.77649 -0.88506,8.1316 -1.56663,4.73886 -5.21872,8.57802 -9.39356,9.87472 -1.78626,0.55481 -4.36563,0.71049 -6.07873,0.36689 z"
             style="fill:#ff0000;fill-opacity:1;stroke:none" />
          <path
             inkscape:connector-curvature="0"
             id="path3098"
             d="m 378.14653,812.6637 c -4.9942,-0.89509 -9.08263,-4.61233 -10.97616,-9.97963 -0.56245,-1.59429 -0.86148,-3.04638 -1.0139,-4.92338 -0.16046,-1.97607 -0.1555,-8.64996 0.005,-7.39443 0.77478,6.04203 5.26455,10.70677 11.23749,11.67544 1.5242,0.24719 4.26374,0.24709 5.78866,-2.2e-4 5.28935,-0.8578 9.53188,-4.74751 10.87497,-9.97059 l 0.22729,-0.88389 0.009,3.09691 c 0.012,3.99684 -0.17491,5.56871 -0.95302,8.01477 -1.59571,5.01622 -5.57424,8.99955 -10.14936,10.16159 -1.36334,0.34627 -3.72337,0.44133 -5.05076,0.20343 l 0,0 z"
             style="fill:#ff0000;fill-opacity:1;stroke:none" />
        </g>
      </g>
    </g>
  </g>
</svg>
