<?xml version="1.0" encoding="UTF-8" standalone="no"?>
<!-- Created with Inkscape (http://www.inkscape.org/) -->

<svg
   xmlns:dc="http://purl.org/dc/elements/1.1/"
   xmlns:cc="http://creativecommons.org/ns#"
   xmlns:rdf="http://www.w3.org/1999/02/22-rdf-syntax-ns#"
   xmlns:svg="http://www.w3.org/2000/svg"
   xmlns="http://www.w3.org/2000/svg"
   xmlns:xlink="http://www.w3.org/1999/xlink"
   xmlns:sodipodi="http://sodipodi.sourceforge.net/DTD/sodipodi-0.dtd"
   xmlns:inkscape="http://www.inkscape.org/namespaces/inkscape"
   width="744.09448819"
   height="1052.3622047"
   id="svg2"
   version="1.1"
   inkscape:version="0.48.4 r9939"
   sodipodi:docname="6-joke.svg">
  <defs
     id="defs4">
    <path
       style="fill:none;stroke:#000000;stroke-width:1px;stroke-linecap:butt;stroke-linejoin:miter;stroke-opacity:1"
       d="m 129.87745,233.84512 c 1.66438,-0.0355 1.49354,-2.88962 2.85714,-3.57142 0.21296,-0.10648 0.54593,0.16835 0.71429,0 0.16836,-0.16836 -0.10648,-0.50133 0,-0.71429 0.30117,-0.60234 1.1274,-0.82623 1.42857,-1.42857 0.10648,-0.21296 -0.16836,-0.54593 0,-0.71429 0.16836,-0.16836 0.50133,0.10648 0.71429,0 0.30117,-0.15058 0.41311,-0.5637 0.71428,-0.71428 0.21296,-0.10648 0.50133,0.10648 0.71429,0 0.30117,-0.15059 0.41312,-0.5637 0.71428,-0.71429 0.7604,-0.3802 0.66818,0.3802 1.42858,0 0.30117,-0.15058 0.41311,-0.5637 0.71428,-0.71428 0.45062,-0.22532 3.12081,0.22531 3.57143,0 0.30117,-0.15059 0.41312,-0.56371 0.71429,-0.71429 0.21296,-0.10648 0.47619,0 0.71428,0 0.2381,0 0.47619,0 0.71429,0 1.42857,0 2.85714,0 4.28571,0 0.2381,0 0.47619,0 0.71429,0 0.23809,0 0.54592,-0.16836 0.71428,0 0.16836,0.16836 -0.16836,0.54593 0,0.71429 0.16836,0.16835 0.54593,-0.16836 0.71429,0 0.16836,0.16835 -0.16836,0.54592 0,0.71428 0.35714,0.35714 1.78571,-0.35714 2.14286,0 0.16836,0.16836 -0.16836,0.54593 0,0.71429 0.33671,0.33671 1.00265,-0.21296 1.42857,0 0.30117,0.15058 0.41311,0.5637 0.71428,0.71428 0.21296,0.10648 0.47619,0 0.71429,0 0.23809,0.2381 0.41312,0.5637 0.71428,0.71429 0.42592,0.21296 1.09186,-0.33672 1.42858,0 0.16836,0.16836 -0.16836,0.54593 0,0.71428 0.35714,0.35715 1.78571,-0.35714 2.14285,0 0.16836,0.16836 -0.16836,0.54593 0,0.71429 0.33672,0.33672 1.00266,-0.21296 1.42857,0 0.30117,0.15058 0.41312,0.5637 0.71429,0.71429 0.21296,0.10647 0.50133,-0.10648 0.71429,0 0.30117,0.15058 0.41311,0.5637 0.71428,0.71428 0.21296,0.10648 0.54593,-0.16836 0.71429,0 0.16836,0.16836 -0.16836,0.54593 0,0.71429 0.16836,0.16836 0.54592,-0.16836 0.71428,0 0.16836,0.16836 0,0.47619 0,0.71428 0.2381,0 0.54593,-0.16836 0.71429,0 0.16836,0.16836 -0.10648,0.50133 0,0.71429 0.15058,0.30117 0.5637,0.41311 0.71428,0.71428 0.10648,0.21296 -0.16835,0.54593 0,0.71429 0.16836,0.16836 0.54593,-0.16836 0.71429,0 0.16836,0.16836 -0.10648,0.50133 0,0.71429 0.35144,0.70287 2.5057,2.15426 2.85714,2.85714 0.10648,0.21296 -0.16836,0.54593 0,0.71428 0.16836,0.16836 0.50133,-0.10648 0.71429,0 0.30117,0.15059 0.41312,0.56371 0.71428,0.71429 0.21296,0.10648 0.54593,-0.16836 0.71429,0 0.16836,0.16836 -0.16836,0.54593 0,0.71429 0.33672,0.33671 1.42857,-0.4762 1.42857,0 0,0.23809 -0.71428,-0.2381 -0.71428,0 0,0.23031 1.23013,1.03168 1.42857,1.42857 0.10648,0.21296 -0.10648,0.50132 0,0.71428 0.15058,0.30117 0.5637,0.41312 0.71428,0.71429 0.21296,0.42592 -0.33671,1.09185 0,1.42857 0.16836,0.16836 0.54593,-0.16836 0.71429,0 0.16836,0.16836 -0.16836,0.54593 0,0.71429 0.16836,0.16835 0.54593,-0.16836 0.71428,0 0.35715,0.35714 -0.35714,1.78571 0,2.14285 0.16836,0.16836 0.4762,0 0.71429,0 0,0.2381 -0.10648,0.50133 0,0.71429 0.15059,0.30117 0.95238,0.47619 0.71429,0.71428 -0.2381,0.2381 -0.47619,-0.47619 -0.71429,-0.71428"
       id="path3894-1"
       inkscape:connector-curvature="0" />
    <path
       style="fill:none;stroke:#000000;stroke-width:1px;stroke-linecap:butt;stroke-linejoin:miter;stroke-opacity:1"
       d="m 129.87745,233.84512 c 1.66438,-0.0355 1.49354,-2.88962 2.85714,-3.57142 0.21296,-0.10648 0.54593,0.16835 0.71429,0 0.16836,-0.16836 -0.10648,-0.50133 0,-0.71429 0.30117,-0.60234 1.1274,-0.82623 1.42857,-1.42857 0.10648,-0.21296 -0.16836,-0.54593 0,-0.71429 0.16836,-0.16836 0.50133,0.10648 0.71429,0 0.30117,-0.15058 0.41311,-0.5637 0.71428,-0.71428 0.21296,-0.10648 0.50133,0.10648 0.71429,0 0.30117,-0.15059 0.41312,-0.5637 0.71428,-0.71429 0.7604,-0.3802 0.66818,0.3802 1.42858,0 0.30117,-0.15058 0.41311,-0.5637 0.71428,-0.71428 0.45062,-0.22532 3.12081,0.22531 3.57143,0 0.30117,-0.15059 0.41312,-0.56371 0.71429,-0.71429 0.21296,-0.10648 0.47619,0 0.71428,0 0.2381,0 0.47619,0 0.71429,0 1.42857,0 2.85714,0 4.28571,0 0.2381,0 0.47619,0 0.71429,0 0.23809,0 0.54592,-0.16836 0.71428,0 0.16836,0.16836 -0.16836,0.54593 0,0.71429 0.16836,0.16835 0.54593,-0.16836 0.71429,0 0.16836,0.16835 -0.16836,0.54592 0,0.71428 0.35714,0.35714 1.78571,-0.35714 2.14286,0 0.16836,0.16836 -0.16836,0.54593 0,0.71429 0.33671,0.33671 1.00265,-0.21296 1.42857,0 0.30117,0.15058 0.41311,0.5637 0.71428,0.71428 0.21296,0.10648 0.47619,0 0.71429,0 0.23809,0.2381 0.41312,0.5637 0.71428,0.71429 0.42592,0.21296 1.09186,-0.33672 1.42858,0 0.16836,0.16836 -0.16836,0.54593 0,0.71428 0.35714,0.35715 1.78571,-0.35714 2.14285,0 0.16836,0.16836 -0.16836,0.54593 0,0.71429 0.33672,0.33672 1.00266,-0.21296 1.42857,0 0.30117,0.15058 0.41312,0.5637 0.71429,0.71429 0.21296,0.10647 0.50133,-0.10648 0.71429,0 0.30117,0.15058 0.41311,0.5637 0.71428,0.71428 0.21296,0.10648 0.54593,-0.16836 0.71429,0 0.16836,0.16836 -0.16836,0.54593 0,0.71429 0.16836,0.16836 0.54592,-0.16836 0.71428,0 0.16836,0.16836 0,0.47619 0,0.71428 0.2381,0 0.54593,-0.16836 0.71429,0 0.16836,0.16836 -0.10648,0.50133 0,0.71429 0.15058,0.30117 0.5637,0.41311 0.71428,0.71428 0.10648,0.21296 -0.16835,0.54593 0,0.71429 0.16836,0.16836 0.54593,-0.16836 0.71429,0 0.16836,0.16836 -0.10648,0.50133 0,0.71429 0.35144,0.70287 2.5057,2.15426 2.85714,2.85714 0.10648,0.21296 -0.16836,0.54593 0,0.71428 0.16836,0.16836 0.50133,-0.10648 0.71429,0 0.30117,0.15059 0.41312,0.56371 0.71428,0.71429 0.21296,0.10648 0.54593,-0.16836 0.71429,0 0.16836,0.16836 -0.16836,0.54593 0,0.71429 0.33672,0.33671 1.42857,-0.4762 1.42857,0 0,0.23809 -0.71428,-0.2381 -0.71428,0 0,0.23031 1.23013,1.03168 1.42857,1.42857 0.10648,0.21296 -0.10648,0.50132 0,0.71428 0.15058,0.30117 0.5637,0.41312 0.71428,0.71429 0.21296,0.42592 -0.33671,1.09185 0,1.42857 0.16836,0.16836 0.54593,-0.16836 0.71429,0 0.16836,0.16836 -0.16836,0.54593 0,0.71429 0.16836,0.16835 0.54593,-0.16836 0.71428,0 0.35715,0.35714 -0.35714,1.78571 0,2.14285 0.16836,0.16836 0.4762,0 0.71429,0 0,0.2381 -0.10648,0.50133 0,0.71429 0.15059,0.30117 0.95238,0.47619 0.71429,0.71428 -0.2381,0.2381 -0.47619,-0.47619 -0.71429,-0.71428"
       id="path3894-9"
       inkscape:connector-curvature="0" />
    <path
       style="fill:none;stroke:#000000;stroke-width:1px;stroke-linecap:butt;stroke-linejoin:miter;stroke-opacity:1"
       d="m 129.87745,233.84512 c 1.66438,-0.0355 1.49354,-2.88962 2.85714,-3.57142 0.21296,-0.10648 0.54593,0.16835 0.71429,0 0.16836,-0.16836 -0.10648,-0.50133 0,-0.71429 0.30117,-0.60234 1.1274,-0.82623 1.42857,-1.42857 0.10648,-0.21296 -0.16836,-0.54593 0,-0.71429 0.16836,-0.16836 0.50133,0.10648 0.71429,0 0.30117,-0.15058 0.41311,-0.5637 0.71428,-0.71428 0.21296,-0.10648 0.50133,0.10648 0.71429,0 0.30117,-0.15059 0.41312,-0.5637 0.71428,-0.71429 0.7604,-0.3802 0.66818,0.3802 1.42858,0 0.30117,-0.15058 0.41311,-0.5637 0.71428,-0.71428 0.45062,-0.22532 3.12081,0.22531 3.57143,0 0.30117,-0.15059 0.41312,-0.56371 0.71429,-0.71429 0.21296,-0.10648 0.47619,0 0.71428,0 0.2381,0 0.47619,0 0.71429,0 1.42857,0 2.85714,0 4.28571,0 0.2381,0 0.47619,0 0.71429,0 0.23809,0 0.54592,-0.16836 0.71428,0 0.16836,0.16836 -0.16836,0.54593 0,0.71429 0.16836,0.16835 0.54593,-0.16836 0.71429,0 0.16836,0.16835 -0.16836,0.54592 0,0.71428 0.35714,0.35714 1.78571,-0.35714 2.14286,0 0.16836,0.16836 -0.16836,0.54593 0,0.71429 0.33671,0.33671 1.00265,-0.21296 1.42857,0 0.30117,0.15058 0.41311,0.5637 0.71428,0.71428 0.21296,0.10648 0.47619,0 0.71429,0 0.23809,0.2381 0.41312,0.5637 0.71428,0.71429 0.42592,0.21296 1.09186,-0.33672 1.42858,0 0.16836,0.16836 -0.16836,0.54593 0,0.71428 0.35714,0.35715 1.78571,-0.35714 2.14285,0 0.16836,0.16836 -0.16836,0.54593 0,0.71429 0.33672,0.33672 1.00266,-0.21296 1.42857,0 0.30117,0.15058 0.41312,0.5637 0.71429,0.71429 0.21296,0.10647 0.50133,-0.10648 0.71429,0 0.30117,0.15058 0.41311,0.5637 0.71428,0.71428 0.21296,0.10648 0.54593,-0.16836 0.71429,0 0.16836,0.16836 -0.16836,0.54593 0,0.71429 0.16836,0.16836 0.54592,-0.16836 0.71428,0 0.16836,0.16836 0,0.47619 0,0.71428 0.2381,0 0.54593,-0.16836 0.71429,0 0.16836,0.16836 -0.10648,0.50133 0,0.71429 0.15058,0.30117 0.5637,0.41311 0.71428,0.71428 0.10648,0.21296 -0.16835,0.54593 0,0.71429 0.16836,0.16836 0.54593,-0.16836 0.71429,0 0.16836,0.16836 -0.10648,0.50133 0,0.71429 0.35144,0.70287 2.5057,2.15426 2.85714,2.85714 0.10648,0.21296 -0.16836,0.54593 0,0.71428 0.16836,0.16836 0.50133,-0.10648 0.71429,0 0.30117,0.15059 0.41312,0.56371 0.71428,0.71429 0.21296,0.10648 0.54593,-0.16836 0.71429,0 0.16836,0.16836 -0.16836,0.54593 0,0.71429 0.33672,0.33671 1.42857,-0.4762 1.42857,0 0,0.23809 -0.71428,-0.2381 -0.71428,0 0,0.23031 1.23013,1.03168 1.42857,1.42857 0.10648,0.21296 -0.10648,0.50132 0,0.71428 0.15058,0.30117 0.5637,0.41312 0.71428,0.71429 0.21296,0.42592 -0.33671,1.09185 0,1.42857 0.16836,0.16836 0.54593,-0.16836 0.71429,0 0.16836,0.16836 -0.16836,0.54593 0,0.71429 0.16836,0.16835 0.54593,-0.16836 0.71428,0 0.35715,0.35714 -0.35714,1.78571 0,2.14285 0.16836,0.16836 0.4762,0 0.71429,0 0,0.2381 -0.10648,0.50133 0,0.71429 0.15059,0.30117 0.95238,0.47619 0.71429,0.71428 -0.2381,0.2381 -0.47619,-0.47619 -0.71429,-0.71428"
       id="path3894-9-1"
       inkscape:connector-curvature="0" />
    <path
       style="fill:none;stroke:#000000;stroke-width:1px;stroke-linecap:butt;stroke-linejoin:miter;stroke-opacity:1"
       d="m 129.87745,233.84512 c 1.66438,-0.0355 1.49354,-2.88962 2.85714,-3.57142 0.21296,-0.10648 0.54593,0.16835 0.71429,0 0.16836,-0.16836 -0.10648,-0.50133 0,-0.71429 0.30117,-0.60234 1.1274,-0.82623 1.42857,-1.42857 0.10648,-0.21296 -0.16836,-0.54593 0,-0.71429 0.16836,-0.16836 0.50133,0.10648 0.71429,0 0.30117,-0.15058 0.41311,-0.5637 0.71428,-0.71428 0.21296,-0.10648 0.50133,0.10648 0.71429,0 0.30117,-0.15059 0.41312,-0.5637 0.71428,-0.71429 0.7604,-0.3802 0.66818,0.3802 1.42858,0 0.30117,-0.15058 0.41311,-0.5637 0.71428,-0.71428 0.45062,-0.22532 3.12081,0.22531 3.57143,0 0.30117,-0.15059 0.41312,-0.56371 0.71429,-0.71429 0.21296,-0.10648 0.47619,0 0.71428,0 0.2381,0 0.47619,0 0.71429,0 1.42857,0 2.85714,0 4.28571,0 0.2381,0 0.47619,0 0.71429,0 0.23809,0 0.54592,-0.16836 0.71428,0 0.16836,0.16836 -0.16836,0.54593 0,0.71429 0.16836,0.16835 0.54593,-0.16836 0.71429,0 0.16836,0.16835 -0.16836,0.54592 0,0.71428 0.35714,0.35714 1.78571,-0.35714 2.14286,0 0.16836,0.16836 -0.16836,0.54593 0,0.71429 0.33671,0.33671 1.00265,-0.21296 1.42857,0 0.30117,0.15058 0.41311,0.5637 0.71428,0.71428 0.21296,0.10648 0.47619,0 0.71429,0 0.23809,0.2381 0.41312,0.5637 0.71428,0.71429 0.42592,0.21296 1.09186,-0.33672 1.42858,0 0.16836,0.16836 -0.16836,0.54593 0,0.71428 0.35714,0.35715 1.78571,-0.35714 2.14285,0 0.16836,0.16836 -0.16836,0.54593 0,0.71429 0.33672,0.33672 1.00266,-0.21296 1.42857,0 0.30117,0.15058 0.41312,0.5637 0.71429,0.71429 0.21296,0.10647 0.50133,-0.10648 0.71429,0 0.30117,0.15058 0.41311,0.5637 0.71428,0.71428 0.21296,0.10648 0.54593,-0.16836 0.71429,0 0.16836,0.16836 -0.16836,0.54593 0,0.71429 0.16836,0.16836 0.54592,-0.16836 0.71428,0 0.16836,0.16836 0,0.47619 0,0.71428 0.2381,0 0.54593,-0.16836 0.71429,0 0.16836,0.16836 -0.10648,0.50133 0,0.71429 0.15058,0.30117 0.5637,0.41311 0.71428,0.71428 0.10648,0.21296 -0.16835,0.54593 0,0.71429 0.16836,0.16836 0.54593,-0.16836 0.71429,0 0.16836,0.16836 -0.10648,0.50133 0,0.71429 0.35144,0.70287 2.5057,2.15426 2.85714,2.85714 0.10648,0.21296 -0.16836,0.54593 0,0.71428 0.16836,0.16836 0.50133,-0.10648 0.71429,0 0.30117,0.15059 0.41312,0.56371 0.71428,0.71429 0.21296,0.10648 0.54593,-0.16836 0.71429,0 0.16836,0.16836 -0.16836,0.54593 0,0.71429 0.33672,0.33671 1.42857,-0.4762 1.42857,0 0,0.23809 -0.71428,-0.2381 -0.71428,0 0,0.23031 1.23013,1.03168 1.42857,1.42857 0.10648,0.21296 -0.10648,0.50132 0,0.71428 0.15058,0.30117 0.5637,0.41312 0.71428,0.71429 0.21296,0.42592 -0.33671,1.09185 0,1.42857 0.16836,0.16836 0.54593,-0.16836 0.71429,0 0.16836,0.16836 -0.16836,0.54593 0,0.71429 0.16836,0.16835 0.54593,-0.16836 0.71428,0 0.35715,0.35714 -0.35714,1.78571 0,2.14285 0.16836,0.16836 0.4762,0 0.71429,0 0,0.2381 -0.10648,0.50133 0,0.71429 0.15059,0.30117 0.95238,0.47619 0.71429,0.71428 -0.2381,0.2381 -0.47619,-0.47619 -0.71429,-0.71428"
       id="path3894-9-2"
       inkscape:connector-curvature="0" />
  </defs>
  <sodipodi:namedview
     id="base"
     pagecolor="#ffffff"
     bordercolor="#666666"
     borderopacity="1.0"
     inkscape:pageopacity="0.0"
     inkscape:pageshadow="2"
     inkscape:zoom="0.7"
     inkscape:cx="147.27756"
     inkscape:cy="605.53026"
     inkscape:document-units="px"
     inkscape:current-layer="layer1"
     showgrid="false"
     inkscape:window-width="1280"
     inkscape:window-height="739"
     inkscape:window-x="0"
     inkscape:window-y="0"
     inkscape:window-maximized="1" />
  <metadata
     id="metadata7">
    <rdf:RDF>
      <cc:Work
         rdf:about="">
        <dc:format>image/svg+xml</dc:format>
        <dc:type
           rdf:resource="http://purl.org/dc/dcmitype/StillImage" />
        <dc:title></dc:title>
      </cc:Work>
    </rdf:RDF>
  </metadata>
  <g
     inkscape:label="Layer 1"
     inkscape:groupmode="layer"
     id="layer1">
    <g
       id="g4030"
       inkscape:export-filename="/home/hugocm93/Desktop/6-joke.png"
       inkscape:export-xdpi="90"
       inkscape:export-ydpi="90">
      <path
         transform="translate(-1.0101525,-10.980416)"
         d="m 434.3656,488.19199 a 86.368042,86.368042 0 1 1 -172.73608,0 86.368042,86.368042 0 1 1 172.73608,0 z"
         sodipodi:ry="86.368042"
         sodipodi:rx="86.368042"
         sodipodi:cy="488.19199"
         sodipodi:cx="347.99756"
         id="path2985"
         style="fill:#000000;fill-opacity:1;stroke:none"
         sodipodi:type="arc" />
      <path
         id="path2987"
         d="m 352.53125,590.71875 c -92.93364,0 -168.38684,32.0193 -169.65625,71.71875 l 339.34375,0 c -1.26941,-39.69945 -76.75386,-71.71875 -169.6875,-71.71875 z"
         style="fill:#000000;fill-opacity:1;stroke:none"
         inkscape:connector-curvature="0" />
      <path
         sodipodi:nodetypes="cscsssc"
         inkscape:connector-curvature="0"
         id="path3040"
         d="m 416.86189,477.9291 c -8.85028,20.48368 -45.78291,29.46211 -71.75182,29.46211 -23.85484,0 -59.039,-8.98721 -69.10511,-26.85995 -0.26099,2.20424 -0.40625,4.44431 -0.40625,6.71875 0,31.24054 39.61204,60.88847 70.85258,60.88847 31.24053,0 71.56685,-27.37509 71.56685,-58.61563 0,-3.97125 -0.37765,-7.85354 -1.15625,-11.59375 z"
         style="fill:#ffffff;fill-opacity:1;stroke:none" />
      <path
         transform="translate(-7.576144,-4.0406102)"
         d="m 335.87572,450.81635 a 8.3337584,14.647212 0 1 1 -16.66752,0 8.3337584,14.647212 0 1 1 16.66752,0 z"
         sodipodi:ry="14.647212"
         sodipodi:rx="8.3337584"
         sodipodi:cy="450.81635"
         sodipodi:cx="327.54196"
         id="path3864"
         style="fill:#ffffff;fill-opacity:1;stroke:#ffffff;stroke-width:2.02200007;stroke-miterlimit:4;stroke-opacity:1;stroke-dasharray:none"
         sodipodi:type="arc" />
      <path
         transform="translate(39.648486,-5.0507624)"
         d="m 335.87572,450.81635 a 8.3337584,14.647212 0 1 1 -16.66752,0 8.3337584,14.647212 0 1 1 16.66752,0 z"
         sodipodi:ry="14.647212"
         sodipodi:rx="8.3337584"
         sodipodi:cy="450.81635"
         sodipodi:cx="327.54196"
         id="path3864-3"
         style="fill:#ffffff;fill-opacity:1;stroke:#ffffff;stroke-width:2.02200007;stroke-miterlimit:4;stroke-opacity:1;stroke-dasharray:none"
         sodipodi:type="arc" />
      <g
         transform="matrix(1.1339448,0,0,1.1339448,-105.24465,-88.816305)"
         id="g3088">
        <g
           transform="matrix(1.0559799,0,0,1.0559799,-451.72977,4.1456839)"
           id="g3860">
          <path
             transform="translate(372.74265,-24.6802)"
             d="m 434.3656,488.19199 c 0,47.69975 -38.66829,86.36804 -86.36804,86.36804 -47.69975,0 -86.36804,-38.66829 -86.36804,-86.36804 0,-47.69976 38.66829,-86.36805 86.36804,-86.36805 47.69975,0 86.36804,38.66829 86.36804,86.36805 z"
             sodipodi:ry="86.368042"
             sodipodi:rx="86.368042"
             sodipodi:cy="488.19199"
             sodipodi:cx="347.99756"
             id="path2985-8"
             style="fill:#000000;fill-opacity:1;stroke:#ffffff;stroke-width:1.8020618;stroke-miterlimit:4;stroke-opacity:1;stroke-dasharray:none"
             sodipodi:type="arc" />
          <path
             id="path2987-4"
             d="m 726.28405,577.01896 c -92.93364,0 -168.38684,32.0193 -169.65625,71.71875 l 339.34375,0 c -1.26941,-39.69945 -76.75386,-71.71875 -169.6875,-71.71875 z"
             style="fill:#000000;fill-opacity:1;stroke:#ffffff;stroke-width:1.8020618;stroke-miterlimit:4;stroke-opacity:1;stroke-dasharray:none"
             inkscape:connector-curvature="0" />
        </g>
      </g>
      <text
         transform="matrix(1.0530513,-0.95683609,0.76165856,0.83824758,-152.48156,299.25628)"
         sodipodi:linespacing="125%"
         id="text3896-2"
         style="font-size:40px;font-style:normal;font-variant:normal;font-weight:normal;font-stretch:normal;text-align:start;line-height:125%;letter-spacing:0px;word-spacing:0px;writing-mode:lr-tb;text-anchor:start;fill:#ff0000;fill-opacity:1;stroke:none;font-family:Purisa;-inkscape-font-specification:Purisa"
         xml:space="preserve"><textPath
           id="textPath3902-4"
           xlink:href="#path3894-1"><tspan
   style="fill:#ff0000"
   id="tspan3898-5"><tspan
     style="fill:#ff0000"
     x="407.14285"
     y="302.35028"
     id="tspan3900-9">HA!</tspan></tspan></textPath></text>
      <text
         transform="matrix(1.1552301,0.14987015,-0.25027415,1.0302442,195.97648,93.547451)"
         sodipodi:linespacing="125%"
         id="text3896-7"
         style="font-size:40px;font-style:normal;font-variant:normal;font-weight:normal;font-stretch:normal;text-align:start;line-height:125%;letter-spacing:0px;word-spacing:0px;writing-mode:lr-tb;text-anchor:start;fill:#ff0000;fill-opacity:1;stroke:none;font-family:Purisa;-inkscape-font-specification:Purisa"
         xml:space="preserve"><textPath
           id="textPath3902-0"
           xlink:href="#path3894-9"><tspan
   style="fill:#ff0000"
   id="tspan3898-55"><tspan
     style="fill:#ff0000"
     x="407.14285"
     y="302.35028"
     id="tspan3900-8">HA!</tspan></tspan></textPath></text>
      <text
         transform="matrix(0.61842736,-0.12606731,0.12558272,0.61605018,-13.11828,345.86275)"
         sodipodi:linespacing="125%"
         id="text3896-7-8"
         style="font-size:40px;font-style:normal;font-variant:normal;font-weight:normal;font-stretch:normal;text-align:start;line-height:125%;letter-spacing:0px;word-spacing:0px;writing-mode:lr-tb;text-anchor:start;fill:#ff0000;fill-opacity:1;stroke:none;font-family:Purisa;-inkscape-font-specification:Purisa"
         xml:space="preserve"><textPath
           id="textPath3902-0-3"
           xlink:href="#path3894-9-1"><tspan
   style="fill:#ff0000"
   id="tspan3898-55-1"><tspan
     style="fill:#ff0000"
     x="407.14285"
     y="302.35028"
     id="tspan3900-8-3">HA!</tspan></tspan></textPath></text>
      <text
         transform="matrix(0.57123214,0.26840122,-0.26736951,0.56903637,412.53925,160.84385)"
         sodipodi:linespacing="125%"
         id="text3896-7-1"
         style="font-size:40px;font-style:normal;font-variant:normal;font-weight:normal;font-stretch:normal;text-align:start;line-height:125%;letter-spacing:0px;word-spacing:0px;writing-mode:lr-tb;text-anchor:start;fill:#ff0000;fill-opacity:1;stroke:none;font-family:Purisa;-inkscape-font-specification:Purisa"
         xml:space="preserve"><textPath
           id="textPath3902-0-9"
           xlink:href="#path3894-9-2"><tspan
   style="fill:#ff0000"
   id="tspan3898-55-8"><tspan
     style="fill:#ff0000"
     x="407.14285"
     y="302.35028"
     id="tspan3900-8-38">HA!</tspan></tspan></textPath></text>
    </g>
  </g>
</svg>
