<?xml version="1.0" encoding="UTF-8" standalone="no"?>
<!-- Created with Inkscape (http://www.inkscape.org/) -->

<svg
   xmlns:dc="http://purl.org/dc/elements/1.1/"
   xmlns:cc="http://creativecommons.org/ns#"
   xmlns:rdf="http://www.w3.org/1999/02/22-rdf-syntax-ns#"
   xmlns:svg="http://www.w3.org/2000/svg"
   xmlns="http://www.w3.org/2000/svg"
   xmlns:sodipodi="http://sodipodi.sourceforge.net/DTD/sodipodi-0.dtd"
   xmlns:inkscape="http://www.inkscape.org/namespaces/inkscape"
   width="744.09448819"
   height="1052.3622047"
   id="svg2"
   version="1.1"
   inkscape:version="0.48.4 r9939"
   inkscape:export-filename="/home/hugocm93/Desktop/7-pet.png"
   inkscape:export-xdpi="90"
   inkscape:export-ydpi="90"
   sodipodi:docname="7-pet.svg">
  <defs
     id="defs4" />
  <sodipodi:namedview
     id="base"
     pagecolor="#ffffff"
     bordercolor="#666666"
     borderopacity="1.0"
     inkscape:pageopacity="0.0"
     inkscape:pageshadow="2"
     inkscape:zoom="1.4"
     inkscape:cx="249.5561"
     inkscape:cy="518.61476"
     inkscape:document-units="px"
     inkscape:current-layer="g3936"
     showgrid="false"
     inkscape:window-width="1278"
     inkscape:window-height="741"
     inkscape:window-x="0"
     inkscape:window-y="0"
     inkscape:window-maximized="0" />
  <metadata
     id="metadata7">
    <rdf:RDF>
      <cc:Work
         rdf:about="">
        <dc:format>image/svg+xml</dc:format>
        <dc:type
           rdf:resource="http://purl.org/dc/dcmitype/StillImage" />
        <dc:title></dc:title>
      </cc:Work>
    </rdf:RDF>
  </metadata>
  <g
     inkscape:label="Layer 1"
     inkscape:groupmode="layer"
     id="layer1">
    <path
       style="fill:#000000;fill-opacity:1;stroke:#ffffff;stroke-opacity:1;stroke-width:1.5;stroke-miterlimit:4;stroke-dasharray:none"
       d="m 247.75604,327.44439 c -6.35394,3.06864 -8.85923,10.73805 -5.61723,17.19599 l 62.33623,124.1716 c 3.24199,6.45793 10.96724,9.18649 17.32118,6.11785 6.35395,-3.06864 8.85923,-10.73805 5.61724,-17.19599 L 265.07723,333.56225 c -3.242,-6.45794 -10.96724,-9.1865 -17.32119,-6.11786 z"
       id="rect3783-2"
       inkscape:connector-curvature="0" />
    <path
       sodipodi:type="arc"
       style="fill:#000000;fill-opacity:1;stroke:none"
       id="path2985"
       sodipodi:cx="249.50768"
       sodipodi:cy="290.70715"
       sodipodi:rx="42.426407"
       sodipodi:ry="42.426407"
       d="m 291.93408,290.70715 a 42.426407,42.426407 0 1 1 -84.85281,0 42.426407,42.426407 0 1 1 84.85281,0 z"
       transform="translate(66.762884,-15.350984)" />
    <g
       id="g3936"
       transform="translate(4.7982246,-2.5253814)"
       style="stroke:#ffffff;stroke-opacity:1;stroke-width:1.5;stroke-miterlimit:4;stroke-dasharray:none">
      <path
         style="fill:#000000;fill-opacity:1;stroke:#ffffff;stroke-width:1.5;stroke-miterlimit:4;stroke-opacity:1;stroke-dasharray:none"
         d="M 262.5 308.6875 C 261.70982 308.6865 260.93857 308.7462 260.15625 308.8125 L 259.46875 308.8125 L 259.34375 308.78125 L 258 309.03125 L 253.59375 310.71875 C 253.59763 310.71809 253.78089 310.68748 253.78125 310.6875 C 253.85885 310.6925 253.46183 310.83771 252.90625 311.03125 C 246.28605 313.33746 241.11985 317.29891 237.4375 322.84375 C 236.03398 324.95716 235.42866 326.21994 231.9375 334.59375 C 230.26788 338.59845 228.91728 341.78534 228.8125 342 C 228.81031 342.00449 228.75104 342.15451 228.75 342.15625 C 228.61059 342.51851 228.45297 342.86704 228.25 343.1875 L 228.21875 343.25 L 177.5625 465.96875 L 178.6875 466.4375 C 178.40244 467.6912 178.22566 468.99716 178.21875 470.34375 L 177.34375 639.5 C 177.29865 648.29673 183.59681 655.22072 191.4375 655.03125 C 199.27819 654.84178 205.61111 647.60923 205.65625 638.8125 L 206.5 478.375 L 211.3125 480.4375 L 210.5 653.59375 C 210.4549 663.31931 216.72181 670.99073 224.5625 670.78125 C 232.40319 670.57177 238.76736 662.56931 238.8125 652.84375 L 239.65625 471.25 L 283.84375 371.1875 L 295.90625 390.375 L 297.125 392.34375 L 346.0625 469.9375 C 350.30675 476.66745 358.98408 478.58321 365.5 474.21875 C 372.01592 469.85429 373.838 460.91745 369.59375 454.1875 L 291.25 329.96875 L 289.625 327.3125 C 289.621 327.3175 289.60035 327.33565 289.59375 327.34375 L 289 326.40625 C 288.69659 325.67572 288.3627 324.95912 288 324.25 L 287.3125 322.84375 L 286.4375 321.5625 L 286.375 321.4375 C 286.17868 321.14185 285.95761 320.85108 285.75 320.5625 L 285.59375 320.3125 C 285.23582 319.82621 284.85847 319.37047 284.46875 318.90625 C 284.45365 318.88835 284.42135 318.86165 284.40625 318.84375 L 283.84375 318.1875 L 282.84375 317.03125 L 281.875 316.21875 L 281.03125 315.4375 L 280.8125 315.28125 C 280.7167 315.20195 280.62823 315.14067 280.53125 315.0625 C 280.07759 314.69683 279.6044 314.37106 279.125 314.03125 C 278.60756 313.66447 278.07794 313.30362 277.53125 312.96875 C 277.46955 312.93095 277.40584 312.88115 277.34375 312.84375 L 276.78125 312.46875 L 276.25 312.21875 L 276.09375 312.125 C 275.26194 311.67936 274.42168 311.276 273.53125 310.90625 C 273.50965 310.89725 273.459 310.8838 273.4375 310.875 C 273.3892 310.8551 273.3607 310.832 273.3125 310.8125 L 273.03125 310.75 C 271.94961 310.3225 270.87841 309.91407 269.78125 309.625 L 269.3125 309.46875 L 266.0625 308.8125 L 264.875 308.8125 C 264.0803 308.7464 263.29018 308.68855 262.5 308.6875 z "
         transform="translate(-4.7982246,2.5253814)"
         id="rect2987" />
      <path
         d="m 255.40104,315.57648 c 0,1.53683 -2.17828,2.78269 -4.86532,2.78269 -2.68704,0 -9.17572,-2.29964 -9.17572,-3.83647 0,-1.53684 5.72119,-1.89282 8.40823,-1.89282 2.68704,0 5.63281,1.40976 5.63281,2.9466 z"
         style="fill:#000000;fill-opacity:1;stroke:none;stroke-opacity:1;stroke-width:0.81198214999999996;stroke-miterlimit:4;stroke-dasharray:none"
         transform="matrix(1.4727597,-0.80373943,0.59392355,1.9930427,-306.69528,-108.24189)"
         id="path3927"
         inkscape:connector-curvature="0" />
      <g
         id="g4127"
         transform="matrix(0.94178742,0,0,0.94178742,-51.133047,41.004314)"
         style="stroke:#ffffff;stroke-opacity:1;stroke-width:1.59271611;stroke-miterlimit:4;stroke-dasharray:none">
        <path
           id="rect4001"
           transform="translate(-4.7982246,2.5253814)"
           d="m 489.0625,424.21875 -1,20.15625 -53.9375,42.09375 c -3.4961,0.27426 -6.25,3.18346 -6.25,6.75 0,3.74765 3.0336,6.78125 6.78125,6.78125 1.95155,0 3.69959,-0.80613 4.9375,-2.125 -0.85804,2.76115 -3.42378,4.75 -6.46875,4.75 -0.34018,0 -0.67332,-0.0143 -1,-0.0625 -0.004,0.0196 0.005,0.043 0,0.0625 l 50.03125,4.5 0.0312,17.6875 c -0.01,0.25768 -0.0312,0.521 -0.0312,0.78125 l 0,32.09375 c 0,6.60196 3.22569,12.40496 8.1875,15.96875 l 0,59.0625 c 0,7.51857 6.07518,13.5625 13.59375,13.5625 7.51857,0 13.5625,-6.04393 13.5625,-13.5625 l 0,-55.34375 79.28125,0 -27.15625,48.28125 c -3.68724,6.55234 -1.39609,14.81276 5.15625,18.5 6.55234,3.68724 14.81276,1.36484 18.5,-5.1875 l 22.46875,-39.9375 0,37.375 c 0,7.51857 6.04393,13.5625 13.5625,13.5625 7.51857,0 13.5625,-6.04393 13.5625,-13.5625 l 0,-78.59375 c 0,-0.23496 -0.0196,-0.45555 -0.0312,-0.6875 l 0,-31.53125 c 0,-3.21985 -0.7646,-6.22889 -2.125,-8.90625 l 7.53125,-7.03125 c 1.69253,-1.57801 1.74734,-4.19366 0.125,-5.84375 l -0.0937,-0.0937 c -1.62234,-1.65009 -4.30747,-1.70301 -6,-0.125 l -6.96875,6.5 c -3.33701,-2.60955 -7.54145,-4.15625 -12.125,-4.15625 l -87.71875,0 L 510.375,472.75 489.0625,424.21875 z"
           style="fill:#000000;fill-opacity:1;stroke:#ffffff;stroke-width:1.59271611;stroke-miterlimit:4;stroke-opacity:1;stroke-dasharray:none"
           inkscape:connector-curvature="0" />
        <rect
           transform="matrix(0.91242607,-0.40924157,0.51474478,0.85734346,0,0)"
           ry="4.6271682"
           y="671.02618"
           x="137.41508"
           height="9.2543364"
           width="61.230682"
           id="rect4122"
           style="fill:#d40000;fill-opacity:1;stroke:#ffffff;stroke-width:1.59838647;stroke-miterlimit:4;stroke-opacity:1;stroke-dasharray:none" />
      </g>
    </g>
  </g>
</svg>
