<?xml version="1.0" encoding="UTF-8" standalone="no"?>
<!-- Created with Inkscape (http://www.inkscape.org/) -->

<svg
   xmlns:dc="http://purl.org/dc/elements/1.1/"
   xmlns:cc="http://creativecommons.org/ns#"
   xmlns:rdf="http://www.w3.org/1999/02/22-rdf-syntax-ns#"
   xmlns:svg="http://www.w3.org/2000/svg"
   xmlns="http://www.w3.org/2000/svg"
   xmlns:sodipodi="http://sodipodi.sourceforge.net/DTD/sodipodi-0.dtd"
   xmlns:inkscape="http://www.inkscape.org/namespaces/inkscape"
   width="744.09448819"
   height="1052.3622047"
   id="svg2"
   version="1.1"
   inkscape:version="0.48.4 r9939"
   sodipodi:docname="thumb.svg"
   inkscape:export-filename="/home/hugocm93/Desktop/thumb.png"
   inkscape:export-xdpi="90"
   inkscape:export-ydpi="90">
  <defs
     id="defs4" />
  <sodipodi:namedview
     id="base"
     pagecolor="#ffffff"
     bordercolor="#666666"
     borderopacity="1.0"
     inkscape:pageopacity="0.0"
     inkscape:pageshadow="2"
     inkscape:zoom="1.4142136"
     inkscape:cx="298.0338"
     inkscape:cy="715.99076"
     inkscape:document-units="px"
     inkscape:current-layer="layer1"
     showgrid="false"
     inkscape:window-width="1277"
     inkscape:window-height="701"
     inkscape:window-x="0"
     inkscape:window-y="5"
     inkscape:window-maximized="0" />
  <metadata
     id="metadata7">
    <rdf:RDF>
      <cc:Work
         rdf:about="">
        <dc:format>image/svg+xml</dc:format>
        <dc:type
           rdf:resource="http://purl.org/dc/dcmitype/StillImage" />
        <dc:title></dc:title>
      </cc:Work>
    </rdf:RDF>
  </metadata>
  <g
     inkscape:label="Layer 1"
     inkscape:groupmode="layer"
     id="layer1">
    <path
       style="fill:#000000;fill-opacity:1"
       d="m 355.28661,225.18386 c -3.50387,0.14971 -5.66808,3.32003 -5.36717,8.95829 l 0.46169,8.59321 c 0.46688,8.74782 6.65723,20.01859 13.87961,25.24606 l 24.00797,17.383 -5.13632,0 c -0.34117,-0.0419 -0.68556,-0.0842 -1.03881,-0.0842 l -63.88659,0 c -4.52154,0 -8.16617,3.54696 -8.16617,7.94732 l 0,8.62129 c 0,4.40037 3.64463,7.94732 8.16617,7.94732 l 3.92438,0 c 0.71468,0.19003 1.2408,0.81624 1.2408,1.57261 0,0.7144 -0.47098,1.31312 -1.12538,1.54453 l -12.52338,0 c -4.26317,0 -7.67563,3.34909 -7.67563,7.498 l 0,9.54801 c 0,4.14892 3.41246,7.46992 7.67563,7.46992 l 13.70647,0 c 0.77404,0.15749 1.35622,0.84613 1.35622,1.68494 0,0.80647 -0.53996,1.4888 -1.26965,1.68495 l -6.37712,0 c -5.0383,0 -9.08956,3.94268 -9.08956,8.84595 l 0,6.82402 c 0,4.90326 4.05126,8.84595 9.08956,8.84595 l 8.48358,0 c 0.93661,0 1.67364,0.91063 1.67364,2.05002 0,1.13937 -0.73703,2.05001 -1.67364,2.05001 l -0.92338,0 -0.98109,0 c -4.65074,0 -8.39702,3.64588 -8.39702,8.17197 l 0,8.17198 c 0,4.52609 3.74628,8.17197 8.39702,8.17197 l 63.4249,0 c 0.36087,0 0.71903,-0.0417 1.06766,-0.0842 l 21.78608,0 0.0866,0.0562 c 9.17688,-0.30546 20.82372,1.49864 26.66269,4.54935 l 52.31545,27.32416 43.08161,-73.01421 -73.207,-36.64751 -0.17313,-3.2014 c -0.46687,-8.74782 -6.65723,-19.9905 -13.87961,-25.21798 l -82.75824,-59.92782 c -2.257,-1.63358 -4.33461,-2.45896 -6.11742,-2.58358 -0.24514,-0.0171 -0.4878,-0.01 -0.72139,0 z"
       id="rect3039-6"
       inkscape:connector-curvature="0"
       inkscape:export-filename="/home/hugocm93/Desktop/rect3039.png"
       inkscape:export-xdpi="90"
       inkscape:export-ydpi="90" />
    <path
       style="fill:#000000;fill-opacity:1;stroke:#ffffff;stroke-opacity:1;stroke-width:2.4;stroke-miterlimit:4;stroke-dasharray:none"
       d="M 319.84375 212.53125 C 317.91301 212.66992 315.66302 213.5884 313.21875 215.40625 L 223.59375 282.09375 C 215.7721 287.91087 209.06811 300.4217 208.5625 310.15625 L 208.375 313.71875 L 132.125 352.9375 L 179.125 433.9375 L 232.40625 405.34375 C 238.7297 401.94893 251.34292 399.94133 261.28125 400.28125 L 261.375 400.21875 L 284.96875 400.21875 C 285.34631 400.26614 285.73418 400.3125 286.125 400.3125 L 354.8125 400.3125 C 359.84912 400.3125 363.90625 396.25537 363.90625 391.21875 L 363.90625 382.125 C 363.90625 377.08838 359.84912 373.03125 354.8125 373.03125 L 353.75 373.03125 L 352.75 373.03125 C 351.73568 373.03125 350.9375 372.01789 350.9375 370.75 C 350.9375 369.48209 351.73568 368.46875 352.75 368.46875 L 361.9375 368.46875 C 367.39384 368.46875 371.78125 364.08134 371.78125 358.625 L 371.78125 351.03125 C 371.78125 345.57491 367.39384 341.1875 361.9375 341.1875 L 355.03125 341.1875 C 354.24101 340.96923 353.65625 340.20993 353.65625 339.3125 C 353.65625 338.37907 354.28673 337.61276 355.125 337.4375 L 369.96875 337.4375 C 374.58565 337.4375 378.28125 333.7419 378.28125 329.125 L 378.28125 318.5 C 378.28125 313.8831 374.58565 310.15625 369.96875 310.15625 L 356.40625 310.15625 C 355.69756 309.89873 355.1875 309.23248 355.1875 308.4375 C 355.1875 307.59581 355.75727 306.89896 356.53125 306.6875 L 360.78125 306.6875 C 365.67796 306.6875 369.625 302.74046 369.625 297.84375 L 369.625 288.25 C 369.625 283.35329 365.67796 279.40625 360.78125 279.40625 L 291.59375 279.40625 C 291.21119 279.40625 290.83823 279.4533 290.46875 279.5 L 284.90625 279.5 L 310.90625 260.15625 C 318.7279 254.33913 325.43189 241.79705 325.9375 232.0625 L 326.4375 222.5 C 326.78511 215.80749 324.09137 212.22618 319.84375 212.53125 z "
       id="rect3039"
       inkscape:export-xdpi="90"
       inkscape:export-ydpi="90" />
  </g>
</svg>
