<?xml version="1.0" encoding="UTF-8" standalone="no"?>
<!-- Created with Inkscape (http://www.inkscape.org/) -->

<svg
   xmlns:dc="http://purl.org/dc/elements/1.1/"
   xmlns:cc="http://creativecommons.org/ns#"
   xmlns:rdf="http://www.w3.org/1999/02/22-rdf-syntax-ns#"
   xmlns:svg="http://www.w3.org/2000/svg"
   xmlns="http://www.w3.org/2000/svg"
   xmlns:sodipodi="http://sodipodi.sourceforge.net/DTD/sodipodi-0.dtd"
   xmlns:inkscape="http://www.inkscape.org/namespaces/inkscape"
   width="210mm"
   height="297mm"
   viewBox="0 0 744.09448819 1052.3622047"
   id="svg4434"
   version="1.1"
   inkscape:version="0.91 r13725"
   sodipodi:docname="faceMirror.svg">
  <defs
     id="defs4436" />
  <sodipodi:namedview
     id="base"
     pagecolor="#ffffff"
     bordercolor="#666666"
     borderopacity="1.0"
     inkscape:pageopacity="0.0"
     inkscape:pageshadow="2"
     inkscape:zoom="1.1564459"
     inkscape:cx="38.918979"
     inkscape:cy="656.19332"
     inkscape:document-units="px"
     inkscape:current-layer="layer1"
     showgrid="false"
     inkscape:window-width="2530"
     inkscape:window-height="1276"
     inkscape:window-x="0"
     inkscape:window-y="777"
     inkscape:window-maximized="0" />
  <metadata
     id="metadata4439">
    <rdf:RDF>
      <cc:Work
         rdf:about="">
        <dc:format>image/svg+xml</dc:format>
        <dc:type
           rdf:resource="http://purl.org/dc/dcmitype/StillImage" />
        <dc:title />
      </cc:Work>
    </rdf:RDF>
  </metadata>
  <g
     inkscape:label="Layer 1"
     inkscape:groupmode="layer"
     id="layer1"
     style="display:inline">
    <g
       id="g4214"
       inkscape:export-xdpi="90"
       inkscape:export-ydpi="90">
      <path
         id="circle4458"
         d="M 371.82812,361.45312 A 101.17204,101.17204 0 0 0 270.65625,462.625 101.17204,101.17204 0 0 0 371.82812,563.79688 101.17204,101.17204 0 0 0 473,462.625 101.17204,101.17204 0 0 0 371.82812,361.45312 Z m -45.39843,230.01563 a 142.24617,149.16391 0 0 0 -141.8125,140.08398 l 125.15429,0 -1.0664,-19.45703 159.10742,19.02344 0,0.43359 0.55859,0 A 142.24617,149.16391 0 0 0 326.42969,591.46875 Z"
         style="opacity:1;fill:#000000;fill-opacity:1;stroke:none;stroke-width:3.4000001;stroke-miterlimit:4;stroke-dasharray:none;stroke-opacity:1"
         inkscape:connector-curvature="0" />
      <path
         sodipodi:nodetypes="ccccc"
         inkscape:connector-curvature="0"
         id="rect4442"
         d="m 153.76856,247.14104 457.7386,44.94279 0,450.87757 -457.7386,-44.94279 z"
         style="opacity:0.8;fill:#34efff;fill-opacity:0.37820512;stroke:#000000;stroke-width:3.11400509;stroke-miterlimit:4;stroke-dasharray:none;stroke-opacity:1" />
      <path
         style="fill:none;fill-rule:evenodd;stroke:#ffffff;stroke-width:4;stroke-linecap:butt;stroke-linejoin:miter;stroke-opacity:1"
         d="m 332.93354,436.32812 c 0.8584,0.88905 -3.04481,1.16337 -3.74755,0.99435 -1.90439,-0.45803 0.96584,-2.37179 1.75885,-3.84159 1.4185,-2.62914 7.25651,-3.09364 9.5563,-1.54099 3.37505,2.27858 1.8783,8.71072 -0.45558,11.81216 -3.11069,4.13372 -10.60736,2.83397 -14.50035,-0.29037 -4.89892,-3.93166 -3.90253,-15.31916 0.0171,-19.99888 4.74714,-5.66776 15.81818,-1.83926 21.28191,2.87833 6.43882,5.55953 3.28303,15.80445 -2.49693,21.80832 -6.97676,7.24702 -25.76654,7.81271 -24.7127,1.01908 1.64596,-10.61081 -10.56133,-24.05157 -1.29239,-30.96786 9.72869,-7.25935 24.09577,-9.48801 32.68326,-1.56571 9.53373,8.79527 7.96993,24.59942 -0.75514,33.96629"
         id="path4498"
         inkscape:connector-curvature="0"
         sodipodi:nodetypes="csssssssssssc" />
      <g
         transform="translate(-3.9744133,5.1973096)"
         id="g4512">
        <path
           style="opacity:1;fill:#ffffff;fill-opacity:1;stroke:#ffffff;stroke-width:2;stroke-miterlimit:4;stroke-dasharray:none;stroke-opacity:1"
           id="path4508"
           d="m 352.18592,460.74281 c 1.62145,3.67333 4.8501,6.21604 7.85123,8.7258 3.80096,3.02706 7.72887,5.88971 11.5263,8.92113 2.11838,1.53105 3.9709,3.37918 5.85665,5.1791 1.0796,1.00862 1.9903,2.16398 2.87014,3.34439 0.54973,0.73719 1.14238,1.43999 1.71341,2.15988 0.34874,0.48505 0.6685,0.9859 0.97313,1.4996 0.27402,0.45073 0.58843,0.87261 0.86051,1.32448 0,0 -3.93308,2.28411 -3.93308,2.28411 l 0,0 c -0.27921,-0.44886 -0.58731,-0.87774 -0.86631,-1.32669 -0.29743,-0.49452 -0.60577,-0.98 -0.93709,-1.45278 -0.5682,-0.72625 -1.1495,-1.44257 -1.69629,-2.18561 -0.85642,-1.16213 -1.7482,-2.29978 -2.78341,-3.311 -1.84822,-1.81663 -3.71601,-3.61764 -5.79522,-5.17286 -3.71777,-3.10142 -7.56712,-6.03745 -11.38576,-9.01254 -3.11447,-2.54814 -6.38215,-5.11478 -8.22531,-8.78995 0,0 3.9711,-2.18706 3.9711,-2.18706 z"
           inkscape:connector-curvature="0" />
        <path
           style="opacity:1;fill:#ffffff;fill-opacity:1;stroke:#ffffff;stroke-width:2;stroke-miterlimit:4;stroke-dasharray:none;stroke-opacity:1"
           id="path4510"
           d="m 387.94079,469.3587 c -1.5407,1.23352 -3.16727,2.3556 -4.81741,3.43651 -2.25587,1.37704 -4.48651,2.82987 -6.8677,3.97974 -0.27366,0.13215 -1.59489,0.69063 -1.84066,0.79529 -2.09871,0.85422 -4.22628,1.6336 -6.38836,2.31263 -1.75062,0.49915 -3.52542,0.9186 -5.31951,1.22802 -1.50498,0.30154 -3.03081,0.44503 -4.56152,0.5209 -1.41353,0.0264 -2.83132,0.10391 -4.24301,0.006 -1.31889,-0.10978 -2.63547,-0.17942 -3.94395,-0.3826 -1.9462,-0.30919 -3.91695,-0.39547 -5.88351,-0.45933 -1.36459,-0.041 -2.72976,-0.0378 -4.09476,-0.0329 -0.43083,0.0123 -0.78375,0.17159 -1.16145,0.35104 0,0 3.58002,-2.81924 3.58002,-2.81924 l 0,0 c 0.40408,-0.13957 0.82102,-0.20168 1.25008,-0.19649 1.35208,0.009 2.70416,0.0353 4.05549,0.0811 1.9818,0.0821 3.96624,0.18261 5.92932,0.4833 1.3066,0.16464 2.62067,0.23893 3.93316,0.34348 1.40167,0.0565 2.80619,0.0126 4.20743,-0.0411 1.51905,-0.0914 3.03072,-0.26197 4.52423,-0.56146 1.77223,-0.32692 3.53076,-0.73452 5.25685,-1.2545 2.15233,-0.69551 4.27801,-1.47074 6.3628,-2.34931 0.66832,-0.29378 1.18769,-0.50973 1.83347,-0.83949 0.25584,-0.13064 1.00322,-0.55999 0.7559,-0.41388 -6.14579,3.63066 -2.88428,1.67366 -1.55,0.8727 1.63784,-1.04978 3.23942,-2.15508 4.77546,-3.35003 0,0 4.20763,-1.71013 4.20763,-1.71013 z"
           inkscape:connector-curvature="0" />
      </g>
      <path
         inkscape:connector-curvature="0"
         d="m 444.84633,477.80545 c 1.11972,2.30079 2.19963,4.62 3.22609,6.96439 0.87519,2.04135 1.71683,4.09676 2.29584,6.24357 0.32333,1.30241 0.4088,2.6455 0.46214,3.98141 0.0363,1.48406 -0.84773,2.15797 -1.91901,3.03263 -2.73552,1.93326 -5.62824,3.63797 -8.62515,5.13775 -0.32809,0.16419 -0.70692,0.19666 -1.06038,0.295 -3.20464,0.30962 -6.27613,-0.87835 -9.23529,-1.9533 -1.64697,-0.59418 -3.10786,-1.5675 -4.66082,-2.35113 -0.12235,-0.0337 -0.24024,-0.096 -0.36705,-0.10124 -0.10292,-0.004 -0.20003,0.0492 -0.30005,0.0739 1.21276,-0.65641 2.40878,-1.34474 3.63828,-1.96923 0.12346,-0.0627 -0.22647,0.16659 -0.30867,0.27803 -0.29612,0.40149 -0.27134,0.63536 -0.36079,1.13088 -0.071,1.96997 0.4728,3.88273 0.83536,5.80212 0.55839,2.30417 0.9432,4.63013 0.96303,7.00206 -0.0751,2.82478 -1.25812,4.83499 -2.67027,7.18297 -1.74353,2.72697 -3.6843,5.31938 -5.71844,7.83468 -1.42037,1.69483 -2.90004,3.34124 -4.58291,4.77933 -2.06372,1.36039 -4.15088,3.07 -6.70038,2.99071 -0.82221,-0.0256 -1.17331,-0.13987 -1.98786,-0.31243 -1.78074,-0.42754 -3.44541,-1.19757 -5.20663,-1.68952 -0.88904,-0.186 -1.83757,-0.4219 -2.7541,-0.29111 -0.19918,0.0284 -0.39181,0.0917 -0.58771,0.13752 -1.75226,0.69488 -3.38939,1.65934 -5.05453,2.53906 -1.70297,0.82964 -3.47695,1.55514 -5.29769,2.08718 -1.23163,0.35989 -2.28171,0.56647 -3.53672,0.8412 -3.51894,0.7063 -7.11174,0.8882 -10.68982,1.01315 -1.7468,-0.0147 -3.53434,-0.21936 -5.17917,-0.84762 -0.83077,-0.31731 -1.22893,-0.60737 -1.97635,-1.06525 -1.6196,-1.12285 -2.77131,-2.72898 -3.98661,-4.24662 -0.61791,-0.83545 -1.2098,-1.68379 -2.13189,-2.19708 -1.39013,-0.3298 -2.84117,0.12066 -4.18007,0.48265 -2.48262,0.75329 -4.85781,1.8109 -7.25348,2.79675 -1.47615,0.7016 -2.94357,1.43458 -4.51277,1.91013 -0.89002,0.26972 -1.15657,0.29867 -2.05728,0.47458 -0.34452,0.001 -0.69051,0.0349 -1.03356,0.003 -2.70516,-0.25124 -5.03953,-2.08191 -7.11638,-3.65856 -2.26227,-1.81237 -4.42984,-3.75891 -6.38236,-5.90505 -1.11781,-1.22866 -1.41213,-1.65434 -2.42914,-2.9548 -1.8829,-2.4368 -3.24228,-5.2119 -4.94983,-7.76425 -0.57198,-0.68729 -1.06061,-1.77994 -1.87412,-2.23923 -0.36251,-0.20467 -0.7181,-0.2347 -1.12106,-0.31278 -1.71137,-0.0773 -3.2251,0.74028 -4.73524,1.42804 -0.80858,0.32351 -2.22138,1.19357 -3.12373,0.98468 -0.25929,-0.06 -0.4877,-0.2133 -0.73156,-0.31995 -1.76205,-1.14384 -3.03918,-2.89857 -3.9715,-4.75948 -0.22826,-0.45563 -0.41277,-0.93189 -0.61915,-1.39783 -0.94061,-2.37058 -1.60679,-4.83733 -1.97767,-7.35864 -0.20363,-1.35524 -0.0263,-2.65671 0.31824,-3.96344 0.28092,-0.75991 0.23783,-1.448 0.0425,-2.21797 -0.0401,-0.15069 -0.0802,-0.30138 -0.12025,-0.45207 0,0 3.98329,-2.16356 3.98329,-2.16356 l 0,0 c 0.0411,0.15035 0.0822,0.30071 0.12325,0.45106 0.23349,0.82856 0.37778,1.60258 0.062,2.43308 -0.13844,0.49505 -0.31708,0.99956 -0.40557,1.50636 -0.13387,0.76675 -0.0796,1.54796 -0.0437,2.31987 0.32287,2.49406 0.92737,4.93997 1.86497,7.27839 1.01926,2.29736 2.20554,4.52545 4.4739,5.80044 0.21227,0.0521 0.41865,0.14275 0.6368,0.15642 0.87972,0.0552 2.19613,-0.79295 3.00812,-1.09023 1.56581,-0.70062 3.15955,-1.4431 4.92369,-1.20024 0.54248,0.14916 0.78623,0.16436 1.24871,0.48015 0.83917,0.57302 1.27541,1.61619 1.88536,2.38679 1.64942,2.57351 2.98887,5.34399 4.85872,7.77529 0.94296,1.20856 1.35894,1.78473 2.38868,2.92973 1.92572,2.14124 4.0804,4.06938 6.34824,5.83997 2.35975,1.73892 4.93946,3.62533 8.03034,3.28379 0.89527,-0.19683 1.12718,-0.22512 2.01082,-0.5136 1.54956,-0.50589 2.99761,-1.25678 4.48309,-1.91733 2.40716,-0.99503 4.80424,-2.04213 7.31142,-2.76417 1.41946,-0.35212 3.04347,-0.84592 4.45793,-0.23509 0.90988,0.60858 1.53838,1.47976 2.17079,2.36083 1.15717,1.49534 2.28387,3.05395 3.87476,4.12528 0.76887,0.45476 1.0499,0.66866 1.9032,0.97637 1.61746,0.58329 3.35425,0.76434 5.06207,0.75731 3.55575,-0.11627 7.12454,-0.31522 10.61376,-1.05888 3.07219,-0.70674 6.02624,-1.57225 8.82095,-3.06703 1.68714,-0.89586 3.34852,-1.93113 5.191,-2.46964 1.171,-0.15168 2.32683,-0.0221 3.45643,0.32897 1.72619,0.53357 3.3755,1.30141 5.14988,1.67485 0.94187,0.15714 1.81173,0.28417 2.76325,0.10978 0.24358,-0.0446 0.921,-0.33199 0.71825,-0.1898 -1.6316,1.14423 -4.68351,2.70361 -2.63219,1.644 1.73912,-1.39935 3.25439,-3.03147 4.69582,-4.73312 2.05686,-2.48342 3.98822,-5.06913 5.74201,-7.77632 1.37427,-2.2646 2.61167,-4.21756 2.74156,-6.94892 0.01,-2.34695 -0.35538,-4.65026 -0.93168,-6.925 -0.37489,-1.95766 -0.91833,-3.8979 -0.93624,-5.90474 0.0168,-0.25546 0.006,-0.51422 0.0505,-0.76637 0.37178,-2.1157 3.48891,-4.09076 5.47485,-3.12407 1.49035,0.82577 2.92348,1.76803 4.53111,2.36468 2.49663,0.92468 5.14228,1.94614 7.85441,1.85341 0.42029,-0.0144 0.83412,-0.10793 1.25118,-0.16189 2.16128,-0.72739 1.15885,-0.47396 -1.87395,1.41813 -0.30131,0.18798 0.62213,-0.34329 0.92436,-0.52977 0.99884,-0.61632 1.96402,-1.29143 2.95123,-1.92607 0.99308,-0.77135 1.96055,-1.27291 2.04079,-2.6308 -0.0168,-1.31083 -0.0838,-2.6278 -0.37624,-3.91035 -0.53593,-2.13808 -1.3479,-4.18686 -2.21152,-6.21202 -1.00236,-2.34992 -2.07374,-4.67004 -3.31443,-6.90501 0,0 3.94998,-2.22974 3.94998,-2.22974 z"
         id="path4518"
         style="opacity:1;fill:#ffffff;fill-opacity:1;stroke:#ffffff;stroke-width:2;stroke-miterlimit:4;stroke-dasharray:none;stroke-opacity:1" />
      <path
         inkscape:connector-curvature="0"
         id="path4444"
         d="M 259.92022,374.79898 A 101.17204,101.17204 0 0 0 158.74835,475.97085 101.17204,101.17204 0 0 0 259.92022,577.14273 101.17204,101.17204 0 0 0 361.0921,475.97085 101.17204,101.17204 0 0 0 259.92022,374.79898 Z M 214.52179,604.8146 A 142.24617,149.16391 0 0 0 72.709284,744.89859 l 283.753906,0 A 142.24617,149.16391 0 0 0 214.52179,604.8146 Z"
         style="opacity:1;fill:#000000;fill-opacity:1;stroke:none;stroke-width:3.4000001;stroke-miterlimit:4;stroke-dasharray:none;stroke-opacity:1" />
      <path
         sodipodi:nodetypes="csssssssssssc"
         inkscape:connector-curvature="0"
         id="path4495"
         d="m 401.11003,436.63385 c 0.8584,0.88905 -3.04481,1.16337 -3.74755,0.99435 -1.90439,-0.45803 0.96584,-2.37179 1.75885,-3.84159 1.4185,-2.62914 7.25651,-3.09364 9.5563,-1.54099 3.37505,2.27858 1.8783,8.71072 -0.45558,11.81216 -3.11069,4.13372 -10.60736,2.83397 -14.50035,-0.29037 -4.89892,-3.93166 -3.90253,-15.31916 0.0171,-19.99888 4.74714,-5.66776 15.81818,-1.83926 21.28191,2.87833 6.43882,5.55953 3.28303,15.80445 -2.49693,21.80832 -6.97676,7.24702 -25.76654,7.81271 -24.7127,1.01908 1.64596,-10.61081 -10.56133,-24.05157 -1.29239,-30.96786 9.72869,-7.25935 24.09577,-9.48801 32.68326,-1.56571 9.53373,8.79527 7.96993,24.59942 -0.75514,33.96629"
         style="fill:none;fill-rule:evenodd;stroke:#ffffff;stroke-width:4;stroke-linecap:butt;stroke-linejoin:miter;stroke-opacity:1" />
    </g>
  </g>
</svg>
