<?xml version="1.0" encoding="UTF-8" standalone="no"?>
<!-- Created with Inkscape (http://www.inkscape.org/) -->

<svg
   xmlns:dc="http://purl.org/dc/elements/1.1/"
   xmlns:cc="http://creativecommons.org/ns#"
   xmlns:rdf="http://www.w3.org/1999/02/22-rdf-syntax-ns#"
   xmlns:svg="http://www.w3.org/2000/svg"
   xmlns="http://www.w3.org/2000/svg"
   xmlns:sodipodi="http://sodipodi.sourceforge.net/DTD/sodipodi-0.dtd"
   xmlns:inkscape="http://www.inkscape.org/namespaces/inkscape"
   width="210mm"
   height="297mm"
   viewBox="0 0 744.09448819 1052.3622047"
   id="svg2"
   version="1.1"
   inkscape:version="0.91 r13725"
   sodipodi:docname="giveSomething.svg">
  <defs
     id="defs4" />
  <sodipodi:namedview
     id="base"
     pagecolor="#ffffff"
     bordercolor="#666666"
     borderopacity="1.0"
     inkscape:pageopacity="0.0"
     inkscape:pageshadow="2"
     inkscape:zoom="1.4142136"
     inkscape:cx="329.89725"
     inkscape:cy="697.57966"
     inkscape:document-units="px"
     inkscape:current-layer="layer1"
     showgrid="false"
     inkscape:window-width="2560"
     inkscape:window-height="1418"
     inkscape:window-x="0"
     inkscape:window-y="777"
     inkscape:window-maximized="1" />
  <metadata
     id="metadata7">
    <rdf:RDF>
      <cc:Work
         rdf:about="">
        <dc:format>image/svg+xml</dc:format>
        <dc:type
           rdf:resource="http://purl.org/dc/dcmitype/StillImage" />
        <dc:title></dc:title>
      </cc:Work>
    </rdf:RDF>
  </metadata>
  <g
     inkscape:label="Layer 1"
     inkscape:groupmode="layer"
     id="layer1">
    <g
       id="g4261">
      <g
         transform="matrix(0.69491124,0,0,0.69491124,6.5108438,37.926277)"
         id="g4186">
        <circle
           style="fill:#000000;fill-opacity:1;stroke:none;stroke-width:2;stroke-miterlimit:4;stroke-dasharray:none;stroke-opacity:1"
           id="path4136"
           cx="274.54807"
           cy="316.91928"
           r="52.31546" />
        <rect
           style="fill:#000000;fill-opacity:1;stroke:none;stroke-width:2;stroke-miterlimit:4;stroke-dasharray:none;stroke-opacity:1"
           id="rect4142"
           width="153.05515"
           height="36.318169"
           x="199.74994"
           y="403.82346"
           ry="17.7267" />
        <path
           sodipodi:nodetypes="sssssssss"
           inkscape:connector-curvature="0"
           id="rect4184"
           d="m 117.08094,-722.55603 0.23634,0 c 9.01231,0 20.86164,8.62299 16.26771,16.26772 L 31.587374,-536.55492 c -4.593933,7.64473 -9.709926,15.00246 -18.722242,15.00246 l -0.236332,0 c -9.0123153,0 -26.577289,-11.0011 -21.6636283,-18.43976 L 100.81323,-706.28831 c 4.91366,-7.43866 7.2554,-16.26772 16.26771,-16.26772 z"
           style="fill:#000000;fill-opacity:1;stroke:none;stroke-width:2;stroke-miterlimit:4;stroke-dasharray:none;stroke-opacity:1"
           transform="matrix(0.81022998,-0.58611209,-0.60527748,-0.79601456,0,0)" />
        <path
           sodipodi:nodetypes="sssssssss"
           inkscape:connector-curvature="0"
           id="rect4140"
           d="m 426.88274,197.76241 0.23633,0 c 9.01232,0 15.08813,7.30474 16.26772,16.26771 l 23.04464,175.10134 c 1.17959,8.96297 -7.2554,16.26771 -16.26772,16.26771 l -0.23633,0 c -9.01232,0 -15.08813,-7.30474 -16.26772,-16.26771 L 410.61502,214.03012 c -1.17959,-8.96297 7.2554,-16.26771 16.26772,-16.26771 z"
           style="fill:#000000;fill-opacity:1;stroke:none;stroke-width:2;stroke-miterlimit:4;stroke-dasharray:none;stroke-opacity:1"
           transform="matrix(0.81022998,0.58611209,-0.60527748,0.79601456,0,0)" />
      </g>
      <g
         transform="matrix(0.79791272,0,0,0.87063595,-12.299649,-79.1323)"
         id="g4228">
        <rect
           style="opacity:1;fill:#000000;fill-opacity:1;stroke:none;stroke-width:2;stroke-miterlimit:4;stroke-dasharray:none;stroke-opacity:1"
           id="rect4204"
           width="29.400423"
           height="188.07623"
           x="227.85327"
           y="618.27362"
           ry="14.700212" />
        <rect
           ry="14.700212"
           y="618.27362"
           x="272.81863"
           height="188.07623"
           width="29.400423"
           id="rect4226"
           style="opacity:1;fill:#000000;fill-opacity:1;stroke:none;stroke-width:2;stroke-miterlimit:4;stroke-dasharray:none;stroke-opacity:1" />
      </g>
      <path
         id="path4196"
         d="m 173.43205,318.54827 -71.17004,160.03588 192.25697,0 -71.17004,-160.03588 -49.91689,0 z"
         style="fill:#ff6600;fill-opacity:1;stroke:none;stroke-width:2;stroke-miterlimit:4;stroke-dasharray:none;stroke-opacity:1"
         inkscape:connector-curvature="0" />
    </g>
    <path
       id="path4234"
       d="m 365.24762,305.00276 -99.13388,100.17329 144.68901,54.74808 -7.9886,-140.70678 -37.56653,-14.21459 z"
       style="fill:#ff2a2a;fill-opacity:1;stroke:#ffffff;stroke-width:1.38982248;stroke-miterlimit:4;stroke-dasharray:none;stroke-opacity:1"
       inkscape:connector-curvature="0" />
    <g
       id="g4307"
       transform="translate(-35.355339,-14.849243)">
      <circle
         transform="scale(-1,1)"
         style="fill:#000000;fill-opacity:1;stroke:none;stroke-width:2;stroke-miterlimit:4;stroke-dasharray:none;stroke-opacity:1"
         id="circle4276"
         cx="-558.8855"
         cy="274.05469"
         r="36.354603" />
      <path
         sodipodi:nodetypes="cssssscc"
         inkscape:connector-curvature="0"
         id="path4280"
         d="m 377.07567,401.97975 c -2.15114,-4.67943 -1.36405,-10.87974 4.4331,-13.24942 l 124.69579,-50.97142 c 5.79714,-2.36967 11.7773,-4.34394 16.85157,-0.67326 l 0.13307,0.0963 c 5.07427,3.67067 11.3355,18.15656 5.44142,20.27363 l -139.54511,50.12259 c -7.68134,-3.06037 -5.21357,-2.75912 -12.00984,-5.59842 z"
         style="fill:#000000;fill-opacity:1;stroke:#ffffff;stroke-width:1;stroke-miterlimit:4;stroke-dasharray:none;stroke-opacity:1" />
      <rect
         transform="scale(-1,1)"
         style="fill:#000000;fill-opacity:1;stroke:none;stroke-width:2;stroke-miterlimit:4;stroke-dasharray:none;stroke-opacity:1"
         id="rect4278"
         width="106.35974"
         height="25.237904"
         x="-610.86353"
         y="334.44537"
         ry="12.318483" />
      <path
         sodipodi:nodetypes="sssssssss"
         inkscape:connector-curvature="0"
         id="path4282"
         d="m 592.50251,337.08566 -0.13306,0.0962 c -5.07428,3.67068 -5.42271,10.18602 -2.31692,15.62442 l 60.67509,106.24495 c 3.1058,5.43839 10.9275,6.04354 16.00178,2.37286 l 0.13306,-0.0963 c 5.07428,-3.67068 5.42271,-10.18602 2.31691,-15.62441 L 608.50428,339.45852 c -3.10579,-5.4384 -10.92749,-6.04354 -16.00177,-2.37286 z"
         style="fill:#000000;fill-opacity:1;stroke:none;stroke-width:2;stroke-miterlimit:4;stroke-dasharray:none;stroke-opacity:1" />
      <rect
         transform="scale(-1,1)"
         style="opacity:1;fill:#000000;fill-opacity:1;stroke:none;stroke-width:2;stroke-miterlimit:4;stroke-dasharray:none;stroke-opacity:1"
         id="rect4286"
         width="23.458971"
         height="163.74593"
         x="-586.67548"
         y="475.05658"
         ry="12.798532" />
      <rect
         transform="scale(-1,1)"
         ry="12.798532"
         y="475.05658"
         x="-550.79706"
         height="163.74593"
         width="23.458971"
         id="rect4288"
         style="opacity:1;fill:#000000;fill-opacity:1;stroke:none;stroke-width:2;stroke-miterlimit:4;stroke-dasharray:none;stroke-opacity:1" />
    </g>
  </g>
</svg>
