<?xml version="1.0" encoding="UTF-8" standalone="no"?>
<!-- Created with Inkscape (http://www.inkscape.org/) -->

<svg
   xmlns:dc="http://purl.org/dc/elements/1.1/"
   xmlns:cc="http://creativecommons.org/ns#"
   xmlns:rdf="http://www.w3.org/1999/02/22-rdf-syntax-ns#"
   xmlns:svg="http://www.w3.org/2000/svg"
   xmlns="http://www.w3.org/2000/svg"
   xmlns:xlink="http://www.w3.org/1999/xlink"
   xmlns:sodipodi="http://sodipodi.sourceforge.net/DTD/sodipodi-0.dtd"
   xmlns:inkscape="http://www.inkscape.org/namespaces/inkscape"
   inkscape:version="0.48.4 r9939"
   version="1.1"
   id="svg2"
   height="1052.3622047"
   width="744.09448819"
   sodipodi:docname="New document 1">
  <sodipodi:namedview
     id="base"
     pagecolor="#ffffff"
     bordercolor="#666666"
     borderopacity="1.0"
     inkscape:pageopacity="0.0"
     inkscape:pageshadow="2"
     inkscape:zoom="1.4"
     inkscape:cx="562.81165"
     inkscape:cy="910.69689"
     inkscape:document-units="px"
     inkscape:current-layer="svg2"
     showgrid="false"
     inkscape:window-width="1278"
     inkscape:window-height="721"
     inkscape:window-x="0"
     inkscape:window-y="12"
     inkscape:window-maximized="0" />
  <defs
     id="defs4">
    <path
       style="fill:none;stroke:#000000;stroke-width:1px;stroke-linecap:butt;stroke-linejoin:miter;stroke-opacity:1"
       d="m 170.2107,310.91021 c 0.67344,-0.16835 1.3758,-0.24727 2.02031,-0.50507 0.55173,-0.22069 0.74573,-1.16267 1.01015,-1.51523 0.28572,-0.38095 0.67344,-0.67344 1.01015,-1.01015 0.33672,-0.67344 0.57253,-1.40763 1.01016,-2.02031 0.41517,-0.58124 1.05037,-0.9729 1.51523,-1.51523 0.54783,-0.63914 0.91999,-1.42506 1.51522,-2.0203 0.42924,-0.42923 1.04123,-0.63095 1.51523,-1.01016 0.37185,-0.29747 0.63831,-0.71267 1.01016,-1.01015 1.86163,-1.4893 0.95171,-0.57103 2.52538,-1.51523 0.0604,-0.0362 3.01513,-2.01417 3.03045,-2.0203 0.31264,-0.12506 0.67344,0 1.01016,0 0.50507,0 1.01015,0 1.51523,0 0.50507,0 1.01015,0 1.51522,0 0.50508,0 1.04628,-0.18758 1.51523,0 0.44214,0.17685 0.63831,0.71268 1.01016,1.01015 0.474,0.37921 0.97228,0.73868 1.51523,1.01015 0.81092,0.40546 1.73283,0.56985 2.52538,1.01016 2.7327,1.51817 1.38354,1.7656 4.54568,3.03045 0.79707,0.31883 1.72832,0.18625 2.52538,0.50508 0.91148,0.36459 1.64733,1.0762 2.52539,1.51523 1.62184,0.81092 3.42891,1.20938 5.05076,2.0203 1.7561,0.87806 3.26336,2.21801 5.05076,3.03046 0.008,0.004 6.02999,2.00906 6.06092,2.02031 0.85205,0.30983 1.63634,0.83234 2.52538,1.01015 0.82544,0.16509 1.69337,-0.128 2.52538,0 1.37218,0.2111 2.66078,0.85684 4.04061,1.01015 1.67329,0.18592 3.36717,0 5.05076,0 1.85195,0 3.70389,0 5.55584,0 1.85195,0 3.70389,0 5.55584,0 2.02031,0 4.04759,0.16778 6.06092,0 2.04109,-0.17009 4.02196,-0.81597 6.06091,-1.01015 1.5084,-0.14366 3.03046,0 4.54569,0 1.17851,0 2.3872,0.265 3.53553,0 1.10046,-0.25395 1.98795,-1.08085 3.03046,-1.51523 0.0664,-0.0277 6.02754,-2.00362 6.06091,-2.0203 1.08589,-0.54295 1.94458,-1.47737 3.03046,-2.02031 0.95238,-0.47619 2.09568,-0.50027 3.03046,-1.01015 0.94639,-0.51622 1.60098,-1.46567 2.52538,-2.02031 0.77744,-0.46646 1.70001,-0.63498 2.52538,-1.01015 1.02816,-0.46734 1.98795,-1.08085 3.03046,-1.51523 0.98289,-0.40954 2.0611,-0.56954 3.03046,-1.01015 0.8937,-0.40623 1.57828,-1.25693 2.52538,-1.51523 0.97456,-0.26579 2.0203,0 3.03046,0 3.53553,0 7.07106,0 10.6066,0 1.85194,0 3.70389,0 5.55584,0 0.33671,0 0.67343,0 1.01015,0 0.16836,0 0.36499,-0.0934 0.50508,0 0.79242,0.52829 1.2584,1.44888 2.0203,2.0203 0.60234,0.45176 1.39384,0.59251 2.02031,1.01016 0.1981,0.13207 0.30696,0.373 0.50507,0.50507 0.31324,0.20883 0.69692,0.29626 1.01015,0.50508 0.19811,0.13207 0.30697,0.373 0.50508,0.50508 0.62647,0.41764 1.34687,0.67343 2.02031,1.01015 0.67343,0.33672 1.28986,0.82754 2.0203,1.01015 7.51652,1.87913 -4.55205,-2.5275 4.54569,0.50508 0.71428,0.23809 1.27952,0.87546 2.0203,1.01015 1.1595,0.21082 2.36887,-0.16667 3.53554,0 1.21335,0.17334 2.32061,0.84816 3.53553,1.01015 1.33506,0.17801 2.69374,0 4.04061,0 1.17851,0 2.35702,0 3.53553,0 1.85195,0 3.7115,0.16767 5.55584,0 6.5032,-0.5912 4.69977,-1.29232 11.11168,-2.52538 2.50189,-0.48113 5.07789,-0.5105 7.57615,-1.01015 8.80847,-1.7617 6.69534,-2.30518 15.65736,-4.54569 2.65885,-0.66471 5.40385,-0.92955 8.08122,-1.51523 18.14288,-3.96875 -1.95479,-0.24149 16.16244,-3.53553 2.85944,-0.5199 5.72685,-0.99533 8.5863,-1.51523 2.69647,-0.49027 5.35414,-1.24252 8.08122,-1.51523 2.34532,-0.23453 4.71404,0 7.07107,0 4.54568,0 9.09137,0 13.63706,0 3.53553,0 7.07106,0 10.6066,0 1.68358,0 3.39279,-0.29258 5.05076,0 1.26267,0.22283 2.32805,1.08399 3.53553,1.51523 7.11916,2.54256 3.48473,-3.06315 10.6066,1.51522 3.30555,2.125 11.01002,7.69222 14.14214,10.10154 11.93816,9.1832 -5.51948,-4.86902 5.74525,4.98762 1.5466,1.35328 3.03034,4.74002 4.98762,5.36644 3.43689,1.09996 0.71265,0.93928 1.89404,2.27284 16.02418,18.08817 12.5235,7.22257 12.6662,2.23849 0.0434,-1.5146 1.47593,0.2869 7.53685,-5.77402 1.19048,-1.19048 -6.73435,5.05076 -5.05076,5.05076 4.71404,0 9.42809,0 14.14213,0 1.34687,0 2.69374,0 4.04061,0 1.01015,0 2.0366,0.1807 3.03046,0 0.89202,-0.16218 1.63635,-0.83235 2.52538,-1.01015 0.82545,-0.16509 1.71325,0.22149 2.52538,0 1.08959,-0.29716 1.94087,-1.21807 3.03046,-1.51523 0.81213,-0.22149 1.69338,0.128 2.52538,0 1.37218,-0.21111 2.69917,-0.65243 4.04061,-1.01015 1.18429,-0.31581 2.32062,-0.84817 3.53554,-1.01016 2.67011,-0.35601 5.40828,0.33412 8.08122,0 1.3776,-0.1722 2.66843,-0.79904 4.04061,-1.01015 0.832,-0.128 1.68358,0 2.52538,0 1.85194,0 3.70389,0 5.55584,0"
       id="path4490-5"
       inkscape:connector-curvature="0"
       sodipodi:nodetypes="csccssccsccsssccssssssccssssssssssccssssssssssscsscscsssssssssssssssssssssssssssssssssssssssssc" />
  </defs>
  <metadata
     id="metadata7">
    <rdf:RDF>
      <cc:Work
         rdf:about="">
        <dc:format>image/svg+xml</dc:format>
        <dc:type
           rdf:resource="http://purl.org/dc/dcmitype/StillImage" />
        <dc:title></dc:title>
      </cc:Work>
    </rdf:RDF>
  </metadata>
  <rect
     style="fill:#ffaaaa;fill-opacity:1;stroke:none"
     id="rect4541"
     width="558.57141"
     height="183.57143"
     x="87.142853"
     y="36.647896"
     ry="8.83883"
     inkscape:export-filename="/home/hugocm93/g4531.png"
     inkscape:export-xdpi="90"
     inkscape:export-ydpi="90" />
  <g
     inkscape:label="Layer 1"
     inkscape:groupmode="layer"
     id="layer1" />
  <flowRoot
     xml:space="preserve"
     id="flowRoot4440"
     style="fill:black;stroke:none;stroke-opacity:1;stroke-width:1px;stroke-linejoin:miter;stroke-linecap:butt;fill-opacity:1;font-family:Sans;font-style:normal;font-weight:normal;font-size:40px;line-height:125%;letter-spacing:0px;word-spacing:0px"><flowRegion
       id="flowRegion4442"><rect
         id="rect4444"
         width="428.57144"
         height="115.71429"
         x="149.28572"
         y="86.647896" /></flowRegion><flowPara
       id="flowPara4446"></flowPara></flowRoot>  <path
     style="fill:none;stroke:#000000;stroke-width:1px;stroke-linecap:butt;stroke-linejoin:miter;stroke-opacity:1"
     d="m 170.2107,310.91021 c 0.67344,-0.16835 1.3758,-0.24727 2.02031,-0.50507 0.55173,-0.22069 0.74573,-1.16267 1.01015,-1.51523 0.28572,-0.38095 0.67344,-0.67344 1.01015,-1.01015 0.33672,-0.67344 0.57253,-1.40763 1.01016,-2.02031 0.41517,-0.58124 1.05037,-0.9729 1.51523,-1.51523 0.54783,-0.63914 0.91999,-1.42506 1.51522,-2.0203 0.42924,-0.42923 1.04123,-0.63095 1.51523,-1.01016 0.37185,-0.29747 0.63831,-0.71267 1.01016,-1.01015 1.86163,-1.4893 0.95171,-0.57103 2.52538,-1.51523 0.0604,-0.0362 3.01513,-2.01417 3.03045,-2.0203 0.31264,-0.12506 0.67344,0 1.01016,0 0.50507,0 1.01015,0 1.51523,0 0.50507,0 1.01015,0 1.51522,0 0.50508,0 1.04628,-0.18758 1.51523,0 0.44214,0.17685 0.63831,0.71268 1.01016,1.01015 0.474,0.37921 0.97228,0.73868 1.51523,1.01015 0.81092,0.40546 1.73283,0.56985 2.52538,1.01016 2.7327,1.51817 1.38354,1.7656 4.54568,3.03045 0.79707,0.31883 1.72832,0.18625 2.52538,0.50508 0.91148,0.36459 1.64733,1.0762 2.52539,1.51523 1.62184,0.81092 3.42891,1.20938 5.05076,2.0203 1.7561,0.87806 3.26336,2.21801 5.05076,3.03046 0.008,0.004 6.02999,2.00906 6.06092,2.02031 0.85205,0.30983 1.63634,0.83234 2.52538,1.01015 0.82544,0.16509 1.69337,-0.128 2.52538,0 1.37218,0.2111 2.66078,0.85684 4.04061,1.01015 1.67329,0.18592 3.36717,0 5.05076,0 1.85195,0 3.70389,0 5.55584,0 1.85195,0 3.70389,0 5.55584,0 2.02031,0 4.04759,0.16778 6.06092,0 2.04109,-0.17009 4.02196,-0.81597 6.06091,-1.01015 1.5084,-0.14366 3.03046,0 4.54569,0 1.17851,0 2.3872,0.265 3.53553,0 1.10046,-0.25395 1.98795,-1.08085 3.03046,-1.51523 0.0664,-0.0277 6.02754,-2.00362 6.06091,-2.0203 1.08589,-0.54295 1.94458,-1.47737 3.03046,-2.02031 0.95238,-0.47619 2.09568,-0.50027 3.03046,-1.01015 0.94639,-0.51622 1.60098,-1.46567 2.52538,-2.02031 0.77744,-0.46646 1.70001,-0.63498 2.52538,-1.01015 1.02816,-0.46734 1.98795,-1.08085 3.03046,-1.51523 0.98289,-0.40954 2.0611,-0.56954 3.03046,-1.01015 0.8937,-0.40623 1.57828,-1.25693 2.52538,-1.51523 0.97456,-0.26579 2.0203,0 3.03046,0 3.53553,0 7.07106,0 10.6066,0 1.85194,0 3.70389,0 5.55584,0 0.33671,0 0.67343,0 1.01015,0 0.16836,0 0.36499,-0.0934 0.50508,0 0.79242,0.52829 1.2584,1.44888 2.0203,2.0203 0.60234,0.45176 1.39384,0.59251 2.02031,1.01016 0.1981,0.13207 0.30696,0.373 0.50507,0.50507 0.31324,0.20883 0.69692,0.29626 1.01015,0.50508 0.19811,0.13207 0.30697,0.373 0.50508,0.50508 0.62647,0.41764 1.34687,0.67343 2.02031,1.01015 0.67343,0.33672 1.28986,0.82754 2.0203,1.01015 7.51652,1.87913 -4.55205,-2.5275 4.54569,0.50508 0.71428,0.23809 1.27952,0.87546 2.0203,1.01015 1.1595,0.21082 2.36887,-0.16667 3.53554,0 1.21335,0.17334 2.32061,0.84816 3.53553,1.01015 1.33506,0.17801 2.69374,0 4.04061,0 1.17851,0 2.35702,0 3.53553,0 1.85195,0 3.7115,0.16767 5.55584,0 6.5032,-0.5912 4.69977,-1.29232 11.11168,-2.52538 2.50189,-0.48113 5.07789,-0.5105 7.57615,-1.01015 8.80847,-1.7617 6.69534,-2.30518 15.65736,-4.54569 2.65885,-0.66471 5.40385,-0.92955 8.08122,-1.51523 18.14288,-3.96875 -1.95479,-0.24149 16.16244,-3.53553 2.85944,-0.5199 5.72685,-0.99533 8.5863,-1.51523 2.69647,-0.49027 5.35414,-1.24252 8.08122,-1.51523 2.34532,-0.23453 4.71404,0 7.07107,0 4.54568,0 9.09137,0 13.63706,0 3.53553,0 7.07106,0 10.6066,0 1.68358,0 3.39279,-0.29258 5.05076,0 1.26267,0.22283 2.32805,1.08399 3.53553,1.51523 7.11916,2.54256 3.48473,-3.06315 10.6066,1.51522 3.30555,2.125 11.01002,7.69222 14.14214,10.10154 11.93816,9.1832 -5.51948,-4.86902 5.74525,4.98762 1.5466,1.35328 3.03034,4.74002 4.98762,5.36644 3.43689,1.09996 0.71265,0.93928 1.89404,2.27284 16.02418,18.08817 12.5235,7.22257 12.6662,2.23849 0.0434,-1.5146 1.47593,0.2869 7.53685,-5.77402 1.19048,-1.19048 -6.73435,5.05076 -5.05076,5.05076 4.71404,0 9.42809,0 14.14213,0 1.34687,0 2.69374,0 4.04061,0 1.01015,0 2.0366,0.1807 3.03046,0 0.89202,-0.16218 1.63635,-0.83235 2.52538,-1.01015 0.82545,-0.16509 1.71325,0.22149 2.52538,0 1.08959,-0.29716 1.94087,-1.21807 3.03046,-1.51523 0.81213,-0.22149 1.69338,0.128 2.52538,0 1.37218,-0.21111 2.69917,-0.65243 4.04061,-1.01015 1.18429,-0.31581 2.32062,-0.84817 3.53554,-1.01016 2.67011,-0.35601 5.40828,0.33412 8.08122,0 1.3776,-0.1722 2.66843,-0.79904 4.04061,-1.01015 0.832,-0.128 1.68358,0 2.52538,0 1.85194,0 3.70389,0 5.55584,0"
     id="path4490"
     inkscape:connector-curvature="0"
     sodipodi:nodetypes="csccssccsccsssccssssssccssssssssssccssssssssssscsscscsssssssssssssssssssssssssssssssssssssssssc" />
  <g
     id="g4531"
     transform="translate(-5.7142857,-76.428572)"
     inkscape:export-xdpi="90"
     inkscape:export-ydpi="90">
    <text
       transform="translate(21.101251,-81.295903)"
       sodipodi:linespacing="125%"
       id="text4448-5"
       style="font-size:61.23388672px;font-style:normal;font-variant:normal;font-weight:bold;font-stretch:normal;line-height:125%;letter-spacing:0px;word-spacing:0px;fill:#ffff00;fill-opacity:1;stroke:none;font-family:Impact;-inkscape-font-specification:Impact Bold"
       xml:space="preserve"><textPath
         id="textPath4492-1"
         xlink:href="#path4490-5"><tspan
   id="tspan4450-6"
   style="font-style:normal;font-variant:normal;font-weight:bold;font-stretch:normal;fill:#ffff00;font-family:Impact;-inkscape-font-specification:Impact Bold">I need a </tspan><tspan
   id="tspan4452-1"
   style="font-style:normal;font-variant:normal;font-weight:bold;font-stretch:normal;fill:#ffff00;font-family:Impact;-inkscape-font-specification:Impact Bold">  break   !</tspan></textPath></text>
    <text
       transform="translate(23.233508,-80.812204)"
       sodipodi:linespacing="125%"
       id="text4448"
       style="font-size:61.23388672px;font-style:normal;font-variant:normal;font-weight:bold;font-stretch:normal;line-height:125%;letter-spacing:0px;word-spacing:0px;fill:#ff0000;fill-opacity:1;stroke:none;font-family:Impact;-inkscape-font-specification:Impact Bold"
       xml:space="preserve"><textPath
         id="textPath4492"
         xlink:href="#path4490"><tspan
   id="tspan4450"
   style="font-style:normal;font-variant:normal;font-weight:bold;font-stretch:normal;fill:#ff0000;font-family:Impact;-inkscape-font-specification:Impact Bold">I need a </tspan><tspan
   id="tspan4452"
   style="font-style:normal;font-variant:normal;font-weight:bold;font-stretch:normal;fill:#ff0000;font-family:Impact;-inkscape-font-specification:Impact Bold">  break   !</tspan></textPath></text>
  </g>
</svg>
